ply
format ascii 1.0
element vertex 1312
property float32 x
property float32 y
property float32 z
property float32 I
end_header
-15.5447 11.7228 -1.8692 0.9247
-16.0210 10.9978 -1.8656 0.9249
18.7445 3.3770 -2.2624 0.9261
18.3500 5.0266 -2.2600 0.9262
17.8022 6.6296 -2.2565 0.9263
17.1069 8.1713 -2.2520 0.9265
14.2162 12.2932 -2.2325 0.9271
12.7815 13.2160 -2.1839 0.9286
-14.4945 9.0273 -2.0284 0.9335
-15.2005 7.6811 -2.0230 0.9337
-16.2558 4.8447 -2.0149 0.9340
-16.5995 3.3740 -2.0121 0.9340
-16.9101 0.3768 -2.0092 0.9341
-16.4280 -4.1089 -2.0115 0.9341
-14.3766 -6.4778 -1.8731 0.9385
19.0398 0.8490 -2.2639 0.9261
18.0950 5.8349 -2.2584 0.9263
16.7062 8.9147 -2.2493 0.9266
15.8038 10.3383 -2.2433 0.9268
13.6299 12.8911 -2.2285 0.9272
11.4943 12.9967 -2.0610 0.9325
10.2489 13.9099 -2.0524 0.9328
-12.2767 10.1470 -1.8919 0.9379
-14.8620 8.3612 -2.0256 0.9336
-16.4432 4.1127 -2.0134 0.9340
-16.8799 1.1300 -2.0096 0.9341
-16.9087 -0.3768 -2.0090 0.9341
-16.8109 -1.8806 -2.0094 0.9341
-16.5869 -3.3714 -2.0106 0.9341
-16.2381 -4.8395 -2.0127 0.9340
-15.5830 -6.2019 -1.9922 0.9347
-14.0880 -7.1190 -1.8750 0.9384
17.0172 -4.6615 -2.0959 0.9314
18.7175 -1.6726 -2.2322 0.9271
15.8154 0.0000 -2.2409 0.9381
15.5568 2.8027 -2.2397 0.9381
15.2321 4.1725 -2.2377 0.9382
14.7813 5.5046 -2.2349 0.9383
14.2088 6.7870 -2.2311 0.9384
13.5205 8.0082 -2.2265 0.9385
11.8251 10.2256 -2.2151 0.9388
10.8348 11.2031 -2.2083 0.9390
9.2996 11.5103 -2.0967 0.9420
7.9998 11.9365 -2.0360 0.9436
6.8792 12.5529 -2.0282 0.9438
-7.3194 11.4656 -1.9274 0.9465
-9.1717 9.9163 -1.9139 0.9469
-10.7186 9.6944 -2.0477 0.9433
-11.5469 8.7080 -2.0492 0.9432
-12.2450 7.6263 -2.0440 0.9434
-13.3483 5.3125 -2.0356 0.9436
-13.7471 4.0971 -2.0325 0.9437
-14.2276 1.5916 -2.0285 0.9438
-14.3067 0.3188 -2.0276 0.9438
-14.2776 -0.9558 -2.0275 0.9438
-13.5464 -4.7038 -2.0318 0.9437
-13.0778 -5.8926 -2.0324 0.9437
-11.6406 -6.5489 -1.8924 0.9475
-11.0350 -7.5751 -1.8965 0.9474
13.9317 -4.4924 -2.0741 0.9426
15.6632 -2.1065 -2.2393 0.9381
15.7976 -0.7044 -2.2406 0.9381
15.0222 4.8440 -2.2364 0.9382
14.5100 6.1527 -2.2331 0.9383
12.2863 9.7024 -2.2182 0.9387
11.3409 10.7262 -2.2117 0.9389
8.5392 11.5895 -2.0397 0.9435
7.4460 12.2578 -2.0321 0.9437
-6.8143 11.8027 -1.9310 0.9464
-7.8085 11.1077 -1.9238 0.9466
-8.7354 10.3322 -1.9171 0.9468
-11.1630 9.2265 -2.0520 0.9432
-12.5581 7.0651 -2.0416 0.9434
-13.1101 5.9071 -2.0374 0.9436
-13.5607 4.7088 -2.0339 0.9437
-14.3057 -0.3188 -2.0275 0.9438
-14.0317 -2.8521 -2.0288 0.9438
-12.2966 -6.2137 -1.9521 0.9459
-11.3489 -7.0682 -1.8944 0.9474
-10.6994 -8.0688 -1.8988 0.9473
15.5300 -2.7979 -2.2359 0.9382
13.4490 1.2018 -2.2244 0.9467
13.0078 3.5632 -2.2218 0.9468
12.1392 5.7984 -2.2162 0.9469
11.5546 6.8438 -2.2123 0.9470
10.1133 8.7453 -2.2026 0.9472
9.2704 9.5856 -2.1968 0.9474
7.2199 10.7729 -2.1364 0.9488
4.8973 11.2004 -2.0138 0.9517
2.8133 11.8050 -1.9992 0.9520
-1.4610 11.8623 -1.9689 0.9527
-2.5015 11.6411 -1.9615 0.9529
-4.4930 10.9330 -1.9473 0.9532
-8.5345 9.2274 -2.0706 0.9503
-9.2967 8.4084 -2.0650 0.9505
-9.9836 7.5290 -2.0600 0.9506
-11.8990 3.5463 -2.0454 0.9509
-12.3182 1.3780 -2.0419 0.9510
-12.3874 0.2760 -2.0412 0.9510
-12.2431 -1.9251 -2.0417 0.9510
-12.0304 -3.0090 -2.0429 0.9510
-11.3310 -5.1055 -2.0474 0.9509
-9.5451 -6.5523 -1.9073 0.9541
-8.2694 -8.1778 -1.9159 0.9539
10.4062 -6.8074 -2.0485 0.9508
11.4939 -4.8738 -2.0567 0.9506
12.7750 -4.1194 -2.2113 0.9470
13.1503 -2.9795 -2.2213 0.9468
13.3746 -1.7987 -2.2232 0.9468
13.4882 -0.6015 -2.2242 0.9467
13.4900 0.6015 -2.2245 0.9467
13.1592 2.9815 -2.2228 0.9468
12.8297 4.1370 -2.2207 0.9468
12.3948 5.2558 -2.2179 0.9469
11.2271 7.3444 -2.2101 0.9471
10.5056 8.2962 -2.2053 0.9472
9.7013 9.1754 -2.1998 0.9473
8.8219 9.9750 -2.1937 0.9474
7.8649 10.6743 -2.1842 0.9477
6.4167 10.5633 -2.0361 0.9511
5.4008 10.9903 -2.0173 0.9516
-1.9842 11.7631 -1.9652 0.9528
-4.9668 10.7032 -1.9438 0.9533
-8.1049 9.5865 -2.0681 0.9504
-11.3440 5.1113 -2.0497 0.9508
-11.7365 4.0754 -2.0467 0.9509
-12.0386 3.0111 -2.0443 0.9509
-12.3646 0.8277 -2.0415 0.9510
-12.1484 -2.4692 -2.0422 0.9510
-11.5395 -4.5926 -2.0460 0.9509
-8.6149 -7.7917 -1.9136 0.9540
11.9270 -4.4417 -2.0967 0.9497
13.2762 -2.3918 -2.2223 0.9468
11.7696 0.0000 -2.2122 0.9532
11.5786 2.0860 -2.2114 0.9532
11.3396 3.1062 -2.2099 0.9533
11.0076 4.0993 -2.2078 0.9533
10.5858 5.0564 -2.2050 0.9534
10.0783 5.9694 -2.2017 0.9534
8.0932 8.3683 -2.1882 0.9537
7.2980 9.0328 -2.1827 0.9538
6.4476 9.6205 -2.1768 0.9540
5.5392 10.1077 -2.1664 0.9542
3.3829 10.1043 -2.0028 0.9576
-3.0847 9.9442 -1.9570 0.9585
-5.0412 9.7060 -2.0557 0.9565
-8.1784 7.3970 -2.0727 0.9561
-9.7853 4.9447 -2.0607 0.9564
-10.8511 1.2139 -2.0523 0.9565
-10.5970 -2.6505 -2.0532 0.9565
-9.5515 -5.3736 -2.0599 0.9564
-7.2753 -7.1947 -1.9232 0.9592
7.8476 -7.4222 -2.0303 0.9570
9.0796 -5.9396 -2.0393 0.9568
9.5901 -5.1175 -2.0432 0.9567
10.7732 -4.5682 -2.1995 0.9535
11.1760 -3.6038 -2.2072 0.9533
11.6584 -1.5679 -2.2111 0.9533
11.7581 0.5243 -2.2123 0.9532
11.4709 2.5990 -2.2107 0.9533
10.8077 4.5828 -2.2065 0.9533
9.7938 6.4068 -2.1998 0.9535
8.4679 8.0089 -2.1908 0.9537
6.8792 9.3365 -2.1798 0.9539
6.0042 9.8842 -2.1738 0.9540
5.0184 10.2122 -2.1387 0.9547
3.8611 10.0252 -2.0193 0.9572
1.9962 10.4141 -1.9931 0.9578
0.1173 10.5324 -1.9798 0.9580
-0.8178 10.4659 -1.9732 0.9582
-2.6429 10.0881 -1.9602 0.9584
-3.5190 9.7813 -1.9539 0.9586
-4.5080 9.7146 -2.0130 0.9573
-5.5484 9.6101 -2.0858 0.9558
-7.1455 8.4518 -2.0803 0.9560
-9.0627 6.2212 -2.0662 0.9562
-10.3358 3.5890 -2.0565 0.9564
-10.6033 2.6521 -2.0544 0.9565
-10.7013 -2.1751 -2.0526 0.9565
-10.4723 -3.1211 -2.0539 0.9565
-9.3065 -5.7961 -2.0608 0.9564
-7.5804 -6.8560 -1.9211 0.9593
-6.9555 -7.5202 -1.9254 0.9592
8.1802 -7.0737 -2.0327 0.9569
11.3317 -3.1041 -2.2084 0.9533
11.5732 -2.0850 -2.2103 0.9533
11.7197 -1.0473 -2.2116 0.9532
10.0409 2.7505 -2.2006 0.9583
8.4083 6.0520 -2.1899 0.9585
7.8221 6.7640 -2.1859 0.9586
7.1744 7.4183 -2.1814 0.9587
5.7190 8.5333 -2.1714 0.9589
4.9242 8.9856 -2.1659 0.9590
2.3384 9.8125 -2.1322 0.9596
0.5420 9.7196 -2.0577 0.9610
-2.0848 9.7019 -2.0976 0.9602
-2.9515 9.5147 -2.1058 0.9601
-6.0351 7.8199 -2.0880 0.9604
-7.8367 5.9099 -2.0748 0.9607
-8.3173 5.1800 -2.0712 0.9607
-9.7230 -0.6509 -2.0598 0.9609
-9.6286 -1.5140 -2.0603 0.9609
-8.9060 -4.0129 -2.0648 0.9609
-6.4886 -6.4167 -1.9290 0.9634
-5.9040 -6.9832 -1.9330 0.9633
-5.2709 -7.4979 -1.9373 0.9632
-3.8772 -8.3551 -1.9470 0.9630
5.6536 -7.6731 -2.0147 0.9618
6.3295 -7.1569 -2.0196 0.9617
6.9571 -6.5800 -2.0242 0.9616
9.5629 -4.0550 -2.1956 0.9584
9.8974 -3.1915 -2.1982 0.9584
10.1515 -2.3000 -2.2002 0.9583
10.4102 0.4642 -2.2027 0.9583
10.3258 1.3887 -2.2023 0.9583
10.1567 2.3012 -2.2013 0.9583
9.9045 3.1938 -2.1998 0.9583
9.5716 4.0587 -2.1976 0.9584
9.1610 4.8885 -2.1949 0.9584
8.6767 5.6761 -2.1917 0.9585
7.5055 7.0987 -2.1837 0.9586
6.8294 7.7221 -2.1791 0.9587
6.1009 8.2802 -2.1741 0.9588
4.5131 9.1839 -2.1630 0.9590
3.6676 9.5226 -2.1570 0.9591
1.8740 9.7764 -2.1042 0.9601
0.9791 9.7326 -2.0677 0.9608
0.1082 9.7143 -2.0535 0.9611
-2.5258 9.6408 -2.1067 0.9601
-6.3700 7.5345 -2.0855 0.9605
-6.9998 6.9223 -2.0809 0.9606
-8.0850 5.5500 -2.0729 0.9607
-8.5331 4.8006 -2.0696 0.9608
-8.9140 4.0165 -2.0667 0.9608
-9.2254 3.2034 -2.0643 0.9609
-9.7422 -0.2171 -2.0598 0.9609
-9.6851 -1.0834 -2.0600 0.9609
-8.7235 -4.4082 -2.0660 0.9608
-8.3076 -5.1740 -2.0688 0.9608
-7.8172 -5.8953 -2.0696 0.9608
-6.8767 -6.2196 -1.9599 0.9628
-4.9375 -7.7345 -1.9396 0.9632
-4.2400 -8.1635 -1.9445 0.9631
5.2994 -7.9073 -2.0121 0.9618
7.2511 -6.2702 -2.0263 0.9616
8.8357 -5.2334 -2.1707 0.9589
10.0347 -2.7488 -2.1993 0.9584
10.2475 -1.8462 -2.2010 0.9583
10.3765 -0.9273 -2.2021 0.9583
9.3022 0.8312 -2.1949 0.9624
9.0003 2.4654 -2.1932 0.9624
8.4058 4.0151 -2.1894 0.9624
6.4367 6.6555 -2.1760 0.9627
5.8072 7.1876 -2.1717 0.9627
4.4211 8.0675 -2.1621 0.9629
3.6767 8.4088 -2.1569 0.9630
-1.1043 8.9662 -2.1232 0.9636
-2.6625 8.5831 -2.1121 0.9637
-4.1216 7.9354 -2.1016 0.9639
-5.4385 7.0468 -2.0920 0.9641
-6.0316 6.5213 -2.0877 0.9642
-7.0664 5.3290 -2.0801 0.9643
-7.5010 4.6717 -2.0769 0.9643
-7.8763 3.9801 -2.0740 0.9644
-8.1898 3.2595 -2.0716 0.9644
-8.4395 2.5152 -2.0697 0.9645
-8.7735 -0.5873 -2.0666 0.9645
-8.5358 -2.1349 -2.0679 0.9645
-8.3174 -2.8881 -2.0693 0.9645
-8.0344 -3.6201 -2.0711 0.9644
-7.2827 -4.9993 -2.0761 0.9644
-6.8191 -5.6362 -2.0792 0.9643
-6.2691 -6.1997 -2.0722 0.9644
-4.7501 -6.7571 -1.9412 0.9666
-4.1388 -7.1686 -1.9454 0.9666
-3.4924 -7.5259 -1.9499 0.9665
-2.8155 -7.8258 -1.9546 0.9664
3.0526 -7.9260 -1.9962 0.9657
3.7555 -7.6422 -2.0012 0.9656
4.4315 -7.2953 -2.0061 0.9655
5.6803 -6.4228 -2.0152 0.9654
6.2421 -5.9037 -2.0193 0.9653
8.2057 -4.3787 -2.1859 0.9625
9.2524 -1.2443 -2.1941 0.9624
9.3304 0.4160 -2.1950 0.9624
9.2549 1.2447 -2.1947 0.9624
8.5808 3.6386 -2.1905 0.9624
8.2138 4.3830 -2.1881 0.9625
7.2857 5.7534 -2.1818 0.9626
6.1278 6.9288 -2.1739 0.9627
4.0525 8.2467 -2.1595 0.9629
2.5136 8.7905 -2.1488 0.9631
-0.7047 9.0185 -2.1260 0.9635
-1.5006 8.8963 -2.1204 0.9636
-2.2805 8.7045 -2.1148 0.9637
-3.7685 8.1210 -2.1041 0.9639
-4.4657 7.7348 -2.0991 0.9640
-6.3099 6.2400 -2.0857 0.9642
-7.2909 5.0049 -2.0784 0.9643
-7.6962 4.3298 -2.0754 0.9644
-8.7746 0.5874 -2.0669 0.9645
-8.7908 -0.1959 -2.0666 0.9645
-8.7392 -0.9776 -2.0667 0.9645
-7.8693 -3.9765 -2.0722 0.9644
-7.4931 -4.6667 -2.0747 0.9644
-7.0580 -5.3226 -2.0776 0.9643
-5.7489 -6.2156 -1.9898 0.9658
-5.0412 -6.5320 -1.9392 0.9667
-4.4491 -6.9694 -1.9433 0.9666
-3.8197 -7.3543 -1.9476 0.9665
-3.1574 -7.6832 -1.9523 0.9664
-1.0232 -8.3076 -1.9672 0.9662
1.2177 -8.3495 -1.9831 0.9659
2.6931 -8.0437 -1.9936 0.9657
4.0972 -7.4765 -2.0037 0.9656
4.7577 -7.0989 -2.0085 0.9655
7.5102 -5.4055 -2.1747 0.9627
9.3005 -0.8311 -2.1945 0.9624
8.4534 0.0000 -2.1887 0.9657
8.4196 0.7524 -2.1887 0.9657
8.1469 2.2317 -2.1871 0.9657
7.9105 2.9459 -2.1856 0.9657
7.6101 3.6350 -2.1836 0.9658
6.8286 4.9149 -2.1784 0.9658
6.3547 5.4951 -2.1752 0.9659
5.2615 6.5122 -2.1677 0.9660
4.0073 7.3125 -2.1590 0.9661
3.3333 7.6235 -2.1543 0.9662
0.4589 8.2295 -2.1341 0.9665
-1.7191 7.9999 -2.1186 0.9668
-3.0958 7.5331 -2.1087 0.9669
-5.4847 5.9300 -2.0914 0.9672
-5.9804 5.4089 -2.0878 0.9672
-7.8485 1.5953 -2.0737 0.9674
-8.0015 0.1783 -2.0722 0.9675
-7.9853 -0.5346 -2.0722 0.9675
-7.9075 -1.2434 -2.0726 0.9675
-7.7685 -1.9431 -2.0734 0.9675
-7.3112 -3.2943 -2.0763 0.9674
-6.9960 -3.9359 -2.0784 0.9674
-6.6258 -4.5483 -2.0808 0.9673
-5.7310 -5.6676 -2.0869 0.9672
-5.1963 -6.1461 -2.0839 0.9673
-4.3735 -6.2213 -1.9690 0.9691
-3.7623 -6.5165 -1.9483 0.9694
-3.1740 -6.8398 -1.9523 0.9693
-2.5583 -7.1108 -1.9566 0.9693
-1.9196 -7.3270 -1.9611 0.9692
-1.2628 -7.4863 -1.9657 0.9691
-0.5929 -7.5872 -1.9704 0.9690
0.7655 -7.6090 -1.9801 0.9689
1.4432 -7.5290 -1.9849 0.9688
2.1126 -7.3884 -1.9897 0.9687
4.0170 -6.6129 -2.0033 0.9685
5.2077 -5.8885 -2.0353 0.9680
6.0692 -5.7402 -2.1629 0.9661
7.0382 -4.6042 -2.1776 0.9658
8.3748 -1.1263 -2.1879 0.9657
8.4451 0.3766 -2.1888 0.9657
8.3769 1.1266 -2.1885 0.9657
7.7682 3.2940 -2.1847 0.9657
7.4367 3.9683 -2.1825 0.9658
6.5982 5.2105 -2.1768 0.9659
6.0987 5.7681 -2.1734 0.9659
5.5515 6.2771 -2.1697 0.9660
4.9614 6.7337 -2.1656 0.9660
4.3337 7.1342 -2.1613 0.9661
3.6737 7.4757 -2.1567 0.9662
2.9870 7.7557 -2.1519 0.9662
2.2796 7.9723 -2.1469 0.9663
0.8260 8.2109 -2.1367 0.9665
0.0917 8.2317 -2.1315 0.9666
-1.3626 8.0782 -2.1211 0.9667
-2.7603 7.6723 -2.1111 0.9669
-3.4244 7.3794 -2.1064 0.9669
-4.6588 6.6272 -2.0975 0.9671
-5.2199 6.1742 -2.0934 0.9671
-5.7383 5.6748 -2.0896 0.9672
-6.2103 5.1330 -2.0861 0.9673
-7.0022 3.9394 -2.0802 0.9673
-7.3166 3.2967 -2.0778 0.9674
-7.5738 2.6299 -2.0758 0.9674
-7.7719 1.9439 -2.0743 0.9674
-7.9097 1.2437 -2.0731 0.9675
-7.9863 0.5346 -2.0724 0.9675
-7.9541 -0.8898 -2.0723 0.9675
-7.6764 -2.2878 -2.0739 0.9674
-7.4475 -2.9640 -2.0754 0.9674
-7.1606 -3.6184 -2.0773 0.9674
-6.8176 -4.2461 -2.0796 0.9674
-4.0448 -6.3360 -1.9463 0.9694
-3.4719 -6.6845 -1.9503 0.9694
-2.8693 -6.9820 -1.9545 0.9693
-1.5931 -7.4139 -1.9634 0.9692
-0.2546 -7.6153 -1.9728 0.9690
3.7143 -6.7779 -2.0011 0.9686
4.8777 -6.0372 -2.0096 0.9684
5.6278 -5.8191 -2.0960 0.9671
6.3353 -5.4784 -2.1686 0.9660
7.2414 -4.2891 -2.1791 0.9658
7.6039 -3.6321 -2.1818 0.9658
7.9053 -2.9440 -2.1841 0.9657
8.1429 -2.2306 -2.1860 0.9657
8.4182 -0.7522 -2.1883 0.9657
7.7130 -0.0000 -2.1835 0.9684
7.6822 0.6865 -2.1834 0.9684
6.9450 3.3173 -2.1788 0.9685
5.8012 5.0165 -2.1711 0.9686
3.6607 6.6799 -2.1564 0.9688
3.0456 6.9654 -2.1521 0.9689
2.4085 7.1939 -2.1476 0.9690
1.0901 7.4745 -2.1384 0.9691
-1.5729 7.3197 -2.1195 0.9694
-2.2134 7.1353 -2.1149 0.9694
-3.4292 6.6024 -2.1062 0.9695
-3.9954 6.2588 -2.1021 0.9696
-4.5283 5.8675 -2.0982 0.9697
-5.4787 4.9552 -2.0912 0.9698
-5.8894 4.4414 -2.0882 0.9698
-7.2928 0.8158 -2.0774 0.9700
-7.2486 -1.1398 -2.0773 0.9700
-6.7010 -3.0193 -2.0807 0.9699
-6.4115 -3.6071 -2.0826 0.9699
-6.0717 -4.1680 -2.0849 0.9698
-5.2505 -5.1923 -2.0904 0.9698
-4.2504 -6.0463 -2.0923 0.9697
-3.5860 -6.2110 -2.0303 0.9706
-1.7568 -6.7057 -1.9624 0.9716
-1.1555 -6.8502 -1.9666 0.9715
0.0777 -6.9773 -1.9753 0.9714
1.3195 -6.8835 -1.9842 0.9713
2.5300 -6.5690 -1.9928 0.9712
5.0514 -5.7117 -2.1586 0.9688
5.5613 -5.2599 -2.1670 0.9687
6.7815 -3.6187 -2.1760 0.9686
7.0841 -3.0039 -2.1783 0.9685
7.7048 -0.3436 -2.1833 0.9684
7.6433 1.0279 -2.1832 0.9684
7.5190 1.7036 -2.1825 0.9685
6.7870 3.6217 -2.1778 0.9685
6.4307 4.2068 -2.1754 0.9686
6.0231 4.7564 -2.1727 0.9686
3.3562 6.8296 -2.1543 0.9689
2.7294 7.0868 -2.1499 0.9689
2.0835 7.2863 -2.1454 0.9690
0.7552 7.5074 -2.1360 0.9691
0.0839 7.5280 -2.1313 0.9692
-0.5852 7.4889 -2.1265 0.9693
-1.2467 7.3907 -2.1218 0.9693
-2.5263 7.0221 -2.1126 0.9695
-3.1348 6.7554 -2.1083 0.9695
-5.6897 4.7027 -2.0897 0.9698
-6.0774 4.1719 -2.0868 0.9698
-6.7056 3.0214 -2.0821 0.9699
-7.1238 1.7818 -2.0788 0.9699
-7.2505 1.1401 -2.0778 0.9699
-7.3209 0.4901 -2.0771 0.9700
-7.3346 -0.1634 -2.0769 0.9700
-7.2914 -0.8157 -2.0770 0.9700
-6.8262 -2.7168 -2.0799 0.9699
-6.2478 -3.8911 -2.0837 0.9699
-5.8836 -4.4370 -2.0861 0.9698
-5.4726 -4.9497 -2.0889 0.9698
-5.0178 -5.4251 -2.0920 0.9697
-3.9585 -6.2009 -2.0826 0.9699
-2.6268 -6.3918 -1.9563 0.9717
-1.4579 -6.7846 -1.9645 0.9716
-0.2329 -6.9660 -1.9731 0.9714
2.8231 -6.4566 -1.9949 0.9711
4.0328 -6.0173 -2.0507 0.9703
6.6097 -3.9149 -2.1747 0.9686
7.4304 -2.0354 -2.1810 0.9685
7.5865 -1.3668 -2.1823 0.9685
7.0845 0.0000 -2.1790 0.9708
6.8285 1.8705 -2.1777 0.9708
6.6311 2.4694 -2.1764 0.9708
6.0780 3.6000 -2.1728 0.9709
5.7272 4.1222 -2.1704 0.9709
5.3310 4.6099 -2.1677 0.9709
4.8927 5.0591 -2.1647 0.9710
4.4163 5.4662 -2.1614 0.9710
2.8007 6.4053 -2.1502 0.9712
2.2152 6.6165 -2.1461 0.9712
1.6144 6.7741 -2.1419 0.9713
0.3861 6.9249 -2.1333 0.9714
-2.0382 6.5706 -2.1160 0.9716
-3.1589 6.0819 -2.1079 0.9717
-4.6299 5.0058 -2.0973 0.9719
-5.0496 4.5671 -2.0942 0.9719
-5.7648 3.5903 -2.0889 0.9720
-6.4912 1.9346 -2.0834 0.9721
-6.6340 1.3484 -2.0822 0.9721
-6.3976 -2.2215 -2.0830 0.9721
-5.9114 -3.3257 -2.0862 0.9720
-5.5975 -3.8425 -2.0883 0.9720
-5.2394 -4.3305 -2.0907 0.9720
-3.9260 -5.5848 -2.0997 0.9718
-3.4145 -5.9142 -2.1005 0.9718
-2.2352 -6.2128 -2.0308 0.9727
0.6442 -6.4034 -1.9795 0.9734
2.3680 -6.1484 -2.0265 0.9728
4.1563 -5.6410 -2.1552 0.9711
6.2307 -3.3248 -2.1722 0.9709
7.0191 -0.9440 -2.1783 0.9708
7.0770 -0.3156 -2.1789 0.9708
7.0775 0.3156 -2.1791 0.9708
7.0205 0.9442 -2.1788 0.9708
6.7366 2.1723 -2.1771 0.9708
5.9085 3.8652 -2.1716 0.9709
5.5346 4.3706 -2.1691 0.9709
5.1169 4.8395 -2.1663 0.9710
4.1651 5.6529 -2.1597 0.9710
1.9164 6.7021 -2.1440 0.9712
1.3097 6.8324 -2.1398 0.9713
0.6949 6.9079 -2.1354 0.9714
-0.5387 6.8933 -2.1267 0.9715
-2.3266 6.4670 -2.1139 0.9716
-2.8875 6.2224 -2.1099 0.9717
-3.9309 5.5918 -2.1024 0.9718
-5.9158 3.3282 -2.0878 0.9720
-6.1825 2.7857 -2.0857 0.9720
-6.4008 2.2226 -2.0841 0.9720
-6.5690 1.6430 -2.0827 0.9721
-6.7638 -0.1507 -2.0809 0.9721
-6.7240 -0.7522 -2.0811 0.9721
-6.6320 -1.3480 -2.0816 0.9721
-6.4884 -1.9338 -2.0824 0.9721
-6.2943 -2.5051 -2.0837 0.9720
-6.0510 -3.0577 -2.0853 0.9720
-5.0445 -4.5624 -2.0920 0.9719
-4.6247 -5.0002 -2.0949 0.9719
-3.6761 -5.7584 -2.1013 0.9718
-3.1468 -6.0587 -2.0999 0.9718
-2.5505 -6.2062 -2.0638 0.9723
0.3579 -6.4191 -1.9775 0.9735
2.6776 -6.1239 -2.0558 0.9724
3.8931 -5.8089 -2.1508 0.9712
4.4109 -5.4595 -2.1588 0.9711
5.7219 -4.1184 -2.1684 0.9709
6.6274 -2.4681 -2.1752 0.9708
6.9687 -1.2555 -2.1779 0.9708
7.0552 -0.6304 -2.1787 0.9708
6.5438 0.0000 -2.1752 0.9728
6.5177 0.5824 -2.1752 0.9728
6.3077 1.7279 -2.1739 0.9728
5.6154 3.3260 -2.1694 0.9729
5.2917 3.8088 -2.1673 0.9729
4.9261 4.2597 -2.1648 0.9729
3.6105 5.3873 -2.1557 0.9730
3.1117 5.6781 -2.1523 0.9731
2.5896 5.9225 -2.1486 0.9731
-0.2140 6.4009 -2.1289 0.9734
-0.7814 6.3444 -2.1248 0.9734
-1.3405 6.2379 -2.1209 0.9735
-2.4164 5.8800 -2.1132 0.9736
-3.8648 5.0077 -2.1027 0.9737
-4.2888 4.6371 -2.0996 0.9737
-4.6782 4.2311 -2.0967 0.9738
-5.0300 3.7933 -2.0941 0.9738
-6.0160 1.7930 -2.0867 0.9739
-6.2332 0.6973 -2.0849 0.9739
-6.2694 0.1397 -2.0845 0.9739
-6.2568 -0.4189 -2.0844 0.9739
-6.1956 -0.9742 -2.0847 0.9739
-5.1868 -3.5606 -2.0913 0.9738
-4.8546 -4.0124 -2.0935 0.9738
-4.4836 -4.4339 -2.0960 0.9738
-4.0766 -4.8218 -2.0988 0.9737
-3.6365 -5.1729 -2.1019 0.9737
-3.1665 -5.4845 -2.1051 0.9737
-2.6701 -5.7538 -2.1085 0.9736
-2.1474 -5.9687 -2.1085 0.9736
-1.6083 -6.1387 -2.1094 0.9736
-0.4851 -6.2079 -2.0698 0.9741
0.0692 -6.2088 -2.0640 0.9742
1.1859 -6.1868 -2.0940 0.9738
2.3121 -6.0031 -2.1384 0.9732
2.8463 -5.7920 -2.1452 0.9732
3.3601 -5.5314 -2.1513 0.9731
3.8453 -5.2190 -2.1548 0.9730
5.4546 -3.5683 -2.1666 0.9729
5.7565 -3.0718 -2.1689 0.9729
6.2201 -2.0058 -2.1724 0.9728
6.3776 -1.4450 -2.1737 0.9728
6.0159 2.5510 -2.1721 0.9728
5.7605 3.0739 -2.1704 0.9729
5.4590 3.5711 -2.1684 0.9729
5.1140 4.0384 -2.1660 0.9729
4.7285 4.4722 -2.1634 0.9729
3.3643 5.5383 -2.1540 0.9731
2.8532 5.8062 -2.1505 0.9731
-0.4985 6.3789 -2.1269 0.9734
-1.0622 6.2974 -2.1228 0.9734
-1.6155 6.1663 -2.1189 0.9735
-2.1540 5.9871 -2.1150 0.9735
-2.6736 5.7615 -2.1113 0.9736
-4.0810 4.8270 -2.1011 0.9737
-4.4880 4.4383 -2.0981 0.9737
-5.4818 3.0840 -2.0908 0.9738
-5.9321 2.0598 -2.0873 0.9739
-6.2574 0.4189 -2.0846 0.9739
-6.2692 -0.1397 -2.0844 0.9739
-6.1469 -1.2494 -2.0850 0.9739
-6.0136 -1.7922 -2.0858 0.9739
-5.8334 -2.3216 -2.0870 0.9739
-5.6076 -2.8336 -2.0885 0.9739
-5.3377 -3.3244 -2.0903 0.9738
-3.8604 -5.0021 -2.1003 0.9737
-2.9214 -5.6247 -2.1068 0.9736
-2.4110 -5.8668 -2.1084 0.9736
-1.3323 -6.1998 -2.1079 0.9736
-0.2076 -6.2092 -2.0651 0.9742
0.9037 -6.1962 -2.0815 0.9740
1.4712 -6.1735 -2.1096 0.9736
2.5812 -5.9033 -2.1417 0.9732
3.1067 -5.6691 -2.1488 0.9731
4.0772 -5.0464 -2.1565 0.9730
4.5169 -4.6704 -2.1597 0.9730
4.9214 -4.2557 -2.1627 0.9729
5.2872 -3.8055 -2.1654 0.9729
5.8904 -2.8136 -2.1699 0.9729
6.1225 -2.2800 -2.1717 0.9728
6.5169 -0.5824 -2.1749 0.9728
6.0734 0.0000 -2.1719 0.9745
6.0491 0.5406 -2.1718 0.9745
5.8544 1.6037 -2.1707 0.9745
5.2126 3.0875 -2.1665 0.9746
3.7904 4.6914 -2.1568 0.9747
1.9032 5.6844 -2.1437 0.9749
0.3320 5.9544 -2.1326 0.9750
-1.2463 5.7999 -2.1214 0.9751
-1.7546 5.6562 -2.1178 0.9752
-3.9905 4.3144 -2.1016 0.9753
-4.9714 3.0962 -2.0944 0.9754
-5.2225 2.6390 -2.0925 0.9754
-5.4325 2.1621 -2.0909 0.9755
-5.5999 1.6690 -2.0896 0.9755
-5.7235 1.1633 -2.0886 0.9755
-5.8361 0.1301 -2.0876 0.9755
-5.6654 -1.4170 -2.0884 0.9755
-5.3299 -2.4015 -2.0905 0.9755
-5.0987 -2.8685 -2.0921 0.9755
-4.5177 -3.7340 -2.0960 0.9754
-3.7930 -4.4864 -2.1009 0.9754
-2.4836 -5.3521 -2.1100 0.9752
-1.5002 -5.7263 -2.1169 0.9752
0.0662 -5.9409 -2.1247 0.9751
1.1230 -5.8588 -2.1333 0.9750
1.6441 -5.7496 -2.1385 0.9749
2.1536 -5.5916 -2.1428 0.9749
3.5713 -4.8470 -2.1530 0.9747
4.3861 -4.1484 -2.1589 0.9747
5.0639 -3.3126 -2.1639 0.9746
5.3438 -2.8515 -2.1660 0.9746
5.5810 -2.3666 -2.1678 0.9746
5.7734 -1.8617 -2.1693 0.9746
5.9194 -1.3412 -2.1705 0.9745
5.9212 1.3416 -2.1711 0.9745
5.7759 1.8625 -2.1702 0.9745
5.0676 3.3151 -2.1655 0.9746
4.7477 3.7492 -2.1634 0.9746
3.5752 4.8522 -2.1553 0.9747
3.1246 5.1437 -2.1522 0.9748
2.6503 5.3932 -2.1489 0.9748
-0.4634 5.9298 -2.1270 0.9750
-1.5021 5.7336 -2.1196 0.9751
-2.0031 5.5678 -2.1160 0.9752
-2.4866 5.3586 -2.1125 0.9752
-3.3869 4.8179 -2.1060 0.9753
-3.7969 4.4909 -2.1030 0.9753
-4.5215 3.7371 -2.0977 0.9754
-5.6672 1.4175 -2.0891 0.9755
-5.7686 0.9071 -2.0882 0.9755
-5.8016 -0.6490 -2.0876 0.9755
-5.5978 -1.6683 -2.0888 0.9755
-5.4299 -2.1610 -2.0899 0.9755
-4.3493 -3.9337 -2.0971 0.9754
-2.2445 -5.4617 -2.1117 0.9752
-1.2443 -5.7904 -2.1180 0.9752
-0.7247 -5.8840 -2.1200 0.9751
0.3311 -5.9373 -2.1265 0.9751
1.9007 -5.6772 -2.1410 0.9749
2.4025 -5.4947 -2.1446 0.9748
3.7864 -4.6865 -2.1546 0.9747
4.1943 -4.3369 -2.1575 0.9747
5.4679 -2.6118 -2.1670 0.9746
5.8523 -1.6031 -2.1699 0.9746
5.4560 1.4946 -2.1679 0.9761
4.8585 2.8777 -2.1640 0.9761
3.9140 4.0470 -2.1576 0.9762
3.5340 4.3740 -2.1549 0.9762
3.1265 4.6651 -2.1521 0.9762
2.2434 5.1309 -2.1460 0.9763
1.7751 5.3021 -2.1427 0.9763
1.2941 5.4305 -2.1393 0.9764
0.8044 5.5152 -2.1359 0.9764
-0.6780 5.5045 -2.1254 0.9765
-1.1633 5.4135 -2.1219 0.9766
-1.6379 5.2800 -2.1185 0.9766
-2.0981 5.1053 -2.1152 0.9766
-2.5403 4.8910 -2.1120 0.9767
-2.9613 4.6388 -2.1090 0.9767
-3.3578 4.3508 -2.1061 0.9767
-5.0755 2.0200 -2.0934 0.9769
-5.4216 0.6065 -2.0906 0.9769
-5.4532 0.1215 -2.0903 0.9769
-5.4422 -0.3643 -2.0902 0.9769
-5.3889 -0.8474 -2.0905 0.9769
-5.2935 -1.3240 -2.0911 0.9769
-5.1568 -1.7906 -2.0919 0.9769
-4.7634 -2.6799 -2.0945 0.9769
-2.7507 -4.7644 -2.1082 0.9767
-2.3190 -4.9974 -2.1112 0.9767
-1.4005 -5.3456 -2.1177 0.9766
-0.9206 -5.4577 -2.1210 0.9766
-0.4319 -5.5269 -2.1245 0.9765
0.5567 -5.5341 -2.1315 0.9765
1.0488 -5.4716 -2.1350 0.9764
2.9105 -4.7913 -2.1483 0.9763
3.7241 -4.2109 -2.1542 0.9762
4.0891 -3.8675 -2.1569 0.9762
4.4222 -3.4921 -2.1593 0.9762
5.3808 -1.7351 -2.1666 0.9761
5.6079 -0.7542 -2.1684 0.9761
5.6539 -0.2521 -2.1688 0.9760
5.6543 0.2521 -2.1690 0.9760
5.6089 0.7543 -2.1688 0.9760
5.5181 1.2502 -2.1682 0.9761
4.9838 2.6594 -2.1648 0.9761
4.0927 3.8709 -2.1588 0.9762
3.3335 4.5242 -2.1536 0.9762
2.4716 5.0296 -2.1476 0.9763
1.0501 5.4783 -2.1376 0.9764
0.0619 5.5595 -2.1306 0.9765
-0.4324 5.5338 -2.1271 0.9765
-0.9217 5.4644 -2.1236 0.9765
-1.4022 5.3520 -2.1202 0.9766
-2.3216 5.0030 -2.1136 0.9767
-2.7537 4.7695 -2.1105 0.9767
-3.1628 4.4991 -2.1075 0.9767
-5.1588 1.7913 -2.0928 0.9769
-5.2951 1.3244 -2.0917 0.9769
-5.2302 -1.5588 -2.0914 0.9769
-5.0732 -2.0191 -2.0924 0.9769
-4.8763 -2.4641 -2.0937 0.9769
-4.6411 -2.8905 -2.0953 0.9769
-4.0627 -3.6745 -2.0992 0.9768
-3.7236 -4.0259 -2.1015 0.9768
-2.9582 -4.6339 -2.1068 0.9767
-2.5375 -4.8856 -2.1097 0.9767
-1.6359 -5.2738 -2.1160 0.9766
-0.6771 -5.4977 -2.1228 0.9766
-0.1854 -5.5452 -2.1262 0.9765
0.3094 -5.5489 -2.1297 0.9765
1.2926 -5.4238 -2.1367 0.9764
1.7730 -5.2958 -2.1402 0.9764
2.2408 -5.1250 -2.1435 0.9763
2.6922 -4.9126 -2.1468 0.9763
3.5305 -4.3698 -2.1528 0.9762
4.2598 -3.6836 -2.1582 0.9762
4.8554 -2.8759 -2.1626 0.9761
5.4542 -1.4940 -2.1671 0.9761
5.6366 -0.5037 -2.1687 0.9760
5.2084 0.9383 -2.1660 0.9774
5.1027 1.3978 -2.1653 0.9774
4.5444 2.6917 -2.1617 0.9774
4.2833 3.0830 -2.1599 0.9774
3.9882 3.4488 -2.1579 0.9775
2.9254 4.3651 -2.1506 0.9775
1.2114 5.0831 -2.1387 0.9777
0.7530 5.1630 -2.1354 0.9777
0.2900 5.2015 -2.1322 0.9777
-0.6349 5.1546 -2.1256 0.9778
-1.0895 5.0699 -2.1224 0.9778
-1.5341 4.9454 -2.1192 0.9779
-1.9653 4.7823 -2.1161 0.9779
-2.3798 4.5819 -2.1131 0.9779
-2.7744 4.3460 -2.1103 0.9780
-3.1462 4.0766 -2.1076 0.9780
-4.5731 2.3109 -2.0970 0.9781
-4.7574 1.8934 -2.0956 0.9781
-4.9044 1.4617 -2.0945 0.9781
-2.1261 0.2378 -0.8756 0.9908
-2.1302 -0.1426 -0.8738 0.9908
-2.1345 -0.3356 -0.8843 0.9907
-2.1308 -0.5330 -0.8989 0.9906
-4.4647 -2.5118 -2.0966 0.9781
-3.9551 -3.2690 -2.1001 0.9781
-3.6520 -3.6116 -2.1021 0.9780
-3.3197 -3.9266 -2.1044 0.9780
-2.9605 -4.2114 -2.1069 0.9780
-2.5772 -4.4638 -2.1095 0.9780
-1.3118 -5.0069 -2.1184 0.9779
-0.8622 -5.1114 -2.1215 0.9778
-0.4044 -5.1757 -2.1248 0.9778
0.5212 -5.1814 -2.1313 0.9777
0.9819 -5.1223 -2.1346 0.9777
1.4360 -5.0222 -2.1378 0.9777
2.7236 -4.4836 -2.1471 0.9776
3.4843 -3.9398 -2.1526 0.9775
3.8256 -3.6182 -2.1551 0.9775
4.1369 -3.2668 -2.1574 0.9775
4.4154 -2.8885 -2.1594 0.9775
5.2447 -0.7053 -2.1658 0.9774
5.2877 -0.2358 -2.1663 0.9774
5.2879 0.2358 -2.1664 0.9774
5.0343 1.6234 -2.1649 0.9774
3.1189 4.2330 -2.1520 0.9775
2.7263 4.4882 -2.1492 0.9776
2.3129 4.7067 -2.1464 0.9776
0.0580 5.2053 -2.1305 0.9778
-0.4049 5.1818 -2.1272 0.9778
-1.3132 5.0126 -2.1208 0.9779
-2.1748 4.6866 -2.1146 0.9779
-2.5798 4.4683 -2.1117 0.9779
-2.9633 4.2154 -2.1089 0.9780
-3.6550 3.6145 -2.1038 0.9780
-3.9580 3.2714 -2.1016 0.9781
-4.8356 1.6791 -2.0950 0.9781
-2.1345 0.3356 -0.8843 0.9907
-2.1302 0.1426 -0.8738 0.9908
-2.1365 -0.4343 -0.8923 0.9906
-4.9027 -1.4612 -2.0938 0.9781
-4.7554 -1.8926 -2.0947 0.9781
-4.5707 -2.3097 -2.0959 0.9781
-4.3500 -2.7092 -2.0974 0.9781
-3.4894 -3.7727 -2.1032 0.9780
-2.3773 -4.5772 -2.1109 0.9780
-1.0882 -5.0642 -2.1199 0.9779
-0.6341 -5.1487 -2.1231 0.9778
0.7521 -5.1570 -2.1330 0.9777
1.2100 -5.0773 -2.1362 0.9777
2.0973 -4.7966 -2.1426 0.9776
2.5194 -4.5974 -2.1456 0.9776
2.9226 -4.3608 -2.1485 0.9776
3.3034 -4.0886 -2.1513 0.9775
3.9851 -3.4461 -2.1563 0.9775
4.5417 -2.6901 -2.1604 0.9774
4.7668 -2.2769 -2.1621 0.9774
4.9538 -1.8448 -2.1635 0.9774
5.1011 -1.3973 -2.1647 0.9774
5.2073 -0.9381 -2.1655 0.9774
4.9655 0.0000 -2.1640 0.9786
4.8860 0.8803 -2.1637 0.9786
4.2637 2.5254 -2.1597 0.9786
3.1029 3.8405 -2.1518 0.9787
2.7456 4.0967 -2.1493 0.9787
2.3672 4.3195 -2.1467 0.9787
0.7070 4.8476 -2.1350 0.9789
0.2723 4.8843 -2.1320 0.9789
-0.1632 4.8821 -2.1289 0.9789
-0.5962 4.8411 -2.1258 0.9789
-1.4411 4.6455 -2.1198 0.9790
-2.2359 4.3048 -2.1141 0.9791
-2.9564 3.8307 -2.1088 0.9791
-3.2819 3.5483 -2.1065 0.9791
-4.2985 2.1721 -2.0989 0.9792
-4.4719 1.7798 -2.0976 0.9792
-1.8741 0.5585 -0.8523 0.9915
-1.9433 0.2174 -0.8522 0.9915
-1.9470 0.0434 -0.8487 0.9915
-1.9479 -0.1304 -0.8508 0.9915
-1.9397 -0.3050 -0.8557 0.9915
-1.9080 -0.4772 -0.8571 0.9915
-1.8290 -0.6351 -0.8438 0.9916
-4.3876 -1.9769 -2.0973 0.9792
-4.1967 -2.3610 -2.0986 0.9792
-3.9727 -2.7271 -2.1001 0.9792
-3.7173 -3.0724 -2.1018 0.9792
-3.1197 -3.6900 -2.1059 0.9791
-2.4216 -4.1943 -2.1107 0.9791
-0.8099 -4.8011 -2.1220 0.9790
0.0544 -4.8827 -2.1281 0.9789
0.4895 -4.8655 -2.1312 0.9789
1.3482 -4.7151 -2.1373 0.9788
2.1688 -4.4135 -2.1432 0.9788
2.5564 -4.2084 -2.1460 0.9787
2.9244 -3.9691 -2.1486 0.9787
3.2699 -3.6973 -2.1511 0.9787
4.3711 -2.3325 -2.1593 0.9786
4.5645 -1.9355 -2.1607 0.9786
4.9201 -0.6617 -2.1635 0.9786
4.9606 0.2212 -2.1640 0.9786
4.9208 0.6618 -2.1639 0.9786
4.5665 1.9363 -2.1617 0.9786
3.8844 3.0675 -2.1571 0.9786
3.5927 3.3979 -2.1551 0.9787
2.9271 3.9726 -2.1505 0.9787
2.5588 4.2124 -2.1480 0.9787
2.1710 4.4179 -2.1453 0.9788
0.9229 4.8147 -2.1365 0.9788
0.4900 4.8708 -2.1335 0.9789
0.0545 4.8880 -2.1304 0.9789
-0.8107 4.8063 -2.1243 0.9790
-1.2335 4.7084 -2.1213 0.9790
-1.6454 4.5736 -2.1183 0.9790
-2.0432 4.4030 -2.1154 0.9790
-2.4238 4.1982 -2.1127 0.9791
-3.1223 3.6931 -2.1076 0.9791
-3.4349 3.3968 -2.1053 0.9791
-3.7199 3.0746 -2.1033 0.9792
-3.9752 2.7288 -2.1014 0.9792
-1.9479 0.1304 -0.8508 0.9915
-1.9433 -0.2174 -0.8522 0.9915
-1.9300 -0.3923 -0.8583 0.9914
-1.8741 -0.5585 -0.8523 0.9915
-3.8488 -2.9026 -2.1009 0.9792
-3.5784 -3.2364 -2.1027 0.9792
-2.9538 -3.8274 -2.1070 0.9791
-2.6044 -4.0798 -2.1094 0.9791
-2.2337 -4.3006 -2.1120 0.9791
-1.4396 -4.6407 -2.1176 0.9790
-1.0222 -4.7570 -2.1205 0.9790
-0.1631 -4.8767 -2.1265 0.9789
0.2720 -4.8789 -2.1296 0.9789
1.5580 -4.6536 -2.1388 0.9788
1.9688 -4.5027 -2.1417 0.9788
2.3649 -4.3153 -2.1446 0.9788
2.7430 -4.0929 -2.1473 0.9787
3.1002 -3.8371 -2.1499 0.9787
4.0163 -2.8908 -2.1566 0.9786
4.2612 -2.5239 -2.1584 0.9786
4.4723 -2.1362 -2.1600 0.9786
4.7855 -1.3109 -2.1624 0.9786
4.8850 -0.8801 -2.1632 0.9786
4.9452 -0.4419 -2.1638 0.9786
4.6520 0.4157 -2.1619 0.9796
4.5959 0.8280 -2.1616 0.9796
4.5028 1.2334 -2.1610 0.9796
4.3735 1.6287 -2.1602 0.9796
4.2090 2.0105 -2.1592 0.9796
4.0109 2.3757 -2.1578 0.9797
3.2329 3.3427 -2.1526 0.9797
1.8547 4.2419 -2.1430 0.9798
1.0705 4.4920 -2.1375 0.9799
-0.1537 4.5966 -2.1289 0.9799
-0.5614 4.5584 -2.1260 0.9800
-2.1060 4.0547 -2.1149 0.9801
-3.6288 2.7366 -2.1038 0.9802
-1.5257 0.6072 -0.7601 0.9928
-1.5924 0.4746 -0.7692 0.9927
-1.6675 0.1865 -0.7767 0.9926
-1.6716 0.0373 -0.7739 0.9927
-1.6521 -0.2598 -0.7741 0.9927
-1.6165 -0.4043 -0.7713 0.9927
-3.7434 -2.5697 -2.1017 0.9802
-3.2338 -3.1979 -2.1052 0.9802
-2.6208 -3.7281 -2.1094 0.9801
-1.5482 -4.3032 -2.1169 0.9800
-1.1605 -4.4296 -2.1196 0.9800
-0.7626 -4.5212 -2.1224 0.9800
0.0512 -4.5972 -2.1281 0.9799
1.6613 -4.3135 -2.1396 0.9798
2.7519 -3.7350 -2.1475 0.9798
3.6521 -2.8840 -2.1540 0.9797
4.1121 -2.1943 -2.1575 0.9797
4.2938 -1.8207 -2.1588 0.9797
4.6279 -0.6224 -2.1615 0.9796
4.6658 -0.2081 -2.1619 0.9796
4.6286 0.6225 -2.1618 0.9796
4.2956 1.8215 -2.1597 0.9796
3.6544 2.8859 -2.1554 0.9797
3.3801 3.1969 -2.1536 0.9797
3.0792 3.4817 -2.1515 0.9797
2.0431 4.1576 -2.1443 0.9798
1.2704 4.4428 -2.1389 0.9798
0.4613 4.5854 -2.1332 0.9799
0.0513 4.6020 -2.1303 0.9799
-0.3580 4.5820 -2.1274 0.9799
-1.9244 4.1470 -2.1162 0.9801
-2.9414 3.4791 -2.1089 0.9801
-3.2361 3.2003 -2.1067 0.9801
-3.9566 2.2259 -2.1014 0.9802
-4.1363 1.8637 -2.1000 0.9802
-1.5621 0.5424 -0.7654 0.9927
-1.6165 0.4043 -0.7713 0.9927
-1.6738 0.1120 -0.7765 0.9926
-1.6716 -0.0373 -0.7739 0.9927
-1.5924 -0.4746 -0.7692 0.9927
-1.5258 -0.6072 -0.7601 0.9928
-3.8528 -2.3995 -2.1010 0.9802
-2.7828 -3.6057 -2.1083 0.9801
-2.4534 -3.8432 -2.1106 0.9801
-1.3558 -4.3707 -2.1182 0.9800
-0.9627 -4.4798 -2.1210 0.9800
-0.1535 -4.5918 -2.1267 0.9800
0.2561 -4.5935 -2.1296 0.9799
1.0694 -4.4875 -2.1354 0.9799
1.4665 -4.3803 -2.1382 0.9798
2.2256 -4.0612 -2.1437 0.9798
2.9172 -3.6107 -2.1487 0.9797
4.0088 -2.3744 -2.1567 0.9797
4.5015 -1.2331 -2.1604 0.9796
4.5950 -0.8278 -2.1612 0.9796
4.4036 0.0000 -2.1601 0.9806
4.3332 0.7807 -2.1597 0.9806
3.9687 1.8957 -2.1574 0.9806
3.7821 2.2401 -2.1562 0.9806
3.5652 2.5661 -2.1547 0.9806
2.7535 3.4081 -2.1492 0.9807
2.4368 3.6359 -2.1470 0.9807
1.7496 4.0014 -2.1422 0.9807
1.0100 4.2379 -2.1370 0.9808
0.6280 4.3056 -2.1343 0.9808
0.2419 4.3388 -2.1316 0.9808
-0.1450 4.3376 -2.1289 0.9808
-0.5298 4.3019 -2.1261 0.9809
-2.3182 3.6314 -2.1133 0.9810
-2.6294 3.4070 -2.1111 0.9810
-2.9193 3.1563 -2.1089 0.9810
-3.4266 2.5841 -2.1052 0.9811
-3.8251 1.9329 -2.1022 0.9811
-1.3200 0.3934 -0.6756 0.9939
-1.3419 0.1501 -0.6624 0.9940
-1.3257 -0.2085 -0.6583 0.9940
-1.3149 -0.3289 -0.6649 0.9940
-1.2865 -0.5797 -0.6922 0.9937
-3.7346 -2.1010 -2.1019 0.9811
-2.1535 -3.7300 -2.1127 0.9810
-1.8150 -3.9113 -2.1151 0.9810
-1.0954 -4.1810 -2.1201 0.9809
-0.7198 -4.2672 -2.1227 0.9809
1.1974 -4.1874 -2.1363 0.9808
1.9255 -3.9183 -2.1416 0.9807
2.2693 -3.7357 -2.1440 0.9807
2.5956 -3.5228 -2.1464 0.9807
3.1854 -3.0128 -2.1507 0.9807
3.4440 -2.7197 -2.1526 0.9806
3.6753 -2.4043 -2.1543 0.9806
4.0487 -1.7168 -2.1571 0.9806
4.1875 -1.3503 -2.1582 0.9806
4.3634 -0.5868 -2.1596 0.9806
4.3990 -0.1962 -2.1600 0.9806
4.3992 0.1962 -2.1601 0.9806
4.3640 0.5869 -2.1599 0.9806
4.0502 1.7174 -2.1580 0.9806
3.8793 2.0700 -2.1568 0.9806
3.4461 2.7214 -2.1539 0.9806
2.9040 3.2836 -2.1502 0.9807
2.5977 3.5256 -2.1481 0.9807
2.2712 3.7388 -2.1458 0.9807
0.4353 4.3265 -2.1330 0.9808
0.0484 4.3425 -2.1302 0.9808
-1.8166 3.9147 -2.1169 0.9810
-2.1553 3.7332 -2.1145 0.9810
-2.7772 3.2848 -2.1100 0.9810
-3.3094 2.7353 -2.1061 0.9811
-1.2865 0.5797 -0.6922 0.9937
-1.3149 0.3289 -0.6649 0.9940
-1.3257 0.2084 -0.6583 0.9940
-1.3513 0.0905 -0.6643 0.9940
-1.3536 -0.0302 -0.6641 0.9940
-1.3419 -0.1501 -0.6624 0.9940
-1.3047 -0.2652 -0.6531 0.9941
-1.3200 -0.3934 -0.6756 0.9939
-1.3059 -0.5198 -0.6895 0.9938
-3.6384 -2.2660 -2.1026 0.9811
-3.4246 -2.5826 -2.1040 0.9811
-3.1836 -2.8794 -2.1056 0.9811
-2.9172 -3.1541 -2.1074 0.9810
-2.6274 -3.4044 -2.1094 0.9810
-1.6399 -3.9905 -2.1163 0.9810
-1.2798 -4.1256 -2.1188 0.9809
-0.1449 -4.3334 -2.1268 0.9809
0.2417 -4.3346 -2.1295 0.9808
1.3836 -4.1325 -2.1377 0.9808
1.7480 -3.9978 -2.1403 0.9807
2.0994 -3.8309 -2.1428 0.9807
3.3180 -2.8692 -2.1517 0.9806
3.5632 -2.5646 -2.1535 0.9806
3.7801 -2.2390 -2.1551 0.9806
4.1222 -1.5351 -2.1577 0.9806
4.2443 -1.1626 -2.1586 0.9806
4.1438 0.3703 -2.1583 0.9814
4.0939 0.7376 -2.1580 0.9814
4.0111 1.0988 -2.1575 0.9814
3.8961 1.4509 -2.1568 0.9814
3.5736 2.1166 -2.1547 0.9815
3.1374 2.7130 -2.1517 0.9815
1.6537 3.7822 -2.1415 0.9816
0.9547 4.0063 -2.1366 0.9816
0.2287 4.1022 -2.1315 0.9817
-0.1371 4.1013 -2.1289 0.9817
-0.5010 4.0679 -2.1263 0.9817
-0.8601 4.0023 -2.1237 0.9817
-2.1928 3.4350 -2.1142 0.9818
-3.0139 2.7259 -2.1082 0.9819
-3.2419 2.4449 -2.1065 0.9819
-1.0665 0.5390 -0.6199 0.9946
-1.1070 0.4406 -0.6181 0.9946
-1.1266 0.3358 -0.6099 0.9947
-1.1517 -0.1811 -0.6048 0.9948
-1.1275 -0.2820 -0.6029 0.9948
-1.1198 -0.3889 -0.6150 0.9947
-1.0898 -0.4910 -0.6201 0.9946
-3.5336 -1.9880 -2.1034 0.9819
-3.3447 -2.2960 -2.1046 0.9819
-2.8888 -2.8568 -2.1077 0.9819
-2.6253 -3.1053 -2.1095 0.9818
-2.0371 -3.5283 -2.1136 0.9818
-1.7168 -3.6995 -2.1158 0.9818
-1.3822 -3.8419 -2.1182 0.9818
-1.0360 -3.9542 -2.1206 0.9817
-0.6807 -4.0354 -2.1231 0.9817
0.0457 -4.1021 -2.1282 0.9817
0.4111 -4.0867 -2.1308 0.9817
1.1319 -3.9586 -2.1359 0.9816
1.4815 -3.8466 -2.1384 0.9816
2.4531 -3.3294 -2.1454 0.9815
3.6637 -1.9550 -2.1543 0.9815
3.8254 -1.6221 -2.1556 0.9815
3.9564 -1.2758 -2.1566 0.9814
4.0557 -0.9189 -2.1574 0.9814
4.1225 -0.5544 -2.1579 0.9814
4.1563 0.1853 -2.1583 0.9814
4.1230 0.5545 -2.1582 0.9814
3.9576 1.2761 -2.1572 0.9814
3.8268 1.6227 -2.1564 0.9814
3.0122 2.8489 -2.1509 0.9815
2.1465 3.5337 -2.1449 0.9815
1.8216 3.7068 -2.1426 0.9816
1.4828 3.8500 -2.1403 0.9816
0.7749 4.0424 -2.1353 0.9816
-0.6813 4.0391 -2.1250 0.9817
-1.0369 3.9577 -2.1225 0.9817
-1.7182 3.7026 -2.1176 0.9818
-2.3425 3.3322 -2.1131 0.9818
-2.6272 3.1074 -2.1110 0.9818
-1.1198 0.3888 -0.6150 0.9947
-1.1275 0.2820 -0.6029 0.9948
-1.1517 0.1811 -0.6048 0.9948
-1.1739 0.0786 -0.6103 0.9947
-1.1649 -0.1303 -0.6081 0.9947
-1.1333 -0.2303 -0.5999 0.9948
-1.1266 -0.3358 -0.6099 0.9947
-3.4425 -2.1440 -2.1040 0.9819
-3.2401 -2.4435 -2.1053 0.9819
-2.7599 -2.9839 -2.1086 0.9819
-2.1911 -3.4323 -2.1125 0.9818
-0.1370 -4.0975 -2.1269 0.9817
0.2285 -4.0985 -2.1295 0.9817
0.5931 -4.0668 -2.1321 0.9817
1.3079 -3.9065 -2.1372 0.9816
1.9843 -3.6210 -2.1421 0.9816
2.3012 -3.4336 -2.1443 0.9815
2.8792 -2.9770 -2.1485 0.9815
3.1354 -2.7113 -2.1504 0.9815
3.5719 -2.1156 -2.1537 0.9815
3.7483 -1.7904 -2.1550 0.9815
4.1435 -0.3703 -2.1581 0.9814
2.0429 0.0000 -1.1189 0.9907
2.0356 0.1819 -1.1193 0.9907
2.0004 0.5480 -1.1360 0.9906
2.9700 2.5682 -2.1505 0.9823
2.4636 3.0492 -2.1470 0.9823
2.1804 3.2534 -2.1451 0.9823
1.8804 3.4312 -2.1430 0.9823
1.5659 3.5813 -2.1408 0.9823
0.9042 3.7940 -2.1362 0.9824
0.5622 3.8551 -2.1338 0.9824
0.2166 3.8854 -2.1313 0.9824
-0.1299 3.8847 -2.1289 0.9824
-0.4746 3.8533 -2.1264 0.9824
-1.1477 3.6997 -2.1216 0.9825
-1.4708 3.5790 -2.1193 0.9825
-1.7816 3.4303 -2.1171 0.9825
-2.6171 2.8296 -2.1110 0.9826
-2.8562 2.5832 -2.1093 0.9826
-3.2642 2.0330 -2.1062 0.9826
-0.9364 0.4732 -0.5746 0.9952
-0.9638 0.3836 -0.5681 0.9953
-0.9825 0.2928 -0.5615 0.9953
-1.0000 0.2032 -0.5589 0.9954
-1.0293 0.1151 -0.5673 0.9953
-1.0415 0.0232 -0.5706 0.9953
-1.0376 -0.0695 -0.5696 0.9953
-0.9756 -0.3388 -0.5656 0.9953
-0.9472 -0.4268 -0.5690 0.9953
-0.9240 -0.5198 -0.5806 0.9952
-3.1699 -2.1760 -2.1059 0.9826
-2.9656 -2.4512 -2.1073 0.9826
-2.7377 -2.7074 -2.1088 0.9826
-2.4879 -2.9427 -2.1105 0.9826
-1.6266 -3.5053 -2.1165 0.9825
-0.6448 -3.8229 -2.1234 0.9825
-0.3024 -3.8695 -2.1258 0.9825
0.7332 -3.8251 -2.1331 0.9824
1.0720 -3.7489 -2.1356 0.9824
1.4029 -3.6426 -2.1379 0.9824
1.7234 -3.5071 -2.1402 0.9823
2.0308 -3.3432 -2.1424 0.9823
2.3226 -3.1523 -2.1446 0.9823
2.5964 -2.9358 -2.1465 0.9823
2.8498 -2.6954 -2.1484 0.9823
3.2875 -2.1506 -2.1516 0.9822
3.4681 -1.8506 -2.1530 0.9822
1.9407 -0.8229 -1.1546 0.9904
2.0226 -0.2720 -1.1178 0.9907
2.0434 -0.0911 -1.1203 0.9907
2.0042 0.4541 -1.1255 0.9907
3.0825 2.4343 -2.1513 0.9822
2.0324 3.3457 -2.1441 0.9823
1.7248 3.5098 -2.1419 0.9823
1.0729 3.7520 -2.1374 0.9824
0.7338 3.8284 -2.1350 0.9824
0.0433 3.8889 -2.1301 0.9824
-0.9823 3.7493 -2.1228 0.9825
-1.9317 3.3458 -2.1160 0.9825
-2.2196 3.1575 -2.1139 0.9826
-2.7394 2.7090 -2.1101 0.9826
-2.9673 2.4525 -2.1084 0.9826
-0.9472 0.4268 -0.5690 0.9953
-0.9847 0.2463 -0.5559 0.9954
-1.0415 -0.0232 -0.5706 0.9953
-1.0293 -0.1151 -0.5673 0.9953
-0.9638 -0.3836 -0.5681 0.9953
-3.2628 -2.0321 -2.1053 0.9826
-3.0708 -2.3158 -2.1066 0.9826
-2.6154 -2.8278 -2.1097 0.9826
-2.3553 -3.0519 -2.1115 0.9826
-2.0763 -3.2524 -2.1134 0.9826
-1.7803 -3.4276 -2.1154 0.9825
-1.4696 -3.5761 -2.1176 0.9825
-1.1467 -3.6967 -2.1199 0.9825
-0.8140 -3.7882 -2.1222 0.9825
0.2165 -3.8820 -2.1295 0.9824
0.5618 -3.8517 -2.1319 0.9824
1.8789 -3.4286 -2.1413 0.9823
2.1788 -3.2510 -2.1435 0.9823
2.4619 -3.0471 -2.1456 0.9823
2.9683 -2.5668 -2.1493 0.9823
3.1873 -2.2941 -2.1509 0.9822
3.3812 -2.0027 -2.1523 0.9822
3.5480 -1.6948 -2.1536 0.9822
2.0004 -0.5480 -1.1360 0.9906
2.0036 -0.3610 -1.1150 0.9908
2.0356 -0.1819 -1.1193 0.9907
1.8754 0.0000 -1.0828 0.9914
1.8426 0.3320 -1.0810 0.9914
1.8267 0.5004 -1.0935 0.9913
1.7869 0.6655 -1.1009 0.9912
3.2071 1.8996 -2.1520 0.9829
2.8160 2.4351 -2.1494 0.9830
2.5862 2.6741 -2.1478 0.9830
2.0677 3.0852 -2.1442 0.9830
1.7832 3.2539 -2.1423 0.9830
1.1757 3.5116 -2.1380 0.9830
0.8576 3.5985 -2.1358 0.9831
0.5333 3.6567 -2.1335 0.9831
0.2055 3.6856 -2.1312 0.9831
-0.7730 3.5972 -2.1242 0.9831
-2.2368 2.8983 -2.1137 0.9832
-2.4838 2.6854 -2.1119 0.9832
-2.9161 2.1992 -2.1087 0.9833
-0.8491 0.5288 -0.5776 0.9954
-0.8760 0.4426 -0.5667 0.9955
-0.9306 0.0207 -0.5374 0.9957
-0.9274 -0.0621 -0.5366 0.9957
-0.9189 -0.1445 -0.5370 0.9957
-0.9030 -0.2258 -0.5374 0.9957
-0.8984 -0.3119 -0.5490 0.9956
-2.5984 -2.5696 -2.1098 0.9833
-2.3612 -2.7928 -2.1115 0.9833
-2.1050 -2.9944 -2.1132 0.9832
-1.2426 -3.4539 -2.1192 0.9832
-0.9312 -3.5544 -2.1214 0.9832
-0.2869 -3.6711 -2.1260 0.9831
0.3694 -3.6718 -2.1306 0.9831
0.6955 -3.6283 -2.1329 0.9831
1.3306 -3.4548 -2.1375 0.9830
1.9259 -3.1705 -2.1417 0.9830
2.2025 -2.9893 -2.1437 0.9830
2.7022 -2.5558 -2.1474 0.9830
2.9212 -2.3068 -2.1490 0.9830
1.6861 -0.8997 -1.1034 0.9912
1.8108 -0.5839 -1.0985 0.9913
1.8316 -0.4150 -1.0843 0.9914
1.8592 -0.2500 -1.0831 0.9914
1.8755 -0.0836 -1.0839 0.9914
1.8316 0.4150 -1.0843 0.9914
1.8108 0.5839 -1.0985 0.9913
2.7038 2.5572 -2.1486 0.9830
2.4636 2.7856 -2.1470 0.9830
1.3316 3.4575 -2.1391 0.9830
0.6960 3.6312 -2.1347 0.9831
0.3697 3.6748 -2.1324 0.9831
-1.2436 3.4566 -2.1209 0.9832
-1.5447 3.3288 -2.1187 0.9832
-2.1064 2.9964 -2.1147 0.9832
-2.3627 2.7946 -2.1128 0.9832
-2.5999 2.5711 -2.1111 0.9833
-3.0102 2.0664 -2.1080 0.9833
-0.8858 0.3991 -0.5609 0.9955
-0.9030 0.2258 -0.5374 0.9957
-0.9189 0.1445 -0.5370 0.9957
-0.9237 -0.1033 -0.5366 0.9957
-0.9120 -0.1854 -0.5373 0.9957
-0.9012 -0.2686 -0.5429 0.9957
-0.8760 -0.4427 -0.5667 0.9955
-2.9147 -2.1981 -2.1077 0.9833
-2.4823 -2.6838 -2.1106 0.9833
-2.2353 -2.8964 -2.1123 0.9832
-1.0881 -3.5076 -2.1203 0.9832
-0.7724 -3.5943 -2.1225 0.9832
-0.4499 -3.6527 -2.1248 0.9831
-0.1231 -3.6822 -2.1271 0.9831
0.5329 -3.6537 -2.1318 0.9831
2.5847 -2.6725 -2.1465 0.9830
3.0221 -2.1752 -2.1497 0.9829
1.7194 -0.8213 -1.1001 0.9912
1.8426 -0.3320 -1.0810 0.9914
1.8700 -0.1671 -1.0839 0.9914
