ply
format ascii 1.0
element vertex 1336
property float32 x
property float32 y
property float32 z
property float32 I
end_header
-15.5447 11.7228 -1.8692 0.9247
-16.4656 10.2549 -1.8623 0.9250
-18.1670 -6.3083 -1.8463 0.9256
-17.5700 -7.9166 -1.8501 0.9255
-17.8854 -7.1182 -1.8481 0.9256
19.0581 0.0000 -2.2638 0.9261
18.3500 5.0266 -2.2600 0.9262
15.3045 11.0155 -2.2399 0.9269
14.2162 12.2932 -2.2325 0.9271
12.7815 13.2160 -2.1839 0.9286
10.8815 13.4682 -2.0567 0.9326
-10.8737 11.7565 -1.9023 0.9375
-11.8329 10.7023 -1.8952 0.9378
-15.7886 6.2837 -2.0185 0.9338
-16.2558 4.8447 -2.0149 0.9340
-16.5995 3.3740 -2.0121 0.9340
-16.8180 1.8814 -2.0102 0.9341
-16.8756 -1.1297 -2.0091 0.9341
-16.4280 -4.1089 -2.0115 0.9341
-14.3766 -6.4778 -1.8731 0.9385
17.5210 -2.3563 -2.1000 0.9313
19.0398 0.8490 -2.2639 0.9261
18.8828 2.5395 -2.2632 0.9261
18.0950 5.8349 -2.2584 0.9263
15.8037 10.3383 -2.2433 0.9268
14.7748 11.6676 -2.2363 0.9270
13.6299 12.8911 -2.2285 0.9272
11.4942 12.9967 -2.0610 0.9325
10.2489 13.9099 -2.0524 0.9328
-14.0540 9.6475 -2.0249 0.9336
-14.8620 8.3612 -2.0256 0.9336
-16.0375 5.5688 -2.0166 0.9339
-16.7244 2.6298 -2.0110 0.9341
-16.9087 -0.3768 -2.0090 0.9341
-15.5830 -6.2019 -1.9922 0.9347
-14.0880 -7.1189 -1.8750 0.9384
-13.4296 -8.3640 -1.8793 0.9383
17.3894 -3.1329 -2.0989 0.9313
18.7175 -1.6726 -2.2322 0.9271
15.8154 0.0000 -2.2409 0.9381
15.7518 1.4076 -2.2408 0.9381
14.2088 6.7870 -2.2311 0.9384
13.5205 8.0082 -2.2265 0.9385
12.7233 9.1577 -2.2212 0.9386
11.8251 10.2256 -2.2151 0.9388
10.8348 11.2031 -2.2083 0.9390
-8.2807 10.7296 -1.9204 0.9467
-10.7186 9.6944 -2.0477 0.9433
-12.2450 7.6263 -2.0440 0.9434
-13.7471 4.0971 -2.0325 0.9437
-14.3067 0.3188 -2.0276 0.9438
-13.5463 -4.7038 -2.0318 0.9437
-13.0778 -5.8926 -2.0324 0.9437
-11.6406 -6.5489 -1.8924 0.9475
15.6632 -2.1065 -2.2393 0.9381
15.7976 -0.7044 -2.2406 0.9381
15.8001 0.7046 -2.2409 0.9381
15.4105 3.4916 -2.2388 0.9382
15.0222 4.8440 -2.2364 0.9382
14.5099 6.1527 -2.2331 0.9383
13.8787 7.4059 -2.2289 0.9384
11.3409 10.7262 -2.2117 0.9389
8.5392 11.5895 -2.0397 0.9435
7.4460 12.2578 -2.0321 0.9437
-9.8268 9.7180 -1.9582 0.9457
-11.1630 9.2265 -2.0520 0.9432
-11.9078 8.1742 -2.0465 0.9433
-13.5607 4.7088 -2.0339 0.9437
-14.1476 2.2246 -2.0292 0.9438
-14.3057 -0.3188 -2.0275 0.9438
-14.2225 -1.5910 -2.0277 0.9438
-13.7344 -4.0933 -2.0306 0.9437
15.7468 -1.4071 -2.2400 0.9381
13.5031 0.0000 -2.2245 0.9467
13.4490 1.2018 -2.2244 0.9467
13.2833 2.3931 -2.2235 0.9468
13.0078 3.5632 -2.2218 0.9468
12.6252 4.7017 -2.2194 0.9468
12.1392 5.7984 -2.2162 0.9469
7.2199 10.7729 -2.1364 0.9488
4.8973 11.2004 -2.0138 0.9517
3.8671 11.5504 -2.0066 0.9518
-1.4610 11.8623 -1.9689 0.9527
-3.5147 11.3302 -1.9543 0.9530
-4.4930 10.9330 -1.9472 0.9532
-9.9836 7.5290 -2.0600 0.9506
-10.5908 6.5960 -2.0554 0.9507
-11.8990 3.5463 -2.0454 0.9509
-12.3182 1.3780 -2.0419 0.9510
-12.0304 -3.0090 -2.0429 0.9510
-11.7258 -4.0716 -2.0448 0.9509
-11.3310 -5.1055 -2.0474 0.9509
-10.8192 -6.0868 -2.0451 0.9509
-9.5451 -6.5523 -1.9073 0.9541
-8.9430 -7.3916 -1.9113 0.9541
-8.2694 -8.1778 -1.9159 0.9539
11.4939 -4.8738 -2.0567 0.9506
13.1503 -2.9795 -2.2213 0.9468
13.4882 -0.6015 -2.2242 0.9467
13.4900 0.6015 -2.2245 0.9467
13.3800 1.7994 -2.2241 0.9467
11.8589 6.3281 -2.2144 0.9470
8.8218 9.9750 -2.1937 0.9474
6.4167 10.5633 -2.0361 0.9511
5.4008 10.9903 -2.0173 0.9516
3.3426 11.6897 -2.0029 0.9519
2.2803 11.8962 -1.9955 0.9521
-4.9668 10.7032 -1.9438 0.9533
-8.9247 8.8258 -2.0678 0.9504
-10.8633 6.1116 -2.0534 0.9507
-11.3440 5.1113 -2.0497 0.9508
-12.2483 1.9260 -2.0426 0.9510
-12.3866 -0.2760 -2.0411 0.9510
-12.1483 -2.4692 -2.0422 0.9510
-11.5395 -4.5926 -2.0460 0.9509
-11.1005 -5.6093 -2.0489 0.9508
-9.9862 -6.2194 -1.9381 0.9534
10.7109 -6.3441 -2.0508 0.9508
11.2555 -5.3763 -2.0549 0.9507
11.9270 -4.4417 -2.0967 0.9497
12.9974 -3.5604 -2.2201 0.9468
13.2762 -2.3918 -2.2223 0.9468
11.7696 0.0000 -2.2122 0.9532
11.7224 1.0475 -2.2121 0.9532
10.5858 5.0564 -2.2050 0.9534
8.0932 8.3683 -2.1882 0.9537
7.2980 9.0328 -2.1827 0.9538
6.4476 9.6205 -2.1768 0.9540
2.4622 10.3318 -1.9964 0.9577
0.5874 10.5344 -1.9831 0.9580
-3.0847 9.9442 -1.9570 0.9585
-5.0412 9.7060 -2.0557 0.9565
-6.7708 8.7732 -2.0830 0.9559
-8.1784 7.3970 -2.0727 0.9561
-9.3221 5.8058 -2.0642 0.9563
-10.4797 3.1233 -2.0554 0.9565
-10.8511 1.2139 -2.0523 0.9565
-10.7850 -1.6959 -2.0521 0.9565
-10.3275 -3.5861 -2.0549 0.9565
-9.9783 -4.4960 -2.0571 0.9564
-9.0182 -6.1907 -2.0560 0.9565
-7.2753 -7.1947 -1.9232 0.9592
-6.6214 -7.8319 -1.9277 0.9591
7.8475 -7.4222 -2.0303 0.9570
9.5901 -5.1175 -2.0432 0.9567
10.7732 -4.5682 -2.1995 0.9535
11.4642 -2.5974 -2.2094 0.9533
11.7581 0.5243 -2.2123 0.9532
11.6625 1.5685 -2.2118 0.9532
11.4709 2.5990 -2.2107 0.9533
10.3424 5.5189 -2.2034 0.9534
8.4679 8.0089 -2.1907 0.9537
6.8792 9.3365 -2.1798 0.9539
6.0042 9.8842 -2.1737 0.9540
2.9248 10.2285 -1.9996 0.9576
1.9962 10.4141 -1.9931 0.9578
0.1173 10.5324 -1.9798 0.9580
-1.7403 10.3171 -1.9666 0.9583
-4.5080 9.7146 -2.0130 0.9573
-6.3819 9.0784 -2.0858 0.9558
-7.1455 8.4518 -2.0803 0.9560
-8.4904 7.0175 -2.0704 0.9562
-9.5631 5.3801 -2.0624 0.9563
-10.3358 3.5890 -2.0565 0.9564
-10.7891 1.6965 -2.0529 0.9565
-10.7013 -2.1751 -2.0525 0.9565
-9.7744 -4.9392 -2.0585 0.9564
-8.2493 -6.2211 -1.9420 0.9588
-6.9555 -7.5202 -1.9254 0.9592
-6.2737 -8.1291 -1.9301 0.9591
9.3442 -5.5346 -2.0413 0.9568
10.2621 -4.9018 -2.1376 0.9548
10.9974 -4.0955 -2.2058 0.9534
11.5732 -2.0850 -2.2103 0.9533
4.9242 8.9856 -2.1659 0.9590
2.3384 9.8125 -2.1322 0.9596
1.4222 9.7513 -2.0830 0.9605
0.5420 9.7196 -2.0577 0.9610
-0.3247 9.7123 -2.0541 0.9610
-2.9515 9.5147 -2.1058 0.9601
-3.7839 9.2077 -2.1043 0.9601
-5.3282 8.3465 -2.0931 0.9603
-6.6918 7.2350 -2.0832 0.9605
-7.2936 6.5967 -2.0788 0.9606
-7.8367 5.9099 -2.0748 0.9607
-9.3544 2.7879 -2.0633 0.9609
-9.5578 1.9427 -2.0616 0.9609
-9.6875 1.0837 -2.0605 0.9609
-9.7426 0.2171 -2.0599 0.9609
-9.6286 -1.5140 -2.0603 0.9609
-8.5239 -4.7955 -2.0673 0.9608
-8.0749 -5.5431 -2.0703 0.9607
-7.5022 -6.2007 -2.0574 0.9610
-6.4886 -6.4167 -1.9290 0.9634
-5.9040 -6.9832 -1.9330 0.9633
-5.2709 -7.4979 -1.9373 0.9632
-3.8772 -8.3551 -1.9470 0.9630
5.6536 -7.6731 -2.0147 0.9618
6.3295 -7.1569 -2.0196 0.9617
6.9571 -6.5800 -2.0242 0.9616
9.1388 -4.8766 -2.1896 0.9585
9.5629 -4.0550 -2.1956 0.9584
10.1515 -2.3000 -2.2002 0.9583
10.4091 -0.4642 -2.2025 0.9583
10.1567 2.3012 -2.2013 0.9583
9.5716 4.0587 -2.1976 0.9584
9.1610 4.8885 -2.1949 0.9584
8.6767 5.6761 -2.1917 0.9585
7.5055 7.0987 -2.1837 0.9586
6.1009 8.2802 -2.1740 0.9588
5.3265 8.7686 -2.1687 0.9589
2.7899 9.7567 -2.1450 0.9594
0.9791 9.7326 -2.0677 0.9608
0.1082 9.7143 -2.0535 0.9611
-0.7588 9.7108 -2.0589 0.9610
-2.5258 9.6408 -2.1067 0.9601
-3.3715 9.3712 -2.1052 0.9601
-4.1846 9.0176 -2.1014 0.9602
-7.5728 6.2591 -2.0767 0.9606
-8.0850 5.5500 -2.0729 0.9607
-8.5331 4.8006 -2.0696 0.9608
-8.9140 4.0165 -2.0667 0.9608
-9.2254 3.2034 -2.0643 0.9609
-9.4652 2.3674 -2.0624 0.9609
-9.6319 1.5146 -2.0610 0.9609
-9.7244 0.6510 -2.0601 0.9609
-9.6851 -1.0834 -2.0600 0.9609
-9.5536 -1.9419 -2.0607 0.9609
-9.0712 -3.6103 -2.0638 0.9609
-8.7235 -4.4082 -2.0660 0.9608
-8.3076 -5.1740 -2.0688 0.9608
-7.8172 -5.8952 -2.0696 0.9608
-6.2026 -6.7062 -1.9309 0.9633
-4.9375 -7.7344 -1.9396 0.9632
5.9972 -7.4228 -2.0172 0.9617
6.6497 -6.8757 -2.0219 0.9616
7.2510 -6.2702 -2.0263 0.9616
8.8357 -5.2334 -2.1707 0.9589
9.3664 -4.4739 -2.1941 0.9585
9.7400 -3.6272 -2.1970 0.9584
10.2475 -1.8462 -2.2010 0.9583
9.3395 0.0000 -2.1950 0.9624
9.3022 0.8313 -2.1949 0.9624
9.0003 2.4654 -2.1932 0.9624
8.7385 3.2542 -2.1915 0.9624
8.0053 4.7416 -2.1867 0.9625
7.0163 6.0672 -2.1800 0.9626
6.4367 6.6555 -2.1760 0.9627
5.8072 7.1876 -2.1717 0.9627
5.1333 7.6595 -2.1670 0.9628
4.4211 8.0675 -2.1621 0.9629
3.6767 8.4088 -2.1569 0.9630
2.9064 8.6809 -2.1515 0.9631
2.1167 8.8822 -2.1460 0.9632
-1.8929 8.8089 -2.1176 0.9637
-2.6625 8.5831 -2.1121 0.9637
-3.4072 8.2910 -2.1067 0.9638
-4.8003 7.5195 -2.0967 0.9640
-5.4385 7.0468 -2.0920 0.9641
-6.0316 6.5213 -2.0877 0.9642
-6.5755 5.9472 -2.0837 0.9642
-7.0664 5.3290 -2.0801 0.9643
-7.5010 4.6717 -2.0769 0.9643
-7.8763 3.9801 -2.0740 0.9644
-8.4395 2.5152 -2.0697 0.9645
-8.7411 0.9778 -2.0672 0.9645
-8.7912 0.1959 -2.0666 0.9645
-8.5358 -2.1349 -2.0679 0.9645
-8.3173 -2.8881 -2.0693 0.9645
-8.0344 -3.6201 -2.0711 0.9644
-7.6887 -4.3256 -2.0734 0.9644
-6.8191 -5.6362 -2.0792 0.9643
-4.7501 -6.7571 -1.9412 0.9666
-2.8155 -7.8258 -1.9546 0.9664
-0.6529 -8.3560 -1.9698 0.9661
1.5906 -8.2980 -1.9857 0.9659
2.3290 -8.1451 -1.9910 0.9658
3.7555 -7.6421 -2.0012 0.9656
4.4315 -7.2953 -2.0061 0.9655
5.6803 -6.4228 -2.0152 0.9654
6.2421 -5.9037 -2.0193 0.9653
7.0795 -5.5906 -2.1201 0.9636
7.7667 -5.0807 -2.1812 0.9626
8.2057 -4.3787 -2.1859 0.9625
8.5738 -3.6356 -2.1887 0.9625
8.8727 -2.8611 -2.1910 0.9624
9.0996 -2.0617 -2.1928 0.9624
9.2523 -1.2443 -2.1941 0.9624
9.3295 -0.4160 -2.1948 0.9624
9.2549 1.2447 -2.1947 0.9624
8.5808 3.6386 -2.1905 0.9624
7.7808 5.0899 -2.1852 0.9625
7.2857 5.7534 -2.1818 0.9626
6.7330 6.3681 -2.1781 0.9626
4.7817 7.8717 -2.1646 0.9629
4.0525 8.2467 -2.1595 0.9629
3.2944 8.5536 -2.1542 0.9630
2.5136 8.7905 -2.1488 0.9631
0.9103 9.0491 -2.1375 0.9633
0.1010 9.0698 -2.1317 0.9634
-1.5006 8.8962 -2.1204 0.9636
-3.7685 8.1210 -2.1041 0.9639
-5.1247 7.2900 -2.0943 0.9640
-5.7409 6.7904 -2.0898 0.9641
-6.8278 5.6433 -2.0819 0.9643
-7.2909 5.0049 -2.0784 0.9643
-7.6962 4.3298 -2.0754 0.9644
-8.0409 3.6231 -2.0728 0.9644
-8.3227 2.8900 -2.0706 0.9644
-8.7746 0.5874 -2.0669 0.9645
-8.7908 -0.1959 -2.0666 0.9645
-8.7392 -0.9776 -2.0667 0.9645
-8.6203 -1.7521 -2.0674 0.9645
-7.8693 -3.9765 -2.0722 0.9644
-7.4931 -4.6667 -2.0747 0.9644
-7.0580 -5.3226 -2.0776 0.9643
-6.5572 -5.9307 -2.0779 0.9643
-5.7489 -6.2156 -1.9898 0.9658
-5.0411 -6.5320 -1.9392 0.9667
-4.4491 -6.9694 -1.9433 0.9666
-3.8197 -7.3542 -1.9476 0.9665
-3.1574 -7.6832 -1.9523 0.9664
-1.7539 -8.1621 -1.9621 0.9663
5.9669 -6.1698 -2.0172 0.9653
6.5770 -5.6873 -2.0435 0.9649
7.5102 -5.4055 -2.1747 0.9627
7.9968 -4.7365 -2.1844 0.9625
8.7321 -3.2519 -2.1899 0.9624
9.1853 -1.6548 -2.1935 0.9624
9.3005 -0.8311 -2.1945 0.9624
8.4196 0.7524 -2.1887 0.9657
7.9105 2.9459 -2.1856 0.9657
7.6101 3.6350 -2.1836 0.9658
7.2483 4.2932 -2.1812 0.9658
6.3547 5.4951 -2.1752 0.9659
5.8307 6.0289 -2.1716 0.9659
1.9200 8.0565 -2.1444 0.9664
1.1924 8.1758 -2.1393 0.9664
-0.2747 8.2176 -2.1289 0.9666
-1.0026 8.1407 -2.1237 0.9667
-1.7191 7.9999 -2.1186 0.9668
-3.7456 7.2116 -2.1041 0.9670
-4.3634 6.8351 -2.0996 0.9670
-4.9445 6.4067 -2.0954 0.9671
-5.4847 5.9300 -2.0914 0.9672
-5.9804 5.4089 -2.0878 0.9672
-6.4279 4.8475 -2.0845 0.9673
-7.1664 3.6214 -2.0790 0.9674
-7.9557 0.8900 -2.0727 0.9675
-8.0014 0.1783 -2.0722 0.9675
-7.9075 -1.2434 -2.0726 0.9675
-6.9960 -3.9359 -2.0784 0.9674
-6.6258 -4.5483 -2.0808 0.9673
-2.5583 -7.1108 -1.9566 0.9693
-1.9196 -7.3270 -1.9611 0.9692
-0.5929 -7.5872 -1.9704 0.9690
1.4432 -7.5290 -1.9849 0.9688
2.1126 -7.3884 -1.9897 0.9687
3.4049 -6.9288 -1.9989 0.9686
4.5993 -6.2422 -2.0075 0.9685
5.2077 -5.8885 -2.0353 0.9680
6.0692 -5.7402 -2.1629 0.9661
7.0382 -4.6042 -2.1776 0.9658
7.4301 -3.9648 -2.1805 0.9658
8.0322 -2.5901 -2.1851 0.9657
8.2370 -1.8662 -2.1868 0.9657
8.4444 -0.3766 -2.1886 0.9657
8.3769 1.1266 -2.1885 0.9657
7.7681 3.2940 -2.1847 0.9657
6.5982 5.2105 -2.1768 0.9659
5.5515 6.2771 -2.1697 0.9660
4.9614 6.7337 -2.1656 0.9660
2.9870 7.7557 -2.1519 0.9662
2.2796 7.9723 -2.1469 0.9663
1.5573 8.1243 -2.1418 0.9664
0.8260 8.2109 -2.1367 0.9665
0.0917 8.2317 -2.1315 0.9666
-1.3626 8.0782 -2.1211 0.9667
-2.0713 7.9060 -2.1161 0.9668
-2.7603 7.6723 -2.1111 0.9669
-4.0588 7.0301 -2.1018 0.9670
-5.7383 5.6748 -2.0896 0.9672
-6.6326 4.5530 -2.0830 0.9673
-7.0022 3.9394 -2.0802 0.9673
-7.3166 3.2967 -2.0778 0.9674
-7.7719 1.9439 -2.0743 0.9674
-7.9097 1.2437 -2.0731 0.9675
-7.9863 0.5346 -2.0724 0.9675
-8.0011 -0.1783 -2.0721 0.9675
-7.8456 -1.5947 -2.0729 0.9675
-7.4475 -2.9640 -2.0754 0.9674
-7.1606 -3.6184 -2.0773 0.9674
-6.8176 -4.2460 -2.0796 0.9674
-5.4703 -5.9144 -2.0859 0.9673
-4.7921 -6.2093 -2.0308 0.9681
-4.0448 -6.3360 -1.9463 0.9694
-2.8693 -6.9820 -1.9545 0.9693
-2.2415 -7.2259 -1.9589 0.9692
-1.5931 -7.4139 -1.9634 0.9692
-0.9292 -7.5441 -1.9681 0.9691
-0.2546 -7.6153 -1.9728 0.9690
0.4252 -7.6263 -1.9776 0.9689
2.4426 -7.2956 -1.9920 0.9687
3.7143 -6.7778 -2.0011 0.9686
4.3121 -6.4342 -2.0055 0.9685
6.3353 -5.4784 -2.1686 0.9660
6.8211 -4.9095 -2.1760 0.9659
7.9053 -2.9440 -2.1841 0.9657
8.3143 -1.4979 -2.1874 0.9657
7.7130 0.0000 -2.1835 0.9684
7.5888 1.3672 -2.1829 0.9685
7.4338 2.0363 -2.1820 0.9685
6.9450 3.3173 -2.1788 0.9685
4.8047 5.9468 -2.1643 0.9687
3.6607 6.6799 -2.1564 0.9688
3.0456 6.9654 -2.1521 0.9689
1.7549 7.3639 -2.1430 0.9690
1.0901 7.4745 -2.1384 0.9691
0.4196 7.5252 -2.1336 0.9692
-0.2513 7.5159 -2.1289 0.9692
-0.9172 7.4471 -2.1241 0.9693
-1.5729 7.3197 -2.1195 0.9694
-2.2134 7.1352 -2.1149 0.9694
-2.8337 6.8954 -2.1104 0.9695
-3.4292 6.6023 -2.1062 0.9695
-3.9954 6.2588 -2.1021 0.9696
-4.5283 5.8675 -2.0982 0.9697
-5.4787 4.9552 -2.0912 0.9698
-5.8894 4.4414 -2.0882 0.9698
-7.1941 1.4623 -2.0783 0.9699
-7.2928 0.8158 -2.0774 0.9700
-7.3201 -0.4900 -2.0769 0.9700
-7.2486 -1.1398 -2.0772 0.9700
-7.1210 -1.7811 -2.0780 0.9699
-6.9380 -2.4091 -2.0791 0.9699
-6.4115 -3.6071 -2.0826 0.9699
-6.0717 -4.1680 -2.0849 0.9698
-5.6837 -4.6977 -2.0875 0.9698
-4.7749 -5.6478 -2.0937 0.9697
-3.5860 -6.2110 -2.0303 0.9706
-2.3418 -6.5091 -1.9583 0.9717
-1.7568 -6.7057 -1.9624 0.9716
-1.1555 -6.8502 -1.9666 0.9715
-0.5424 -6.9410 -1.9710 0.9715
1.3195 -6.8835 -1.9842 0.9713
1.9311 -6.7536 -1.9885 0.9712
3.1111 -6.3310 -1.9970 0.9711
5.5613 -5.2599 -2.1670 0.9687
6.4246 -4.2028 -2.1734 0.9686
7.0841 -3.0039 -2.1783 0.9685
7.3297 -2.3635 -2.1802 0.9685
7.7048 -0.3436 -2.1833 0.9684
7.7054 0.3436 -2.1835 0.9684
7.6433 1.0279 -2.1832 0.9684
7.5190 1.7036 -2.1825 0.9685
7.0889 3.0060 -2.1798 0.9685
6.7870 3.6217 -2.1778 0.9685
4.5310 6.1496 -2.1624 0.9687
2.7294 7.0868 -2.1499 0.9689
2.0834 7.2863 -2.1454 0.9690
1.4236 7.4267 -2.1407 0.9691
-0.5852 7.4889 -2.1265 0.9693
-3.7162 6.4367 -2.1041 0.9696
-4.2663 6.0689 -2.1001 0.9696
-5.6897 4.7027 -2.0897 0.9698
-7.2505 1.1401 -2.0778 0.9699
-7.3209 0.4901 -2.0771 0.9700
-7.2914 -0.8157 -2.0770 0.9700
-7.1918 -1.4618 -2.0776 0.9700
-7.0363 -2.0971 -2.0785 0.9699
-6.8262 -2.7167 -2.0799 0.9699
-6.5627 -3.3163 -2.0816 0.9699
-6.2478 -3.8911 -2.0837 0.9699
-5.4726 -4.9497 -2.0889 0.9698
-5.0178 -5.4251 -2.0920 0.9697
-4.5185 -5.8549 -2.0937 0.9697
-1.4579 -6.7846 -1.9645 0.9716
-0.2329 -6.9660 -1.9731 0.9714
2.2325 -6.6681 -1.9907 0.9712
2.8231 -6.4566 -1.9949 0.9711
5.3130 -5.4937 -2.1636 0.9687
6.2268 -4.4818 -2.1719 0.9686
6.6097 -3.9149 -2.1747 0.9686
7.5865 -1.3668 -2.1823 0.9685
7.6810 -0.6864 -2.1831 0.9684
7.0845 0.0000 -2.1790 0.9708
7.0562 0.6305 -2.1790 0.9708
6.9706 1.2558 -2.1785 0.9708
6.6311 2.4695 -2.1764 0.9708
6.0780 3.6000 -2.1728 0.9709
5.7272 4.1222 -2.1704 0.9709
5.3310 4.6098 -2.1677 0.9709
4.8927 5.0590 -2.1647 0.9710
3.3658 6.1418 -2.1542 0.9711
1.6143 6.7741 -2.1419 0.9713
1.0030 6.8771 -2.1376 0.9713
-2.0382 6.5706 -2.1160 0.9716
-2.6099 6.3508 -2.1119 0.9717
-3.1589 6.0819 -2.1079 0.9717
-3.6811 5.7663 -2.1042 0.9718
-5.4288 4.0941 -2.0914 0.9719
-5.7648 3.5903 -2.0889 0.9720
-6.0551 3.0598 -2.0867 0.9720
-6.2978 2.5065 -2.0849 0.9720
-6.6340 1.3484 -2.0822 0.9721
-6.7251 0.7523 -2.0814 0.9721
-6.7505 -0.4519 -2.0809 0.9721
-6.6845 -1.0511 -2.0813 0.9721
-6.3976 -2.2215 -2.0830 0.9721
-5.9114 -3.3257 -2.0862 0.9720
-5.2394 -4.3305 -2.0907 0.9720
-4.4006 -5.2050 -2.0964 0.9719
-3.4145 -5.9142 -2.1005 0.9718
-2.2352 -6.2128 -2.0308 0.9727
-0.4993 -6.3899 -1.9714 0.9735
0.6442 -6.4034 -1.9795 0.9734
1.2140 -6.3336 -1.9835 0.9734
1.7765 -6.2129 -1.9876 0.9733
3.6234 -5.9650 -2.1467 0.9712
4.1563 -5.6410 -2.1552 0.9711
5.1113 -4.8342 -2.1639 0.9710
5.5291 -4.3663 -2.1670 0.9709
5.9033 -3.8618 -2.1697 0.9709
6.5081 -2.7597 -2.1743 0.9708
6.9041 -1.5643 -2.1774 0.9708
7.0191 -0.9440 -2.1783 0.9708
7.0775 0.3156 -2.1791 0.9708
6.9066 1.5648 -2.1781 0.9708
6.2353 3.3273 -2.1738 0.9709
5.9085 3.8651 -2.1716 0.9709
5.1169 4.8395 -2.1663 0.9710
4.1651 5.6529 -2.1597 0.9710
3.6393 5.9911 -2.1561 0.9711
3.0861 6.2800 -2.1522 0.9711
1.3097 6.8324 -2.1398 0.9713
0.0772 6.9281 -2.1311 0.9714
-0.5387 6.8933 -2.1267 0.9715
-1.1477 6.8041 -2.1224 0.9715
-3.4236 5.9298 -2.1060 0.9718
-3.9309 5.5918 -2.1024 0.9718
-4.4057 5.2111 -2.0989 0.9718
-4.8446 4.7910 -2.0957 0.9719
-5.2445 4.3347 -2.0928 0.9719
-5.6024 3.8458 -2.0901 0.9720
-6.4008 2.2226 -2.0841 0.9720
-6.5690 1.6430 -2.0827 0.9721
-6.6861 1.0513 -2.0818 0.9721
-6.7638 -0.1507 -2.0809 0.9721
-6.7240 -0.7522 -2.0811 0.9721
-6.0510 -3.0577 -2.0853 0.9720
-5.0445 -4.5624 -2.0920 0.9719
-4.6247 -5.0002 -2.0949 0.9719
-2.5505 -6.2062 -2.0638 0.9723
-1.3425 -6.2475 -1.9655 0.9736
-0.2144 -6.4124 -1.9734 0.9735
0.9297 -6.3749 -1.9815 0.9734
2.0662 -6.1716 -2.0018 0.9731
3.3236 -6.0647 -2.1271 0.9715
3.8931 -5.8089 -2.1508 0.9712
5.3254 -4.6051 -2.1655 0.9710
6.0731 -3.5971 -2.1710 0.9709
6.3758 -3.0454 -2.1733 0.9709
6.8256 -1.8697 -2.1768 0.9708
6.9687 -1.2555 -2.1779 0.9708
7.0552 -0.6304 -2.1787 0.9708
6.5438 -0.0000 -2.1752 0.9728
6.4388 1.1600 -2.1747 0.9728
6.3077 1.7278 -2.1739 0.9728
5.8941 2.8154 -2.1713 0.9728
5.6154 3.3260 -2.1694 0.9729
4.9261 4.2597 -2.1648 0.9729
4.5216 4.6753 -2.1620 0.9730
4.0818 5.0521 -2.1590 0.9730
3.6105 5.3872 -2.1557 0.9730
3.1117 5.6781 -2.1523 0.9731
1.4931 6.2653 -2.1409 0.9732
-0.2140 6.4009 -2.1289 0.9734
-0.7814 6.3444 -2.1248 0.9734
-1.3404 6.2379 -2.1209 0.9735
-1.8869 6.0827 -2.1170 0.9735
-3.4091 5.3402 -2.1060 0.9736
-3.8648 5.0077 -2.1027 0.9737
-4.2888 4.6371 -2.0996 0.9737
-4.6782 4.2311 -2.0967 0.9738
-5.0300 3.7933 -2.0941 0.9738
-5.6112 2.8355 -2.0898 0.9738
-6.0160 1.7930 -2.0867 0.9739
-6.2694 0.1397 -2.0845 0.9739
-6.0861 -1.5222 -2.0854 0.9739
-5.7261 -2.5801 -2.0877 0.9739
-5.4780 -3.0819 -2.0893 0.9739
-5.1868 -3.5606 -2.0913 0.9738
-4.8545 -4.0124 -2.0935 0.9738
-3.6365 -5.1729 -2.1019 0.9737
-2.1474 -5.9687 -2.1085 0.9736
-1.6083 -6.1387 -2.1094 0.9736
-1.0464 -6.2032 -2.0911 0.9738
0.0692 -6.2088 -2.0640 0.9742
1.1859 -6.1868 -2.0940 0.9738
2.3120 -6.0031 -2.1384 0.9732
3.3601 -5.5314 -2.1513 0.9731
3.8453 -5.2190 -2.1548 0.9730
4.7237 -4.4677 -2.1612 0.9730
5.4546 -3.5683 -2.1666 0.9729
6.0125 -2.5495 -2.1708 0.9728
6.2201 -2.0057 -2.1724 0.9728
6.3776 -1.4450 -2.1737 0.9728
6.5374 0.2915 -2.1752 0.9728
6.4848 0.8721 -2.1750 0.9728
6.2229 2.0066 -2.1734 0.9728
5.1140 4.0384 -2.1660 0.9729
4.3059 4.8687 -2.1605 0.9730
3.8498 5.2251 -2.1574 0.9730
2.3211 6.0267 -2.1467 0.9731
1.7723 6.1982 -2.1429 0.9732
0.6429 6.3904 -2.1349 0.9733
-0.4985 6.3789 -2.1269 0.9734
-1.6155 6.1663 -2.1189 0.9735
-2.1540 5.9871 -2.1150 0.9735
-2.6736 5.7615 -2.1113 0.9736
-3.1704 5.4913 -2.1077 0.9736
-4.0810 4.8270 -2.1011 0.9737
-4.4880 4.4383 -2.0981 0.9737
-5.4818 3.0840 -2.0908 0.9738
-5.7294 2.5816 -2.0889 0.9739
-5.9320 2.0598 -2.0873 0.9739
-6.2692 -0.1397 -2.0844 0.9739
-6.2322 -0.6972 -2.0846 0.9739
-5.6076 -2.8336 -2.0885 0.9739
-4.2844 -4.6322 -2.0974 0.9738
-3.8604 -5.0021 -2.1003 0.9737
-2.9214 -5.6247 -2.1068 0.9736
-2.4110 -5.8668 -2.1084 0.9736
-1.8796 -6.0594 -2.1088 0.9736
-1.3323 -6.1998 -2.1079 0.9736
-0.7643 -6.2060 -2.0785 0.9740
-0.2076 -6.2092 -2.0651 0.9742
0.9037 -6.1962 -2.0815 0.9740
2.0393 -6.0911 -2.1352 0.9733
3.1067 -5.6691 -2.1488 0.9731
3.6061 -5.3807 -2.1531 0.9731
6.1224 -2.2800 -2.1717 0.9728
6.3052 -1.7272 -2.1731 0.9728
6.4371 -1.1597 -2.1742 0.9728
6.0734 0.0000 -2.1719 0.9745
6.0491 0.5405 -2.1718 0.9745
5.9759 1.0766 -2.1714 0.9745
5.6856 2.1173 -2.1696 0.9746
5.2126 3.0875 -2.1665 0.9746
1.9032 5.6844 -2.1437 0.9749
1.3873 5.8214 -2.1401 0.9749
0.3320 5.9544 -2.1326 0.9750
-0.7264 5.8981 -2.1251 0.9751
-2.2473 5.4685 -2.1143 0.9752
-2.7207 5.2383 -2.1108 0.9752
-3.1712 4.9677 -2.1076 0.9753
-3.5955 4.6589 -2.1045 0.9753
-3.9905 4.3144 -2.1016 0.9753
-4.9713 3.0962 -2.0944 0.9754
-5.7235 1.1633 -2.0886 0.9755
-5.8024 0.6491 -2.0879 0.9755
-5.8244 -0.3899 -2.0875 0.9755
-5.7674 -0.9069 -2.0878 0.9755
-5.6654 -1.4170 -2.0884 0.9755
-5.0987 -2.8685 -2.0921 0.9755
-4.8273 -3.3138 -2.0939 0.9754
-4.1721 -4.1259 -2.0983 0.9754
-3.7930 -4.4864 -2.1009 0.9754
-3.3832 -4.8127 -2.1037 0.9753
-2.9457 -5.1020 -2.1068 0.9753
-2.4836 -5.3521 -2.1100 0.9752
-2.0006 -5.5608 -2.1134 0.9752
-0.9855 -5.8427 -2.1189 0.9751
-0.4621 -5.9141 -2.1214 0.9751
0.0662 -5.9409 -2.1247 0.9751
0.5958 -5.9225 -2.1286 0.9750
1.1230 -5.8588 -2.1333 0.9750
1.6441 -5.7496 -2.1385 0.9749
3.9942 -4.5163 -2.1561 0.9747
5.5810 -2.3666 -2.1678 0.9746
5.7734 -1.8617 -2.1693 0.9746
6.0674 0.2705 -2.1719 0.9745
5.9212 1.3416 -2.1711 0.9745
5.5840 2.3678 -2.1690 0.9746
5.3472 2.8534 -2.1674 0.9746
4.7477 3.7492 -2.1634 0.9746
4.3902 4.1522 -2.1609 0.9747
3.9983 4.5209 -2.1583 0.9747
2.1563 5.5986 -2.1455 0.9748
1.1256 5.8724 -2.1382 0.9749
0.5975 5.9389 -2.1345 0.9750
-1.5021 5.7336 -2.1196 0.9751
-2.0031 5.5678 -2.1160 0.9752
-2.4866 5.3586 -2.1125 0.9752
-2.9490 5.1079 -2.1092 0.9753
-3.7969 4.4909 -2.1030 0.9753
-4.1760 4.1297 -2.1003 0.9754
-4.8309 3.3162 -2.0954 0.9754
-5.1019 2.8703 -2.0934 0.9754
-5.3327 2.4028 -2.0917 0.9755
-5.5216 1.9173 -2.0902 0.9755
-5.6672 1.4175 -2.0891 0.9755
-5.8360 -0.1301 -2.0875 0.9755
-5.8015 -0.6490 -2.0876 0.9755
-5.7220 -1.1630 -2.0881 0.9755
-4.6772 -3.5272 -2.0949 0.9754
-3.9866 -4.3103 -2.0996 0.9754
-3.5918 -4.6540 -2.1023 0.9753
-3.1677 -4.9621 -2.1052 0.9753
-2.2445 -5.4618 -2.1117 0.9752
-1.7524 -5.6490 -2.1151 0.9752
-1.2443 -5.7905 -2.1180 0.9752
-0.7247 -5.8840 -2.1200 0.9751
-0.1984 -5.9332 -2.1229 0.9751
0.3311 -5.9373 -2.1265 0.9751
0.8600 -5.8963 -2.1309 0.9750
4.5694 -3.9513 -2.1603 0.9747
5.2090 -3.0853 -2.1650 0.9746
5.9745 -1.0764 -2.1709 0.9745
5.6598 0.0000 -2.1689 0.9760
5.5691 1.0033 -2.1685 0.9761
4.8585 2.8777 -2.1640 0.9761
4.5791 3.2958 -2.1621 0.9761
4.2634 3.6867 -2.1599 0.9761
3.5340 4.3740 -2.1549 0.9762
0.3098 5.5558 -2.1324 0.9764
-0.6779 5.5045 -2.1254 0.9765
-1.6379 5.2800 -2.1185 0.9766
-3.3578 4.3508 -2.1061 0.9767
-3.7270 4.0296 -2.1034 0.9768
-4.8790 2.4655 -2.0949 0.9769
-5.0755 2.0200 -2.0934 0.9769
-5.2321 1.5593 -2.0922 0.9769
-5.3477 1.0870 -2.0912 0.9769
-5.4216 0.6065 -2.0906 0.9769
-5.4422 -0.3643 -2.0902 0.9769
-5.3889 -0.8474 -2.0905 0.9769
-5.2935 -1.3240 -2.0911 0.9769
-5.1568 -1.7906 -2.0919 0.9769
-4.7634 -2.6799 -2.0945 0.9769
-4.5096 -3.0957 -2.0962 0.9768
-4.2202 -3.4880 -2.0981 0.9768
-3.8970 -3.8539 -2.1003 0.9768
-3.5426 -4.1903 -2.1028 0.9768
-1.4005 -5.3456 -2.1177 0.9766
1.0488 -5.4716 -2.1350 0.9764
2.4688 -5.0239 -2.1451 0.9763
2.9105 -4.7913 -2.1483 0.9763
3.3301 -4.5196 -2.1514 0.9762
4.7202 -3.0878 -2.1616 0.9761
4.9808 -2.6579 -2.1635 0.9761
5.3807 -1.7351 -2.1666 0.9761
5.5166 -1.2499 -2.1676 0.9761
5.6079 -0.7542 -2.1684 0.9761
5.6539 -0.2521 -2.1688 0.9760
5.5181 1.2502 -2.1682 0.9761
5.2042 2.2068 -2.1662 0.9761
4.4256 3.4949 -2.1610 0.9761
3.3335 4.5242 -2.1536 0.9762
1.0501 5.4783 -2.1376 0.9764
0.5574 5.5410 -2.1341 0.9764
0.0619 5.5595 -2.1306 0.9765
-0.4324 5.5338 -2.1271 0.9765
-1.4022 5.3520 -2.1202 0.9766
-2.3216 5.0030 -2.1136 0.9767
-2.7537 4.7695 -2.1105 0.9767
-3.1628 4.4991 -2.1075 0.9767
-4.2235 3.4908 -2.0998 0.9768
-4.5128 3.0979 -2.0976 0.9768
-4.7663 2.6815 -2.0957 0.9768
-5.1588 1.7913 -2.0928 0.9769
-5.2951 1.3244 -2.0917 0.9769
-5.4208 -0.6064 -2.0903 0.9769
-5.3464 -1.0867 -2.0907 0.9769
-5.2302 -1.5588 -2.0914 0.9769
-4.8763 -2.4641 -2.0937 0.9769
-4.6411 -2.8905 -2.0953 0.9769
-4.3692 -3.2950 -2.0971 0.9768
-3.7236 -4.0259 -2.1015 0.9768
-3.3545 -4.3466 -2.1041 0.9768
-2.5375 -4.8856 -2.1097 0.9767
-2.0957 -5.0995 -2.1128 0.9767
-1.6359 -5.2738 -2.1160 0.9766
0.8034 -5.5083 -2.1332 0.9764
2.2408 -5.1250 -2.1435 0.9763
2.6922 -4.9126 -2.1468 0.9763
3.1233 -4.6602 -2.1499 0.9763
4.2598 -3.6836 -2.1581 0.9762
4.5757 -3.2934 -2.1605 0.9761
5.2965 -1.9724 -2.1659 0.9761
5.4542 -1.4940 -2.1671 0.9761
5.6366 -0.5037 -2.1687 0.9760
5.2084 0.9383 -2.1660 0.9774
5.1027 1.3978 -2.1653 0.9774
4.5444 2.6917 -2.1617 0.9774
4.2833 3.0830 -2.1599 0.9774
3.9882 3.4488 -2.1579 0.9775
3.6617 3.7861 -2.1557 0.9775
2.5220 4.6021 -2.1478 0.9776
2.0995 4.8017 -2.1449 0.9776
1.6614 4.9624 -2.1418 0.9776
1.2114 5.0831 -2.1387 0.9777
0.7530 5.1630 -2.1354 0.9777
0.2900 5.2015 -2.1322 0.9777
-0.6349 5.1546 -2.1256 0.9778
-1.5341 4.9454 -2.1192 0.9779
-2.3798 4.5819 -2.1131 0.9779
-2.7744 4.3460 -2.1102 0.9780
-3.4923 3.7759 -2.1050 0.9780
-3.8103 3.4462 -2.1027 0.9780
-4.3527 2.7109 -2.0987 0.9781
-2.1365 0.4343 -0.8923 0.9906
-2.1302 -0.1426 -0.8738 0.9908
-2.1345 -0.3356 -0.8843 0.9907
-4.8338 -1.6785 -2.0942 0.9781
-4.6676 -2.1031 -2.0953 0.9781
-4.4647 -2.5118 -2.0966 0.9781
-3.3197 -3.9265 -2.1044 0.9780
-2.9605 -4.2114 -2.1069 0.9780
-2.5772 -4.4638 -2.1095 0.9780
-1.7497 -4.8632 -2.1153 0.9779
-0.8622 -5.1114 -2.1215 0.9778
0.0579 -5.1992 -2.1280 0.9778
0.5212 -5.1814 -2.1313 0.9777
1.8801 -4.8817 -2.1410 0.9776
3.1160 -4.2290 -2.1499 0.9776
3.8256 -3.6182 -2.1551 0.9775
4.8652 -2.0630 -2.1628 0.9774
5.0325 -1.6228 -2.1641 0.9774
5.2879 0.2358 -2.1664 0.9774
5.2455 0.7055 -2.1662 0.9774
5.0343 1.6234 -2.1649 0.9774
4.8675 2.0640 -2.1638 0.9774
4.6615 2.4875 -2.1625 0.9774
4.1399 3.2692 -2.1590 0.9775
3.1189 4.2330 -2.1520 0.9775
2.3129 4.7067 -2.1464 0.9776
0.0580 5.2053 -2.1305 0.9778
-0.8632 5.1173 -2.1240 0.9778
-1.3132 5.0126 -2.1208 0.9779
-1.7516 4.8686 -2.1176 0.9779
-2.9633 4.2154 -2.1089 0.9780
-3.6550 3.6145 -2.1038 0.9780
-3.9580 3.2714 -2.1016 0.9781
-4.2294 2.9033 -2.0996 0.9781
-4.6698 2.1041 -2.0963 0.9781
-4.8356 1.6791 -2.0950 0.9781
-2.1308 0.5329 -0.8989 0.9906
-2.1302 0.1426 -0.8738 0.9908
-2.1261 -0.2378 -0.8756 0.9908
-2.1365 -0.4343 -0.8923 0.9906
-4.9027 -1.4612 -2.0938 0.9781
-4.3500 -2.7092 -2.0974 0.9781
-4.0950 -3.0882 -2.0991 0.9781
-3.4894 -3.7727 -2.1032 0.9780
-1.9632 -4.7771 -2.1138 0.9779
-1.0882 -5.0642 -2.1199 0.9779
-0.6341 -5.1487 -2.1231 0.9778
-0.1736 -5.1926 -2.1264 0.9778
0.2897 -5.1955 -2.1297 0.9778
3.3033 -4.0886 -2.1513 0.9775
4.2804 -3.0808 -2.1584 0.9775
4.5417 -2.6900 -2.1604 0.9774
4.7668 -2.2769 -2.1621 0.9774
4.9538 -1.8448 -2.1635 0.9774
5.2715 -0.4711 -2.1661 0.9774
4.9457 0.4419 -2.1640 0.9786
4.4744 2.1372 -2.1611 0.9786
4.2637 2.5254 -2.1597 0.9786
3.4360 3.5528 -2.1540 0.9787
2.7456 4.0967 -2.1493 0.9787
1.5597 4.6585 -2.1410 0.9788
1.1373 4.7722 -2.1381 0.9788
0.2723 4.8843 -2.1320 0.9789
-0.1632 4.8821 -2.1289 0.9789
-0.5962 4.8411 -2.1258 0.9789
-1.8463 4.4927 -2.1169 0.9790
-2.2358 4.3048 -2.1141 0.9791
-2.9564 3.8307 -2.1088 0.9791
-3.2819 3.5483 -2.1065 0.9791
-3.5809 3.2388 -2.1043 0.9792
-4.0911 2.5480 -2.1005 0.9792
-4.2985 2.1721 -2.0989 0.9792
-4.4719 1.7798 -2.0976 0.9792
-1.8741 0.5585 -0.8523 0.9915
-1.9433 0.2174 -0.8522 0.9915
-1.9470 0.0434 -0.8487 0.9915
-1.8290 -0.6351 -0.8438 0.9916
-4.1967 -2.3610 -2.0986 0.9792
-3.7173 -3.0724 -2.1018 0.9792
-2.4216 -4.1943 -2.1107 0.9791
-1.6437 -4.5688 -2.1161 0.9790
-1.2322 -4.7034 -2.1190 0.9790
-0.3799 -4.8611 -2.1250 0.9789
0.9219 -4.8095 -2.1342 0.9789
1.7650 -4.5828 -2.1403 0.9788
2.1688 -4.4135 -2.1432 0.9788
2.5564 -4.2084 -2.1460 0.9787
2.9244 -3.9691 -2.1486 0.9787
3.8817 -3.0654 -2.1556 0.9786
4.7213 -1.5224 -2.1619 0.9786
4.9201 -0.6617 -2.1635 0.9786
4.9603 -0.2212 -2.1639 0.9786
4.3734 2.3337 -2.1604 0.9786
4.1454 2.7118 -2.1589 0.9786
3.5927 3.3979 -2.1551 0.9787
3.2726 3.7004 -2.1529 0.9787
2.5588 4.2124 -2.1480 0.9787
2.1710 4.4179 -2.1453 0.9788
1.7668 4.5875 -2.1425 0.9788
1.3497 4.7201 -2.1395 0.9788
0.4900 4.8708 -2.1335 0.9789
-1.2335 4.7084 -2.1212 0.9790
-2.4238 4.1982 -2.1127 0.9791
-3.1223 3.6931 -2.1076 0.9791
-3.4349 3.3968 -2.1053 0.9791
-3.9752 2.7288 -2.1014 0.9792
-1.8290 0.6351 -0.8438 0.9916
-1.9080 0.4772 -0.8571 0.9915
-1.9397 0.3050 -0.8557 0.9915
-1.9470 -0.0434 -0.8487 0.9915
-1.9433 -0.2174 -0.8522 0.9915
-1.9300 -0.3923 -0.8583 0.9914
-1.8741 -0.5585 -0.8523 0.9915
-4.2964 -2.1710 -2.0979 0.9792
-3.8488 -2.9026 -2.1009 0.9792
-2.9538 -3.8274 -2.1070 0.9791
-2.6044 -4.0798 -2.1094 0.9791
-2.2337 -4.3006 -2.1120 0.9791
-1.8444 -4.4881 -2.1147 0.9791
-1.4396 -4.6407 -2.1176 0.9790
-1.0222 -4.7569 -2.1205 0.9790
-0.5956 -4.8359 -2.1235 0.9790
-0.1631 -4.8767 -2.1265 0.9789
0.7062 -4.8423 -2.1327 0.9789
1.1361 -4.7671 -2.1358 0.9788
1.9688 -4.5027 -2.1417 0.9788
2.3649 -4.3153 -2.1446 0.9788
3.1002 -3.8371 -2.1499 0.9787
3.4333 -3.5500 -2.1523 0.9787
4.8850 -0.8801 -2.1632 0.9786
4.6706 0.0000 -2.1619 0.9796
4.3734 1.6287 -2.1602 0.9796
4.2090 2.0105 -2.1592 0.9796
4.0109 2.3757 -2.1578 0.9797
3.7809 2.7213 -2.1563 0.9797
3.5208 3.0445 -2.1545 0.9797
2.9196 3.6136 -2.1504 0.9797
2.5836 3.8550 -2.1481 0.9798
1.8547 4.2419 -2.1430 0.9798
0.2564 4.5983 -2.1318 0.9799
-0.1537 4.5966 -2.1289 0.9799
-0.5614 4.5584 -2.1260 0.9800
-1.3571 4.3749 -2.1203 0.9800
-2.4556 3.8466 -2.1124 0.9801
-3.3738 3.0514 -2.1057 0.9801
-3.8549 2.4008 -2.1021 0.9802
-1.5257 0.6072 -0.7601 0.9928
-1.6373 0.3328 -0.7734 0.9927
-1.6675 0.1865 -0.7767 0.9926
-1.6738 -0.1120 -0.7765 0.9926
-1.6165 -0.4043 -0.7713 0.9927
-1.5621 -0.5424 -0.7654 0.9927
-4.1346 -1.8629 -2.0991 0.9802
-3.9546 -2.2248 -2.1003 0.9802
-3.7434 -2.5697 -2.1017 0.9802
-3.5025 -2.8949 -2.1034 0.9802
-3.2338 -3.1979 -2.1052 0.9802
-2.9391 -3.4764 -2.1072 0.9801
-2.2811 -3.9510 -2.1118 0.9801
-1.9226 -4.1432 -2.1143 0.9801
-1.5482 -4.3032 -2.1169 0.9800
-1.1605 -4.4296 -2.1196 0.9800
-0.7626 -4.5212 -2.1224 0.9800
-0.3577 -4.5773 -2.1252 0.9800
0.0512 -4.5972 -2.1281 0.9799
0.4608 -4.5807 -2.1310 0.9799
1.6613 -4.3134 -2.1396 0.9798
2.4058 -3.9604 -2.1450 0.9798
3.0768 -3.4790 -2.1498 0.9797
3.3777 -3.1946 -2.1520 0.9797
3.6521 -2.8840 -2.1540 0.9797
3.8975 -2.5497 -2.1559 0.9797
4.1121 -2.1943 -2.1575 0.9797
4.2938 -1.8207 -2.1588 0.9797
4.5528 -1.0315 -2.1609 0.9796
4.6279 -0.6224 -2.1615 0.9796
4.6658 -0.2081 -2.1619 0.9796
4.2955 1.8215 -2.1597 0.9796
4.1141 2.1954 -2.1585 0.9797
3.8998 2.5511 -2.1571 0.9797
3.6544 2.8859 -2.1554 0.9797
3.0792 3.4817 -2.1515 0.9797
2.7542 3.7381 -2.1493 0.9797
1.6629 4.3176 -2.1417 0.9798
0.8688 4.5322 -2.1361 0.9799
0.4613 4.5854 -2.1332 0.9799
-0.7634 4.5258 -2.1245 0.9800
-1.1617 4.4340 -2.1217 0.9800
-1.5497 4.3073 -2.1189 0.9800
-1.9244 4.1470 -2.1162 0.9801
-2.9414 3.4791 -2.1089 0.9801
-3.2361 3.2003 -2.1067 0.9801
-3.5048 2.8968 -2.1047 0.9802
-3.7455 2.5712 -2.1029 0.9802
-3.9566 2.2259 -2.1014 0.9802
-4.1363 1.8637 -2.1000 0.9802
-1.5621 0.5424 -0.7654 0.9927
-1.6165 0.4043 -0.7713 0.9927
-1.6521 0.2598 -0.7741 0.9927
-1.6738 0.1120 -0.7765 0.9926
-1.5258 -0.6072 -0.7601 0.9928
-3.8528 -2.3995 -2.1010 0.9802
-3.6266 -2.7349 -2.1025 0.9802
-3.3715 -3.0494 -2.1043 0.9802
-3.0896 -3.3404 -2.1062 0.9801
-2.4534 -3.8432 -2.1106 0.9801
0.6649 -4.5587 -2.1325 0.9799
1.0694 -4.4875 -2.1354 0.9799
1.4665 -4.3803 -2.1382 0.9798
1.8530 -4.2379 -2.1410 0.9798
2.2256 -4.0612 -2.1437 0.9798
2.5813 -3.8516 -2.1462 0.9798
2.9172 -3.6107 -2.1487 0.9797
4.5015 -1.2331 -2.1604 0.9796
4.6515 -0.4157 -2.1617 0.9796
4.4036 0.0000 -2.1600 0.9806
4.3860 0.3919 -2.1600 0.9806
4.3332 0.7807 -2.1597 0.9806
3.9687 1.8957 -2.1574 0.9806
3.7820 2.2401 -2.1562 0.9806
3.5652 2.5661 -2.1547 0.9806
2.1012 3.8342 -2.1447 0.9807
1.3848 4.1363 -2.1397 0.9808
0.6280 4.3056 -2.1343 0.9808
0.2419 4.3388 -2.1316 0.9808
-0.1450 4.3376 -2.1289 0.9808
-0.9095 4.2323 -2.1234 0.9809
-1.2809 4.1294 -2.1208 0.9809
-1.9880 3.8277 -2.1157 0.9810
-2.3182 3.6314 -2.1133 0.9810
-1.3200 0.3934 -0.6756 0.9939
-1.3419 0.1501 -0.6624 0.9940
-1.3536 0.0302 -0.6641 0.9940
-1.3513 -0.0905 -0.6643 0.9940
-1.3257 -0.2085 -0.6583 0.9940
-1.2865 -0.5797 -0.6922 0.9937
-3.5350 -2.4266 -2.1032 0.9811
-3.3074 -2.7337 -2.1048 0.9811
-3.0535 -3.0196 -2.1065 0.9810
-1.8150 -3.9112 -2.1151 0.9810
-1.4614 -4.0620 -2.1175 0.9810
-0.7198 -4.2672 -2.1227 0.9809
0.4348 -4.3223 -2.1309 0.9808
1.5672 -4.0692 -2.1390 0.9808
1.9255 -3.9183 -2.1416 0.9807
2.2692 -3.7357 -2.1440 0.9807
2.5956 -3.5228 -2.1464 0.9807
2.9018 -3.2812 -2.1486 0.9807
3.1854 -3.0128 -2.1507 0.9807
3.4440 -2.7197 -2.1526 0.9806
3.6753 -2.4043 -2.1543 0.9806
4.0486 -1.7168 -2.1571 0.9806
4.1875 -1.3503 -2.1582 0.9806
4.2927 -0.9726 -2.1590 0.9806
4.3990 -0.1962 -2.1600 0.9806
4.0502 1.7174 -2.1580 0.9806
3.8792 2.0700 -2.1568 0.9806
3.6773 2.4056 -2.1555 0.9806
3.4461 2.7214 -2.1539 0.9806
3.1876 3.0148 -2.1522 0.9806
2.5977 3.5256 -2.1481 0.9807
2.2712 3.7388 -2.1458 0.9807
1.9272 3.9218 -2.1434 0.9807
1.5687 4.0730 -2.1409 0.9807
1.1985 4.1913 -2.1384 0.9808
0.8197 4.2760 -2.1357 0.9808
-0.3379 4.3240 -2.1275 0.9809
-0.7205 4.2713 -2.1248 0.9809
-1.0964 4.1849 -2.1221 0.9809
-2.1553 3.7332 -2.1145 0.9810
-2.4763 3.5226 -2.1122 0.9810
-2.7772 3.2848 -2.1100 0.9810
-3.0555 3.0217 -2.1079 0.9810
-3.3094 2.7353 -2.1061 0.9811
-3.5369 2.4280 -2.1044 0.9811
-3.7363 2.1020 -2.1029 0.9811
-1.3149 0.3289 -0.6649 0.9940
-1.3257 0.2084 -0.6583 0.9940
-1.3513 0.0905 -0.6643 0.9940
-1.3047 -0.2652 -0.6531 0.9941
-1.3059 -0.5198 -0.6895 0.9938
-2.9172 -3.1541 -2.1074 0.9810
-2.6274 -3.4044 -2.1094 0.9810
-0.1449 -4.3334 -2.1268 0.9809
1.0090 -4.2339 -2.1350 0.9808
1.3836 -4.1325 -2.1377 0.9808
1.7480 -3.9978 -2.1403 0.9807
2.4348 -3.6329 -2.1452 0.9807
3.3180 -2.8692 -2.1517 0.9806
3.5632 -2.5646 -2.1535 0.9806
4.2443 -1.1627 -2.1586 0.9806
4.3856 -0.3919 -2.1598 0.9806
4.1604 0.0000 -2.1583 0.9814
4.1438 0.3703 -2.1583 0.9814
4.0111 1.0988 -2.1575 0.9814
3.8961 1.4509 -2.1568 0.9814
3.5736 2.1166 -2.1547 0.9815
3.1374 2.7130 -2.1517 0.9815
2.8811 2.9790 -2.1500 0.9815
2.6022 3.2208 -2.1481 0.9815
2.3030 3.4363 -2.1460 0.9815
1.9859 3.6239 -2.1438 0.9816
1.3091 3.9100 -2.1391 0.9816
0.5937 4.0705 -2.1340 0.9816
0.2287 4.1022 -2.1315 0.9817
-0.1371 4.1013 -2.1289 0.9817
-1.2114 3.9053 -2.1212 0.9817
-1.5524 3.7776 -2.1188 0.9818
-3.0139 2.7259 -2.1082 0.9819
-3.2419 2.4449 -2.1065 0.9819
-3.4442 2.1451 -2.1050 0.9819
-1.0665 0.5390 -0.6199 0.9946
-1.1070 0.4406 -0.6181 0.9946
-1.1785 0.0263 -0.6115 0.9947
-1.1517 -0.1811 -0.6048 0.9948
-1.1275 -0.2820 -0.6029 0.9948
-1.1198 -0.3889 -0.6150 0.9947
-3.3447 -2.2960 -2.1046 0.9819
-3.1292 -2.5863 -2.1061 0.9819
-2.8888 -2.8568 -2.1077 0.9819
-2.6253 -3.1053 -2.1095 0.9818
-1.7168 -3.6995 -2.1158 0.9818
-1.3822 -3.8419 -2.1182 0.9818
-1.0360 -3.9542 -2.1206 0.9817
-0.6807 -4.0354 -2.1231 0.9817
0.7742 -4.0388 -2.1334 0.9816
1.8200 -3.7037 -2.1409 0.9816
2.1448 -3.5309 -2.1432 0.9816
2.4531 -3.3294 -2.1454 0.9815
3.2544 -2.5700 -2.1513 0.9815
3.6637 -1.9550 -2.1543 0.9815
3.8254 -1.6221 -2.1556 0.9815
4.1225 -0.5544 -2.1579 0.9814
4.1561 -0.1853 -2.1583 0.9814
4.1230 0.5545 -2.1582 0.9814
4.0566 0.9191 -2.1578 0.9814
3.8268 1.6227 -2.1564 0.9814
3.6653 1.9559 -2.1553 0.9815
3.4746 2.2730 -2.1540 0.9815
3.0122 2.8489 -2.1509 0.9815
2.1465 3.5337 -2.1449 0.9815
1.8216 3.7068 -2.1426 0.9816
1.4828 3.8500 -2.1403 0.9816
1.1329 3.9621 -2.1378 0.9816
-0.6813 4.0391 -2.1250 0.9817
-1.7182 3.7026 -2.1176 0.9818
-2.6272 3.1074 -2.1110 0.9818
-3.1310 2.5878 -2.1073 0.9819
-3.3464 2.2972 -2.1057 0.9819
-1.1198 0.3888 -0.6150 0.9947
-1.1649 -0.1303 -0.6081 0.9947
-1.1333 -0.2303 -0.5999 0.9948
-3.0120 -2.7242 -2.1069 0.9819
-2.7598 -2.9839 -2.1086 0.9819
-2.4855 -3.2206 -2.1105 0.9818
-2.1911 -3.4323 -2.1125 0.9818
-0.1370 -4.0975 -2.1269 0.9817
0.2285 -4.0985 -2.1295 0.9817
0.5931 -4.0668 -2.1321 0.9817
1.3079 -3.9065 -2.1372 0.9816
1.6523 -3.7790 -2.1397 0.9816
1.9843 -3.6210 -2.1420 0.9816
2.3012 -3.4336 -2.1443 0.9815
2.8792 -2.9770 -2.1485 0.9815
3.3670 -2.4234 -2.1521 0.9815
4.0932 -0.7374 -2.1577 0.9814
4.1435 -0.3703 -2.1581 0.9814
2.0356 0.1819 -1.1193 0.9907
2.0036 0.3610 -1.1150 0.9908
2.0004 0.5480 -1.1360 0.9906
1.9715 0.7342 -1.1522 0.9905
3.1890 2.2953 -2.1520 0.9822
1.5659 3.5813 -2.1408 0.9823
1.2396 3.7025 -2.1385 0.9824
0.9042 3.7940 -2.1362 0.9824
0.2166 3.8854 -2.1313 0.9824
-0.1299 3.8847 -2.1289 0.9824
-1.1477 3.6997 -2.1216 0.9825
-1.7816 3.4303 -2.1171 0.9825
-2.0778 3.2548 -2.1149 0.9825
-2.6171 2.8296 -2.1110 0.9826
-3.0724 2.3170 -2.1077 0.9826
-0.9364 0.4732 -0.5746 0.9952
-0.9825 0.2928 -0.5615 0.9953
-1.0000 0.2032 -0.5589 0.9954
-1.0415 0.0232 -0.5706 0.9953
-0.9847 -0.2463 -0.5559 0.9954
-0.9472 -0.4268 -0.5690 0.9953
-0.9240 -0.5198 -0.5806 0.9952
-3.1699 -2.1760 -2.1059 0.9826
-2.9656 -2.4512 -2.1073 0.9826
-2.7377 -2.7074 -2.1088 0.9826
-2.4879 -2.9427 -2.1105 0.9826
-1.6266 -3.5053 -2.1165 0.9825
-1.3096 -3.6400 -2.1187 0.9825
-0.9814 -3.7461 -2.1210 0.9825
1.0720 -3.7489 -2.1356 0.9824
1.7234 -3.5071 -2.1402 0.9823
2.0308 -3.3432 -2.1424 0.9823
2.3226 -3.1523 -2.1446 0.9823
3.0809 -2.4329 -2.1501 0.9823
3.2875 -2.1506 -2.1516 0.9822
3.4681 -1.8506 -2.1530 0.9822
1.9407 -0.8229 -1.1546 0.9904
1.9895 -0.6415 -1.1449 0.9905
2.0041 -0.4541 -1.1255 0.9907
2.0226 -0.2720 -1.1178 0.9907
2.0434 0.0911 -1.1203 0.9907
2.0226 0.2720 -1.1178 0.9907
2.0042 0.4541 -1.1255 0.9907
1.9895 0.6415 -1.1449 0.9905
3.0825 2.4343 -2.1513 0.9822
2.5981 2.9377 -2.1480 0.9823
2.0324 3.3457 -2.1441 0.9823
1.7248 3.5098 -2.1419 0.9823
0.7338 3.8284 -2.1350 0.9824
0.0433 3.8889 -2.1301 0.9824
-0.3026 3.8729 -2.1276 0.9824
-0.6454 3.8262 -2.1252 0.9825
-1.9317 3.3458 -2.1160 0.9825
-2.2196 3.1575 -2.1139 0.9826
-2.4895 2.9446 -2.1119 0.9826
-2.9672 2.4525 -2.1084 0.9826
-3.1715 2.1771 -2.1069 0.9826
-0.9472 0.4268 -0.5690 0.9953
-0.9756 0.3387 -0.5656 0.9953
-0.9847 0.2463 -0.5559 0.9954
-1.0376 0.0695 -0.5696 0.9953
-1.0000 -0.2033 -0.5589 0.9954
-2.8545 -2.5817 -2.1080 0.9826
-2.6154 -2.8278 -2.1097 0.9826
-2.3553 -3.0519 -2.1114 0.9826
-1.1467 -3.6967 -2.1199 0.9825
-0.4742 -3.8500 -2.1246 0.9825
0.2165 -3.8820 -2.1295 0.9824
1.5646 -3.5784 -2.1391 0.9823
1.8789 -3.4286 -2.1413 0.9823
2.1788 -3.2510 -2.1435 0.9823
2.4619 -3.0471 -2.1456 0.9823
2.7258 -2.8184 -2.1475 0.9823
3.5480 -1.6948 -2.1536 0.9822
1.9715 -0.7342 -1.1522 0.9905
2.0004 -0.5480 -1.1360 0.9906
1.8754 0.0000 -1.0828 0.9914
1.8426 0.3320 -1.0810 0.9914
1.8267 0.5004 -1.0935 0.9913
1.7869 0.6655 -1.1009 0.9912
1.7194 0.8213 -1.1001 0.9912
2.8160 2.4351 -2.1494 0.9830
2.3361 2.8914 -2.1461 0.9830
2.0677 3.0852 -2.1442 0.9830
0.8576 3.5985 -2.1358 0.9831
0.5333 3.6567 -2.1335 0.9831
-0.1232 3.6853 -2.1289 0.9831
-0.7730 3.5972 -2.1242 0.9831
-1.3956 3.3960 -2.1198 0.9832
-1.6906 3.2550 -2.1177 0.9832
-1.9717 3.0887 -2.1156 0.9832
-2.2368 2.8983 -2.1137 0.9832
-2.9161 2.1992 -2.1087 0.9833
-0.8491 0.5288 -0.5776 0.9954
-0.8760 0.4426 -0.5667 0.9955
-0.9012 0.2686 -0.5429 0.9957
-0.9120 0.1854 -0.5373 0.9957
-0.9274 -0.0621 -0.5366 0.9957
-0.9189 -0.1445 -0.5370 0.9957
-0.9030 -0.2258 -0.5374 0.9957
-0.8858 -0.3991 -0.5609 0.9955
-3.0088 -2.0654 -2.1071 0.9833
-2.8148 -2.3265 -2.1084 0.9833
-2.3612 -2.7928 -2.1115 0.9833
-2.1050 -2.9944 -2.1132 0.9832
-0.9312 -3.5544 -2.1214 0.9832
-0.6118 -3.6271 -2.1237 0.9832
0.0411 -3.6861 -2.1283 0.9831
0.3694 -3.6718 -2.1306 0.9831
1.3306 -3.4548 -2.1375 0.9830
1.6345 -3.3261 -2.1396 0.9830
1.9259 -3.1705 -2.1417 0.9830
2.4620 -2.7838 -2.1456 0.9830
2.7022 -2.5558 -2.1474 0.9830
3.1170 -2.0390 -2.1504 0.9829
1.6861 -0.8997 -1.1034 0.9912
1.7564 -0.7448 -1.1014 0.9912
1.8316 -0.4150 -1.0843 0.9914
1.8592 -0.2500 -1.0831 0.9914
1.8316 0.4150 -1.0843 0.9914
1.7564 0.7448 -1.1014 0.9912
3.1184 2.0400 -2.1514 0.9829
2.7038 2.5572 -2.1486 0.9830
2.4635 2.7856 -2.1470 0.9830
2.2040 2.9913 -2.1452 0.9830
1.0176 3.5586 -2.1369 0.9830
0.3697 3.6748 -2.1324 0.9831
-0.2871 3.6741 -2.1277 0.9831
-0.6123 3.6300 -2.1254 0.9831
-1.8331 3.1750 -2.1166 0.9832
-2.3627 2.7946 -2.1128 0.9832
-2.8163 2.3277 -2.1095 0.9833
-0.8858 0.3991 -0.5609 0.9955
-0.8984 0.3119 -0.5490 0.9956
-0.9189 0.1445 -0.5370 0.9957
-0.9274 0.0621 -0.5366 0.9957
-0.9306 -0.0207 -0.5374 0.9957
-0.9012 -0.2686 -0.5429 0.9957
-0.8932 -0.3555 -0.5550 0.9956
-0.8760 -0.4427 -0.5667 0.9955
-2.7093 -2.4504 -2.1091 0.9833
-2.2353 -2.8964 -2.1123 0.9832
-1.3945 -3.3934 -2.1182 0.9832
-1.0881 -3.5076 -2.1203 0.9832
-0.7724 -3.5943 -2.1225 0.9832
-0.1231 -3.6822 -2.1271 0.9831
0.2053 -3.6826 -2.1294 0.9831
0.5329 -3.6537 -2.1318 0.9831
0.8569 -3.5956 -2.1341 0.9831
1.1748 -3.5088 -2.1363 0.9831
1.7819 -3.2516 -2.1407 0.9830
2.0662 -3.0830 -2.1428 0.9830
2.5846 -2.6725 -2.1465 0.9830
2.8145 -2.4338 -2.1482 0.9830
3.0221 -2.1751 -2.1497 0.9829
1.7194 -0.8213 -1.1001 0.9912
1.7869 -0.6655 -1.1009 0.9912
1.8267 -0.5004 -1.0935 0.9913
