ply
format ascii 1.0
element vertex 1315
property float32 x
property float32 y
property float32 z
property float32 I
end_header
-18.1670 -6.3083 -1.8463 0.9256
-16.0210 10.9978 -1.8656 0.9249
19.0581 0.0000 -2.2638 0.9261
18.3500 5.0266 -2.2600 0.9262
17.8022 6.6296 -2.2565 0.9263
17.1068 8.1712 -2.2520 0.9265
16.2714 9.6375 -2.2464 0.9267
15.3044 11.0155 -2.2399 0.9269
14.2161 12.2932 -2.2325 0.9271
12.7815 13.2160 -2.1839 0.9286
10.8815 13.4682 -2.0567 0.9326
-10.8737 11.7565 -1.9023 0.9375
-11.8329 10.7022 -1.8952 0.9378
-14.4945 9.0272 -2.0284 0.9335
-15.7886 6.2837 -2.0185 0.9338
-16.2557 4.8447 -2.0149 0.9340
-16.8179 1.8814 -2.0102 0.9341
-16.8756 -1.1297 -2.0091 0.9341
-16.7146 -2.6282 -2.0098 0.9341
-16.4280 -4.1089 -2.0115 0.9341
-16.0174 -5.5618 -2.0141 0.9340
17.2212 -3.9018 -2.0975 0.9313
19.0362 -0.8489 -2.2635 0.9261
18.8828 2.5395 -2.2632 0.9261
18.5667 4.2066 -2.2614 0.9262
18.0949 5.8348 -2.2584 0.9263
16.7061 8.9146 -2.2493 0.9266
15.8037 10.3383 -2.2433 0.9268
10.2489 13.9099 -2.0524 0.9328
-11.3650 11.2391 -1.8986 0.9376
-14.8620 8.3612 -2.0256 0.9336
-15.5095 6.9882 -2.0207 0.9338
-16.0375 5.5688 -2.0166 0.9339
-16.7244 2.6298 -2.0110 0.9341
-16.8798 1.1299 -2.0096 0.9341
-16.9087 -0.3768 -2.0090 0.9341
-16.8108 -1.8806 -2.0093 0.9341
-16.2381 -4.8395 -2.0127 0.9340
-14.0879 -7.1189 -1.8750 0.9384
17.0171 -4.6615 -2.0959 0.9314
18.7175 -1.6726 -2.2322 0.9271
15.8154 0.0000 -2.2409 0.9381
15.5567 2.8027 -2.2397 0.9381
15.2321 4.1725 -2.2377 0.9382
14.7813 5.5046 -2.2349 0.9383
14.2088 6.7870 -2.2311 0.9384
12.7233 9.1577 -2.2212 0.9386
11.8251 10.2256 -2.2151 0.9388
7.9997 11.9364 -2.0360 0.9436
6.8792 12.5529 -2.0282 0.9438
-12.2450 7.6262 -2.0440 0.9434
-12.8466 6.4917 -2.0394 0.9435
-14.0407 2.8539 -2.0301 0.9438
-14.2276 1.5916 -2.0285 0.9438
-14.2776 -0.9558 -2.0275 0.9438
-13.8963 -3.4757 -2.0296 0.9438
-13.5463 -4.7038 -2.0318 0.9437
-11.6406 -6.5489 -1.8924 0.9475
13.4526 -5.7044 -2.0704 0.9427
15.8001 0.7045 -2.2409 0.9381
14.5099 6.1527 -2.2331 0.9383
13.8787 7.4059 -2.2289 0.9384
13.1350 8.5925 -2.2239 0.9386
8.5392 11.5895 -2.0397 0.9435
7.4460 12.2578 -2.0321 0.9437
-6.8143 11.8026 -1.9310 0.9464
-7.8085 11.1077 -1.9238 0.9466
-11.9077 8.1742 -2.0465 0.9433
-12.5581 7.0651 -2.0416 0.9435
-13.1101 5.9071 -2.0374 0.9436
-14.2807 0.9560 -2.0279 0.9438
-14.0317 -2.8521 -2.0288 0.9438
-13.3323 -5.3061 -2.0332 0.9437
-11.3489 -7.0682 -1.8944 0.9474
-10.6993 -8.0687 -1.8987 0.9473
13.1715 -6.2915 -2.0682 0.9427
14.1284 -3.8702 -2.0756 0.9425
12.6251 4.7017 -2.2194 0.9468
12.1392 5.7984 -2.2162 0.9469
11.5546 6.8438 -2.2123 0.9470
9.2704 9.5855 -2.1968 0.9474
8.3565 10.3429 -2.1905 0.9475
2.8133 11.8050 -1.9992 0.9520
-2.5015 11.6411 -1.9615 0.9529
-3.5147 11.3302 -1.9543 0.9530
-5.4293 10.4533 -1.9405 0.9534
-6.3172 9.8958 -1.9341 0.9535
-7.4933 9.7094 -2.0205 0.9515
-9.2967 8.4084 -2.0650 0.9505
-9.9836 7.5290 -2.0599 0.9506
-10.5908 6.5960 -2.0554 0.9507
-11.5514 4.5974 -2.0481 0.9508
-11.8990 3.5463 -2.0454 0.9509
-12.1551 2.4706 -2.0434 0.9510
-12.3622 -0.8275 -2.0411 0.9510
-12.2430 -1.9251 -2.0417 0.9510
-11.7258 -4.0716 -2.0448 0.9509
-11.3309 -5.1055 -2.0474 0.9509
-9.5450 -6.5523 -1.9073 0.9541
-8.9430 -7.3916 -1.9113 0.9541
13.3746 -1.7987 -2.2232 0.9468
13.4882 -0.6015 -2.2242 0.9467
13.1591 2.9815 -2.2228 0.9468
12.8296 4.1370 -2.2207 0.9468
12.3948 5.2558 -2.2179 0.9469
11.8589 6.3281 -2.2144 0.9470
11.2270 7.3444 -2.2101 0.9471
10.5056 8.2961 -2.2052 0.9472
6.4167 10.5633 -2.0361 0.9511
3.3426 11.6896 -2.0029 0.9519
-4.9668 10.7032 -1.9438 0.9533
-5.8797 10.1840 -1.9372 0.9534
-8.9247 8.8258 -2.0678 0.9504
-10.2974 7.0688 -2.0576 0.9506
-10.8633 6.1116 -2.0534 0.9507
-12.2483 1.9260 -2.0426 0.9510
-12.3144 -1.3776 -2.0413 0.9510
-9.9862 -6.2195 -1.9381 0.9534
-9.2532 -6.9782 -1.9092 0.9541
10.7109 -6.3441 -2.0508 0.9508
11.2555 -5.3763 -2.0549 0.9507
12.9974 -3.5604 -2.2201 0.9468
13.2761 -2.3918 -2.2223 0.9468
13.4453 -1.2015 -2.2238 0.9467
11.7224 1.0475 -2.2121 0.9532
11.5786 2.0860 -2.2114 0.9532
11.0075 4.0992 -2.2078 0.9533
10.5858 5.0564 -2.2050 0.9534
10.0782 5.9694 -2.2017 0.9534
9.4898 6.8304 -2.1977 0.9535
8.8261 7.6322 -2.1932 0.9536
7.2979 9.0328 -2.1827 0.9538
4.4200 10.1089 -2.0738 0.9561
-0.3514 10.5095 -1.9765 0.9581
-1.2811 10.4016 -1.9699 0.9582
-6.7708 8.7732 -2.0830 0.9559
-7.5054 8.1148 -2.0776 0.9560
-8.7853 6.6253 -2.0682 0.9562
-10.1719 4.0483 -2.0578 0.9564
-10.9125 0.2432 -2.0516 0.9565
-10.8904 -0.7290 -2.0516 0.9565
-10.5970 -2.6505 -2.0532 0.9565
7.8475 -7.4222 -2.0303 0.9570
9.0796 -5.9396 -2.0393 0.9568
9.5901 -5.1175 -2.0432 0.9567
11.4642 -2.5975 -2.2094 0.9533
11.6584 -1.5679 -2.2111 0.9533
11.7567 -0.5243 -2.2120 0.9532
11.4709 2.5989 -2.2107 0.9533
10.3424 5.5189 -2.2034 0.9534
9.7938 6.4068 -2.1998 0.9535
7.7029 8.7098 -2.1855 0.9538
6.8792 9.3365 -2.1798 0.9539
3.8611 10.0252 -2.0193 0.9572
-1.7403 10.3170 -1.9666 0.9583
-2.6429 10.0880 -1.9601 0.9584
-4.5080 9.7146 -2.0130 0.9573
-5.5484 9.6101 -2.0858 0.9558
-6.3819 9.0784 -2.0858 0.9558
-7.8499 7.7630 -2.0751 0.9561
-8.4904 7.0175 -2.0704 0.9562
-9.0627 6.2212 -2.0662 0.9562
-9.9883 4.5005 -2.0592 0.9564
-10.6033 2.6521 -2.0544 0.9565
-10.9119 -0.2432 -2.0515 0.9565
-10.8481 -1.2135 -2.0517 0.9565
-10.7013 -2.1751 -2.0525 0.9565
-10.1627 -4.0446 -2.0559 0.9565
-9.3065 -5.7961 -2.0608 0.9564
-6.9555 -7.5202 -1.9254 0.9592
9.3442 -5.5346 -2.0413 0.9568
10.2621 -4.9018 -2.1376 0.9548
11.3316 -3.1041 -2.2084 0.9533
11.7196 -1.0473 -2.2116 0.9532
10.4204 0.0000 -2.2027 0.9583
10.3787 0.9274 -2.2026 0.9583
10.0409 2.7505 -2.2006 0.9583
9.7479 3.6302 -2.1988 0.9584
8.9278 5.2880 -2.1934 0.9585
8.4083 6.0519 -2.1899 0.9585
7.8220 6.7640 -2.1859 0.9586
6.4713 8.0096 -2.1766 0.9588
5.7190 8.5333 -2.1714 0.9589
4.0939 9.3631 -2.1601 0.9591
3.2304 9.6487 -2.1508 0.9593
0.5420 9.7195 -2.0577 0.9610
-0.3247 9.7123 -2.0541 0.9610
-1.1957 9.7086 -2.0677 0.9608
-2.0848 9.7019 -2.0976 0.9602
-3.7839 9.2077 -2.1043 0.9601
-6.6917 7.2350 -2.0832 0.9605
-7.2936 6.5967 -2.0788 0.9606
-8.3172 5.1800 -2.0712 0.9607
-8.7321 4.4125 -2.0681 0.9608
-9.3544 2.7879 -2.0633 0.9609
-9.5578 1.9427 -2.0616 0.9609
-9.7426 0.2171 -2.0599 0.9609
-9.7230 -0.6509 -2.0598 0.9609
-9.4602 -2.3661 -2.0613 0.9609
-9.2188 -3.2011 -2.0628 0.9609
-8.9060 -4.0129 -2.0648 0.9609
-8.5239 -4.7954 -2.0673 0.9608
-5.9040 -6.9832 -1.9330 0.9633
-5.2708 -7.4979 -1.9373 0.9632
-4.5937 -7.9564 -1.9420 0.9631
-3.8772 -8.3551 -1.9470 0.9630
5.6536 -7.6731 -2.0147 0.9618
6.3295 -7.1569 -2.0196 0.9617
6.9571 -6.5800 -2.0242 0.9616
8.2277 -5.3823 -2.0782 0.9606
9.8974 -3.1915 -2.1982 0.9584
10.4091 -0.4642 -2.2025 0.9583
10.4102 0.4642 -2.2027 0.9583
10.3258 1.3887 -2.2023 0.9583
9.1610 4.8885 -2.1949 0.9584
8.6767 5.6760 -2.1917 0.9585
7.5055 7.0987 -2.1837 0.9586
6.8294 7.7221 -2.1791 0.9587
4.5131 9.1838 -2.1630 0.9590
2.7899 9.7567 -2.1450 0.9594
1.8740 9.7764 -2.1042 0.9601
0.9791 9.7326 -2.0677 0.9608
0.1082 9.7143 -2.0535 0.9611
-1.6371 9.7057 -2.0806 0.9606
-2.5258 9.6408 -2.1067 0.9601
-3.3715 9.3712 -2.1052 0.9601
-4.1846 9.0176 -2.1014 0.9602
-4.9574 8.5865 -2.0958 0.9603
-5.6876 8.0907 -2.0905 0.9604
-6.3700 7.5344 -2.0855 0.9605
-6.9998 6.9223 -2.0809 0.9606
-7.5728 6.2591 -2.0767 0.9606
-9.2254 3.2034 -2.0643 0.9609
-9.4652 2.3674 -2.0624 0.9609
-9.6319 1.5146 -2.0610 0.9609
-9.7422 -0.2171 -2.0598 0.9609
-9.3485 -2.7862 -2.0620 0.9609
-9.0712 -3.6102 -2.0637 0.9609
-8.7234 -4.4082 -2.0660 0.9608
-8.3076 -5.1740 -2.0688 0.9608
-6.2026 -6.7062 -1.9309 0.9633
-5.5932 -7.2473 -1.9351 0.9633
-4.9375 -7.7344 -1.9396 0.9632
5.9972 -7.4228 -2.0172 0.9617
6.6497 -6.8757 -2.0219 0.9616
7.2510 -6.2702 -2.0263 0.9616
7.7958 -5.6111 -2.0303 0.9615
9.3663 -4.4739 -2.1941 0.9585
9.7400 -3.6272 -2.1970 0.9584
10.0347 -2.7488 -2.1993 0.9584
9.3395 0.0000 -2.1950 0.9624
9.1887 1.6554 -2.1943 0.9624
9.0002 2.4654 -2.1932 0.9624
8.7384 3.2542 -2.1915 0.9624
8.4058 4.0151 -2.1894 0.9624
8.0053 4.7416 -2.1867 0.9625
7.0162 6.0672 -2.1800 0.9626
5.8072 7.1876 -2.1717 0.9627
4.4211 8.0675 -2.1621 0.9629
3.6767 8.4088 -2.1569 0.9630
2.9064 8.6809 -2.1515 0.9631
1.3143 9.0115 -2.1403 0.9633
-4.1216 7.9354 -2.1016 0.9639
-4.8003 7.5195 -2.0967 0.9640
-5.4384 7.0468 -2.0920 0.9641
-6.0316 6.5213 -2.0877 0.9642
-6.5755 5.9472 -2.0837 0.9642
-7.5010 4.6717 -2.0768 0.9643
-7.8763 3.9801 -2.0740 0.9644
-8.1898 3.2595 -2.0716 0.9644
-8.4395 2.5152 -2.0697 0.9645
-8.7411 0.9778 -2.0672 0.9645
-8.7912 0.1959 -2.0666 0.9645
-8.5357 -2.1350 -2.0679 0.9645
-8.3173 -2.8881 -2.0693 0.9645
-8.0344 -3.6201 -2.0711 0.9644
-6.8191 -5.6362 -2.0792 0.9643
-6.2691 -6.1997 -2.0722 0.9644
-4.1388 -7.1686 -1.9454 0.9666
-2.8155 -7.8258 -1.9546 0.9664
-0.6529 -8.3560 -1.9698 0.9661
3.0526 -7.9260 -1.9962 0.9657
4.4315 -7.2953 -2.0061 0.9655
6.2421 -5.9037 -2.0193 0.9653
7.0795 -5.5906 -2.1201 0.9636
7.7666 -5.0807 -2.1812 0.9626
8.2057 -4.3787 -2.1859 0.9625
8.5738 -3.6356 -2.1887 0.9625
9.0996 -2.0617 -2.1928 0.9624
9.3295 -0.4160 -2.1948 0.9624
9.1038 2.0626 -2.1938 0.9624
8.5808 3.6386 -2.1905 0.9624
8.2138 4.3830 -2.1881 0.9625
6.7330 6.3680 -2.1781 0.9626
6.1278 6.9288 -2.1739 0.9627
4.7817 7.8717 -2.1646 0.9629
4.0525 8.2466 -2.1595 0.9629
2.5136 8.7904 -2.1488 0.9631
1.7167 8.9559 -2.1432 0.9632
0.9103 9.0490 -2.1375 0.9633
-0.7047 9.0185 -2.1260 0.9635
-1.5006 8.8962 -2.1204 0.9636
-2.2805 8.7044 -2.1148 0.9637
-6.8278 5.6433 -2.0818 0.9643
-7.2909 5.0049 -2.0784 0.9643
-7.6962 4.3298 -2.0754 0.9644
-8.3227 2.8900 -2.0706 0.9644
-8.5398 2.1359 -2.0689 0.9645
-8.6908 1.3666 -2.0676 0.9645
-8.7746 0.5874 -2.0669 0.9645
-8.7392 -0.9776 -2.0667 0.9645
-8.6203 -1.7521 -2.0674 0.9645
-8.4347 -2.5138 -2.0685 0.9645
-7.4931 -4.6667 -2.0747 0.9644
-7.0579 -5.3226 -2.0776 0.9643
-5.7489 -6.2156 -1.9898 0.9658
-5.0411 -6.5320 -1.9392 0.9667
-4.4491 -6.9694 -1.9433 0.9666
-2.4671 -7.9533 -1.9571 0.9664
-1.7539 -8.1621 -1.9621 0.9663
1.2177 -8.3495 -1.9831 0.9659
1.9613 -8.2299 -1.9884 0.9658
2.6930 -8.0437 -1.9936 0.9657
4.0972 -7.4764 -2.0037 0.9656
4.7577 -7.0989 -2.0085 0.9655
5.3827 -6.6623 -2.0130 0.9654
6.5770 -5.6873 -2.0435 0.9649
7.5102 -5.4055 -2.1747 0.9627
7.9968 -4.7365 -2.1844 0.9625
8.3982 -4.0115 -2.1874 0.9625
8.7321 -3.2519 -2.1899 0.9624
8.9953 -2.4641 -2.1920 0.9624
9.1853 -1.6548 -2.1935 0.9624
8.4534 0.0000 -2.1887 0.9657
8.3171 1.4984 -2.1881 0.9657
7.6101 3.6350 -2.1836 0.9658
7.2483 4.2932 -2.1812 0.9658
6.3546 5.4951 -2.1752 0.9659
5.8307 6.0289 -2.1716 0.9659
5.2615 6.5122 -2.1677 0.9660
4.6519 6.9411 -2.1635 0.9661
4.0073 7.3124 -2.1590 0.9661
3.3333 7.6235 -2.1543 0.9662
2.6356 7.8720 -2.1494 0.9663
1.1924 8.1758 -2.1393 0.9664
0.4589 8.2295 -2.1341 0.9665
-0.2747 8.2176 -2.1289 0.9666
-1.0026 8.1407 -2.1237 0.9667
-1.7191 7.9999 -2.1186 0.9668
-2.4185 7.7967 -2.1136 0.9668
-3.0958 7.5331 -2.1087 0.9669
-4.9444 6.4067 -2.0954 0.9671
-5.9803 5.4089 -2.0878 0.9672
-6.4278 4.8475 -2.0845 0.9673
-6.8241 4.2501 -2.0815 0.9673
-7.1664 3.6214 -2.0790 0.9674
-7.6803 2.2890 -2.0750 0.9674
-8.0014 0.1783 -2.0722 0.9675
-7.9853 -0.5346 -2.0722 0.9675
-7.3112 -3.2943 -2.0763 0.9674
-6.2032 -5.1271 -2.0837 0.9673
-4.3735 -6.2213 -1.9690 0.9691
-3.7623 -6.5165 -1.9482 0.9694
-2.5582 -7.1108 -1.9566 0.9693
0.0850 -7.6283 -1.9752 0.9690
1.4432 -7.5290 -1.9849 0.9688
2.7684 -7.1879 -1.9943 0.9687
3.4049 -6.9288 -1.9989 0.9686
4.0170 -6.6128 -2.0033 0.9685
6.5904 -5.2044 -2.1743 0.9659
7.0382 -4.6042 -2.1776 0.9658
7.4300 -3.9648 -2.1805 0.9658
7.7624 -3.2915 -2.1830 0.9658
8.2369 -1.8663 -2.1867 0.9657
8.4444 -0.3766 -2.1886 0.9657
8.4451 0.3766 -2.1888 0.9657
8.2404 1.8670 -2.1877 0.9657
8.0369 2.5915 -2.1864 0.9657
7.7681 3.2940 -2.1847 0.9657
6.5981 5.2105 -2.1768 0.9659
4.9614 6.7337 -2.1656 0.9660
3.6736 7.4756 -2.1567 0.9662
2.9870 7.7557 -2.1519 0.9662
2.2796 7.9723 -2.1469 0.9663
1.5573 8.1243 -2.1418 0.9664
0.8260 8.2109 -2.1367 0.9665
0.0917 8.2317 -2.1315 0.9666
-0.6398 8.1872 -2.1263 0.9666
-2.0713 7.9059 -2.1161 0.9668
-2.7603 7.6723 -2.1111 0.9669
-4.6588 6.6271 -2.0974 0.9671
-5.7383 5.6747 -2.0896 0.9672
-6.6326 4.5530 -2.0830 0.9673
-7.5738 2.6299 -2.0758 0.9674
-7.7719 1.9439 -2.0743 0.9674
-7.9863 0.5346 -2.0724 0.9675
-8.0011 -0.1783 -2.0721 0.9675
-7.8456 -1.5947 -2.0729 0.9675
-7.1606 -3.6184 -2.0773 0.9674
-6.4209 -4.8422 -2.0822 0.9673
-5.9731 -5.4023 -2.0853 0.9673
-4.0448 -6.3360 -1.9463 0.9694
-2.8693 -6.9820 -1.9545 0.9693
-0.2546 -7.6153 -1.9728 0.9690
0.4252 -7.6263 -1.9776 0.9689
1.1050 -7.5766 -1.9825 0.9689
1.7793 -7.4662 -1.9873 0.9688
3.0894 -7.0656 -1.9966 0.9686
3.7143 -6.7778 -2.0011 0.9686
6.8211 -4.9095 -2.1760 0.9659
7.2414 -4.2891 -2.1791 0.9658
7.9053 -2.9440 -2.1841 0.9657
8.1428 -2.2306 -2.1860 0.9657
8.3143 -1.4979 -2.1874 0.9657
8.4182 -0.7523 -2.1883 0.9657
7.7130 -0.0000 -2.1835 0.9684
7.6822 0.6865 -2.1834 0.9684
7.4338 2.0363 -2.1820 0.9685
6.6155 3.9184 -2.1766 0.9685
5.8012 5.0165 -2.1711 0.9686
5.3237 5.5046 -2.1679 0.9687
4.8047 5.9468 -2.1643 0.9687
2.4085 7.1938 -2.1476 0.9690
1.0901 7.4745 -2.1384 0.9691
0.4196 7.5251 -2.1336 0.9692
-0.2513 7.5158 -2.1289 0.9692
-0.9172 7.4471 -2.1241 0.9693
-2.2134 7.1352 -2.1149 0.9694
-3.4292 6.6023 -2.1061 0.9695
-4.5283 5.8675 -2.0982 0.9697
-6.2532 3.8946 -2.0855 0.9698
-6.5676 3.3187 -2.0831 0.9699
-6.8303 2.7184 -2.0811 0.9699
-7.0397 2.0980 -2.0795 0.9699
-7.1941 1.4623 -2.0783 0.9699
-7.3348 0.1635 -2.0769 0.9700
-7.3201 -0.4900 -2.0769 0.9700
-7.2486 -1.1398 -2.0772 0.9700
-6.4115 -3.6071 -2.0826 0.9699
-4.7749 -5.6478 -2.0937 0.9697
-4.2504 -6.0463 -2.0923 0.9697
-2.3418 -6.5091 -1.9583 0.9717
-0.5424 -6.9410 -1.9710 0.9715
0.0777 -6.9773 -1.9753 0.9714
0.7000 -6.9582 -1.9797 0.9713
1.3195 -6.8835 -1.9842 0.9713
2.5300 -6.5690 -1.9928 0.9712
3.6799 -6.0579 -2.0066 0.9710
4.3982 -5.9693 -2.0990 0.9696
5.0514 -5.7117 -2.1586 0.9688
6.0167 -4.7513 -2.1703 0.9686
6.7815 -3.6187 -2.1760 0.9686
7.3297 -2.3635 -2.1802 0.9685
7.6415 -1.0277 -2.1827 0.9685
7.7054 0.3436 -2.1835 0.9684
7.6433 1.0279 -2.1832 0.9684
7.5190 1.7036 -2.1825 0.9685
7.3336 2.3648 -2.1814 0.9685
6.0231 4.7564 -2.1727 0.9686
4.5310 6.1496 -2.1624 0.9687
0.0839 7.5280 -2.1313 0.9692
-0.5852 7.4888 -2.1265 0.9693
-1.8954 7.2345 -2.1172 0.9694
-2.5263 7.0221 -2.1126 0.9695
-3.1348 6.7554 -2.1083 0.9695
-4.2663 6.0689 -2.1001 0.9696
-4.7810 5.6550 -2.0963 0.9697
-5.6897 4.7027 -2.0897 0.9698
-6.9418 2.4104 -2.0803 0.9699
-7.1238 1.7818 -2.0788 0.9699
-7.1918 -1.4618 -2.0776 0.9700
-7.0363 -2.0971 -2.0785 0.9699
-5.8835 -4.4370 -2.0861 0.9698
-5.4726 -4.9497 -2.0889 0.9698
-5.0178 -5.4251 -2.0920 0.9697
-4.5185 -5.8549 -2.0937 0.9697
-3.9585 -6.2009 -2.0826 0.9699
-2.0516 -6.6138 -1.9603 0.9716
-0.8501 -6.9024 -1.9688 0.9715
-0.2329 -6.9660 -1.9731 0.9714
0.3889 -6.9746 -1.9775 0.9714
1.6266 -6.8254 -1.9863 0.9713
3.3935 -6.1924 -1.9990 0.9711
4.7800 -5.9163 -2.1532 0.9689
5.3130 -5.4937 -2.1636 0.9687
7.0845 -0.0000 -2.1790 0.9708
6.6311 2.4694 -2.1764 0.9708
6.3801 3.0475 -2.1748 0.9708
6.0780 3.6000 -2.1728 0.9709
5.7272 4.1222 -2.1704 0.9709
5.3310 4.6098 -2.1677 0.9709
4.4163 5.4662 -2.1614 0.9710
3.3658 6.1418 -2.1542 0.9711
2.8007 6.4053 -2.1502 0.9712
2.2152 6.6165 -2.1461 0.9712
1.6143 6.7741 -2.1419 0.9713
1.0030 6.8770 -2.1376 0.9713
-0.2313 6.9175 -2.1289 0.9714
-2.0382 6.5706 -2.1160 0.9716
-3.1589 6.0819 -2.1079 0.9717
-5.0496 4.5671 -2.0942 0.9719
-5.4288 4.0941 -2.0914 0.9719
-5.7648 3.5903 -2.0889 0.9720
-6.0551 3.0598 -2.0867 0.9720
-6.4912 1.9346 -2.0833 0.9721
-6.7251 0.7523 -2.0814 0.9721
-6.3976 -2.2215 -2.0830 0.9721
-5.5975 -3.8425 -2.0883 0.9720
-5.2394 -4.3305 -2.0907 0.9720
-4.8394 -4.7858 -2.0934 0.9719
-3.4145 -5.9141 -2.1005 0.9718
-2.8733 -6.1918 -2.0995 0.9718
-1.6304 -6.2232 -1.9787 0.9734
0.0715 -6.4221 -1.9754 0.9735
1.2140 -6.3336 -1.9835 0.9734
2.3680 -6.1484 -2.0265 0.9728
4.6535 -5.2618 -2.1606 0.9710
5.9033 -3.8618 -2.1697 0.9709
6.7333 -2.1712 -2.1760 0.9708
7.0770 -0.3156 -2.1789 0.9708
7.0205 0.9442 -2.1788 0.9708
6.9065 1.5648 -2.1781 0.9708
6.7366 2.1723 -2.1771 0.9708
6.2353 3.3273 -2.1738 0.9709
5.5346 4.3706 -2.1691 0.9709
4.6590 5.2681 -2.1631 0.9710
2.5102 6.5175 -2.1482 0.9712
1.9164 6.7021 -2.1440 0.9712
1.3097 6.8324 -2.1398 0.9713
0.6949 6.9079 -2.1354 0.9714
0.0772 6.9281 -2.1311 0.9714
-1.1477 6.8041 -2.1224 0.9715
-2.3266 6.4670 -2.1139 0.9716
-3.4236 5.9298 -2.1060 0.9718
-4.4057 5.2111 -2.0989 0.9718
-5.9158 3.3281 -2.0878 0.9720
-6.1825 2.7857 -2.0857 0.9720
-6.4008 2.2226 -2.0841 0.9720
-6.5690 1.6430 -2.0827 0.9721
-6.6861 1.0513 -2.0818 0.9721
-6.7638 -0.1507 -2.0809 0.9721
-6.7240 -0.7522 -2.0811 0.9721
-6.4884 -1.9338 -2.0824 0.9721
-6.2943 -2.5051 -2.0837 0.9720
-5.4238 -4.0903 -2.0895 0.9720
-4.6247 -5.0002 -2.0949 0.9719
-4.1675 -5.4000 -2.0980 0.9719
-3.1468 -6.0587 -2.0999 0.9718
-2.5505 -6.2063 -2.0638 0.9723
-1.9290 -6.2184 -2.0026 0.9731
-0.7827 -6.3549 -1.9694 0.9736
0.3579 -6.4191 -1.9775 0.9735
0.9297 -6.3749 -1.9815 0.9734
3.8931 -5.8089 -2.1508 0.9712
4.8872 -5.0533 -2.1623 0.9710
5.3254 -4.6051 -2.1655 0.9710
5.7219 -4.1184 -2.1684 0.9709
6.0730 -3.5971 -2.1710 0.9709
6.3758 -3.0454 -2.1733 0.9709
6.8256 -1.8697 -2.1768 0.9708
6.5177 0.5824 -2.1752 0.9728
6.1256 2.2812 -2.1728 0.9728
5.8941 2.8154 -2.1713 0.9728
5.2917 3.8087 -2.1672 0.9729
4.9261 4.2597 -2.1648 0.9729
4.0818 5.0521 -2.1590 0.9730
3.6105 5.3872 -2.1557 0.9730
2.5895 5.9224 -2.1486 0.9731
0.9278 6.3614 -2.1369 0.9733
0.3572 6.4067 -2.1329 0.9733
-1.3404 6.2379 -2.1209 0.9735
-2.4164 5.8800 -2.1131 0.9736
-2.9251 5.6318 -2.1095 0.9736
-3.4091 5.3402 -2.1060 0.9736
-4.6782 4.2311 -2.0967 0.9738
-5.3417 3.3268 -2.0918 0.9738
-5.8365 2.3229 -2.0881 0.9739
-6.1486 1.2498 -2.0856 0.9739
-6.2332 0.6973 -2.0849 0.9739
-6.1956 -0.9742 -2.0847 0.9739
-6.0861 -1.5222 -2.0854 0.9739
-5.9293 -2.0589 -2.0864 0.9739
-5.7261 -2.5801 -2.0877 0.9739
-5.4780 -3.0819 -2.0893 0.9739
-5.1868 -3.5606 -2.0913 0.9738
-4.0765 -4.8218 -2.0988 0.9737
-3.6364 -5.1729 -2.1019 0.9737
-3.1665 -5.4845 -2.1051 0.9737
-2.6701 -5.7538 -2.1085 0.9736
-1.6083 -6.1387 -2.1094 0.9736
-1.0464 -6.2032 -2.0911 0.9738
0.0692 -6.2088 -2.0640 0.9742
0.6238 -6.2012 -2.0717 0.9741
1.1859 -6.1868 -2.0940 0.9738
2.8462 -5.7920 -2.1452 0.9732
4.3012 -4.8634 -2.1582 0.9730
4.7237 -4.4677 -2.1612 0.9730
5.1093 -4.0348 -2.1641 0.9729
6.0125 -2.5495 -2.1708 0.9728
6.2201 -2.0057 -2.1724 0.9728
6.4835 -0.8720 -2.1746 0.9728
6.5370 -0.2915 -2.1751 0.9728
6.5374 0.2915 -2.1752 0.9728
6.2229 2.0066 -2.1734 0.9728
5.1140 4.0384 -2.1660 0.9729
4.3059 4.8687 -2.1605 0.9730
2.8532 5.8062 -2.1505 0.9731
2.3211 6.0267 -2.1467 0.9731
1.2114 6.3197 -2.1389 0.9732
0.0714 6.4101 -2.1309 0.9733
-0.4985 6.3789 -2.1269 0.9734
-1.6155 6.1663 -2.1189 0.9735
-2.6736 5.7614 -2.1113 0.9736
-3.1704 5.4913 -2.1077 0.9736
-4.0810 4.8270 -2.1011 0.9737
-4.4880 4.4383 -2.0981 0.9737
-5.1910 3.5634 -2.0929 0.9738
-5.7294 2.5815 -2.0889 0.9739
-6.0882 1.5228 -2.0861 0.9739
-6.1969 0.9744 -2.0852 0.9739
-6.2574 0.4189 -2.0846 0.9739
-6.2322 -0.6972 -2.0846 0.9739
-6.1468 -1.2494 -2.0850 0.9739
-5.8334 -2.3216 -2.0870 0.9739
-5.6076 -2.8337 -2.0885 0.9739
-4.2844 -4.6322 -2.0974 0.9738
-3.8604 -5.0021 -2.1003 0.9737
-2.9214 -5.6247 -2.1068 0.9736
-2.4110 -5.8668 -2.1084 0.9736
-1.3323 -6.1998 -2.1079 0.9736
-0.7643 -6.2060 -2.0785 0.9740
-0.2076 -6.2092 -2.0651 0.9742
0.3460 -6.2054 -2.0659 0.9741
0.9037 -6.1962 -2.0815 0.9740
1.4712 -6.1735 -2.1096 0.9736
2.0393 -6.0911 -2.1352 0.9733
2.5812 -5.9033 -2.1417 0.9732
3.6061 -5.3807 -2.1531 0.9731
4.0772 -5.0464 -2.1565 0.9730
5.2872 -3.8055 -2.1654 0.9729
6.5169 -0.5824 -2.1749 0.9728
5.9759 1.0766 -2.1714 0.9745
5.8544 1.6037 -2.1707 0.9745
5.4711 2.6133 -2.1682 0.9746
4.5735 3.9548 -2.1622 0.9746
4.1983 4.3410 -2.1596 0.9747
3.7904 4.6914 -2.1568 0.9747
1.9032 5.6844 -2.1437 0.9749
1.3873 5.8214 -2.1401 0.9749
0.3320 5.9544 -2.1326 0.9750
-3.1712 4.9676 -2.1076 0.9753
-3.9905 4.3144 -2.1016 0.9753
-5.4325 2.1621 -2.0909 0.9755
-5.5999 1.6689 -2.0896 0.9755
-5.7235 1.1633 -2.0886 0.9755
-5.5192 -1.9165 -2.0893 0.9755
-5.3298 -2.4015 -2.0905 0.9755
-4.8273 -3.3138 -2.0939 0.9754
-4.5177 -3.7340 -2.0960 0.9754
-3.3832 -4.8127 -2.1037 0.9753
-2.4836 -5.3521 -2.1100 0.9752
-1.5002 -5.7263 -2.1169 0.9752
-0.9855 -5.8427 -2.1189 0.9751
-0.4621 -5.9141 -2.1214 0.9751
0.5958 -5.9225 -2.1286 0.9750
1.1230 -5.8588 -2.1333 0.9750
2.6471 -5.3866 -2.1463 0.9748
3.1210 -5.1378 -2.1497 0.9748
3.5713 -4.8470 -2.1530 0.9747
3.9942 -4.5163 -2.1561 0.9747
4.3861 -4.1484 -2.1589 0.9747
4.7437 -3.7461 -2.1616 0.9746
5.0639 -3.3126 -2.1639 0.9746
5.3438 -2.8515 -2.1660 0.9746
5.9194 -1.3412 -2.1705 0.9745
6.0175 -0.8093 -2.1713 0.9745
6.0674 0.2705 -2.1719 0.9745
6.0186 0.8094 -2.1717 0.9745
5.5840 2.3678 -2.1690 0.9746
5.3472 2.8533 -2.1674 0.9746
5.0676 3.3151 -2.1655 0.9746
4.7477 3.7492 -2.1634 0.9746
3.5752 4.8522 -2.1553 0.9747
3.1246 5.1437 -2.1522 0.9748
2.6503 5.3931 -2.1489 0.9748
0.5975 5.9389 -2.1345 0.9750
0.0664 5.9580 -2.1308 0.9750
-0.4634 5.9298 -2.1270 0.9750
-2.0031 5.5677 -2.1160 0.9752
-3.7969 4.4909 -2.1030 0.9753
-4.1760 4.1297 -2.1003 0.9754
-4.5215 3.7371 -2.0977 0.9754
-4.8309 3.3162 -2.0954 0.9754
-5.3327 2.4028 -2.0917 0.9755
-5.5216 1.9173 -2.0902 0.9755
-5.6672 1.4175 -2.0891 0.9755
-5.7685 0.9071 -2.0882 0.9755
-5.8249 0.3899 -2.0877 0.9755
-5.8359 -0.1300 -2.0875 0.9755
-5.8015 -0.6490 -2.0876 0.9755
-5.5978 -1.6683 -2.0888 0.9755
-5.4298 -2.1610 -2.0899 0.9755
-5.2194 -2.6375 -2.0913 0.9755
-4.6772 -3.5272 -2.0949 0.9754
-3.9866 -4.3103 -2.0996 0.9754
-3.5918 -4.6540 -2.1023 0.9753
-2.2445 -5.4617 -2.1117 0.9752
0.3311 -5.9373 -2.1265 0.9751
1.3845 -5.8098 -2.1358 0.9749
2.4025 -5.4947 -2.1446 0.9748
3.3493 -4.9975 -2.1514 0.9748
3.7864 -4.6865 -2.1546 0.9747
4.1942 -4.3368 -2.1575 0.9747
4.9087 -3.5330 -2.1628 0.9746
5.6829 -2.1164 -2.1686 0.9746
5.9745 -1.0764 -2.1709 0.9745
5.4560 1.4945 -2.1679 0.9761
5.0991 2.4356 -2.1656 0.9761
4.5791 3.2958 -2.1621 0.9761
3.9140 4.0470 -2.1575 0.9762
3.5340 4.3740 -2.1549 0.9762
2.6951 4.9180 -2.1491 0.9763
1.7751 5.3021 -2.1427 0.9763
0.8044 5.5152 -2.1359 0.9764
0.3098 5.5558 -2.1324 0.9764
-0.6779 5.5045 -2.1254 0.9765
-1.1633 5.4135 -2.1219 0.9766
-1.6379 5.2800 -2.1185 0.9766
-2.0981 5.1053 -2.1152 0.9766
-2.9613 4.6387 -2.1090 0.9767
-3.3578 4.3508 -2.1061 0.9767
-3.7270 4.0295 -2.1034 0.9768
-4.0660 3.6775 -2.1009 0.9768
-5.3477 1.0870 -2.0912 0.9769
-5.4422 -0.3643 -2.0902 0.9769
-5.3889 -0.8474 -2.0905 0.9769
-5.2935 -1.3240 -2.0910 0.9769
-5.1567 -1.7906 -2.0919 0.9769
-4.9796 -2.2437 -2.0931 0.9769
-4.7634 -2.6799 -2.0945 0.9769
-3.5426 -4.1903 -2.1028 0.9768
-0.9206 -5.4577 -2.1210 0.9766
-0.4319 -5.5269 -2.1245 0.9765
0.0619 -5.5525 -2.1280 0.9765
1.0488 -5.4716 -2.1350 0.9764
2.0088 -5.2156 -2.1418 0.9763
3.3301 -4.5196 -2.1514 0.9762
3.7241 -4.2109 -2.1542 0.9762
4.4222 -3.4922 -2.1593 0.9762
4.9808 -2.6579 -2.1635 0.9761
5.5166 -1.2499 -2.1676 0.9761
5.6079 -0.7542 -2.1684 0.9761
5.5181 1.2502 -2.1682 0.9761
4.7235 3.0900 -2.1630 0.9761
3.3335 4.5242 -2.1535 0.9762
1.5360 5.3717 -2.1410 0.9764
-0.4324 5.5338 -2.1271 0.9765
-1.8700 5.1977 -2.1169 0.9766
-2.7536 4.7695 -2.1105 0.9767
-3.1628 4.4991 -2.1075 0.9767
-3.5460 4.1942 -2.1047 0.9767
-3.9004 3.8572 -2.1022 0.9768
-4.2235 3.4908 -2.0998 0.9768
-4.5128 3.0978 -2.0976 0.9768
-4.7663 2.6815 -2.0957 0.9768
-4.9821 2.2448 -2.0941 0.9769
-5.1588 1.7913 -2.0927 0.9769
-5.2951 1.3244 -2.0917 0.9769
-5.4427 0.3643 -2.0904 0.9769
-5.3464 -1.0867 -2.0907 0.9769
-5.2302 -1.5588 -2.0914 0.9769
-4.3692 -3.2950 -2.0971 0.9768
-4.0626 -3.6745 -2.0992 0.9768
-3.7236 -4.0259 -2.1015 0.9768
-2.9582 -4.6339 -2.1068 0.9767
-2.5375 -4.8856 -2.1097 0.9767
-2.0957 -5.0995 -2.1128 0.9767
-0.1854 -5.5452 -2.1262 0.9765
0.8034 -5.5083 -2.1332 0.9764
2.2408 -5.1249 -2.1435 0.9763
2.6922 -4.9126 -2.1467 0.9763
3.1233 -4.6602 -2.1499 0.9763
3.5305 -4.3697 -2.1528 0.9762
3.9104 -4.0434 -2.1556 0.9762
4.5757 -3.2934 -2.1605 0.9761
5.0963 -2.4343 -2.1644 0.9761
5.2965 -1.9725 -2.1659 0.9761
5.4541 -1.4940 -2.1671 0.9761
5.6366 -0.5037 -2.1687 0.9760
5.2084 0.9383 -2.1660 0.9774
5.1027 1.3978 -2.1653 0.9774
4.2833 3.0830 -2.1599 0.9774
3.9882 3.4487 -2.1579 0.9775
3.6617 3.7861 -2.1557 0.9775
3.3064 4.0923 -2.1533 0.9775
1.6614 4.9624 -2.1418 0.9776
1.2114 5.0831 -2.1387 0.9777
0.2900 5.2015 -2.1322 0.9777
-0.1738 5.1986 -2.1289 0.9778
-0.6349 5.1546 -2.1256 0.9778
-1.5341 4.9454 -2.1192 0.9779
-3.4923 3.7759 -2.1050 0.9780
-3.8103 3.4462 -2.1027 0.9780
-4.0978 3.0903 -2.1006 0.9781
-4.3526 2.7108 -2.0987 0.9781
-2.1345 -0.3356 -0.8843 0.9907
-4.8338 -1.6785 -2.0942 0.9781
-4.4647 -2.5118 -2.0966 0.9781
-3.6520 -3.6116 -2.1021 0.9780
-3.3197 -3.9265 -2.1044 0.9780
-2.9605 -4.2114 -2.1069 0.9780
-0.4044 -5.1757 -2.1248 0.9778
2.3105 -4.7017 -2.1441 0.9776
2.7236 -4.4836 -2.1471 0.9776
3.1160 -4.2290 -2.1499 0.9776
3.4843 -3.9398 -2.1526 0.9775
4.6589 -2.4861 -2.1613 0.9774
5.1594 -1.1690 -2.1651 0.9774
5.2455 0.7054 -2.1662 0.9774
5.1607 1.1693 -2.1657 0.9774
4.8674 2.0640 -2.1638 0.9774
4.6615 2.4875 -2.1625 0.9774
4.1399 3.2692 -2.1590 0.9775
3.8287 3.6212 -2.1568 0.9775
3.4874 3.9433 -2.1545 0.9775
2.7263 4.4882 -2.1492 0.9776
1.8822 4.8870 -2.1434 0.9776
1.4377 5.0278 -2.1402 0.9777
0.9830 5.1282 -2.1370 0.9777
0.5219 5.1874 -2.1338 0.9777
-0.4049 5.1817 -2.1272 0.9778
-0.8632 5.1173 -2.1240 0.9778
-1.3132 5.0125 -2.1208 0.9779
-1.7516 4.8686 -2.1176 0.9779
-2.1748 4.6866 -2.1146 0.9779
-2.5798 4.4683 -2.1117 0.9779
-3.3226 3.9300 -2.1063 0.9780
-3.6550 3.6145 -2.1038 0.9780
-4.4673 2.5132 -2.0978 0.9781
-4.6698 2.1041 -2.0963 0.9781
-2.1302 0.1426 -0.8738 0.9908
-2.1285 -0.0474 -0.8714 0.9908
-2.1261 -0.2378 -0.8756 0.9908
-4.9027 -1.4612 -2.0938 0.9781
-4.7554 -1.8926 -2.0947 0.9781
-4.0950 -3.0881 -2.0991 0.9781
-3.8074 -3.4436 -2.1011 0.9781
-3.4894 -3.7727 -2.1032 0.9780
-3.1433 -4.0729 -2.1056 0.9780
-2.7717 -4.3418 -2.1082 0.9780
-1.5324 -4.9399 -2.1168 0.9779
-1.0882 -5.0642 -2.1199 0.9779
-0.1736 -5.1926 -2.1264 0.9778
0.2897 -5.1954 -2.1297 0.9778
0.7521 -5.1570 -2.1330 0.9777
1.2100 -5.0773 -2.1362 0.9777
1.6596 -4.9569 -2.1394 0.9777
2.0973 -4.7965 -2.1426 0.9776
2.9226 -4.3608 -2.1485 0.9776
3.3033 -4.0886 -2.1513 0.9775
3.6585 -3.7829 -2.1539 0.9775
4.2804 -3.0808 -2.1584 0.9775
4.9538 -1.8448 -2.1635 0.9774
4.9654 0.0000 -2.1640 0.9786
4.9457 0.4419 -2.1640 0.9786
4.7869 1.3113 -2.1631 0.9786
4.6493 1.7314 -2.1622 0.9786
4.4744 2.1372 -2.1611 0.9786
4.2637 2.5254 -2.1597 0.9786
4.0189 2.8926 -2.1580 0.9786
3.7422 3.2360 -2.1561 0.9786
3.4360 3.5528 -2.1540 0.9787
3.1029 3.8404 -2.1518 0.9787
2.7456 4.0967 -2.1493 0.9787
2.3671 4.3195 -2.1467 0.9787
1.5597 4.6585 -2.1410 0.9788
0.2723 4.8843 -2.1320 0.9789
-0.5962 4.8411 -2.1258 0.9789
-2.2358 4.3048 -2.1141 0.9791
-2.6068 4.0835 -2.1114 0.9791
-4.0911 2.5479 -2.1005 0.9792
-4.2984 2.1721 -2.0989 0.9792
-1.9300 0.3923 -0.8583 0.9914
-1.9479 -0.1304 -0.8508 0.9915
-1.9397 -0.3050 -0.8557 0.9915
-1.9080 -0.4772 -0.8571 0.9915
-1.8290 -0.6351 -0.8438 0.9916
-3.9727 -2.7271 -2.1001 0.9792
-3.7173 -3.0724 -2.1018 0.9792
-3.1197 -3.6900 -2.1059 0.9791
-2.7820 -3.9574 -2.1082 0.9791
-2.4215 -4.1943 -2.1107 0.9791
-2.0412 -4.3986 -2.1133 0.9791
-1.6437 -4.5688 -2.1161 0.9790
-1.2322 -4.7034 -2.1190 0.9790
-0.8099 -4.8011 -2.1220 0.9790
0.0544 -4.8827 -2.1281 0.9789
0.9219 -4.8095 -2.1342 0.9789
1.7650 -4.5828 -2.1403 0.9788
2.5564 -4.2084 -2.1460 0.9787
3.8817 -3.0654 -2.1556 0.9786
4.1429 -2.7102 -2.1576 0.9786
4.3711 -2.3325 -2.1593 0.9786
4.7213 -1.5224 -2.1619 0.9786
4.8401 -1.0966 -2.1629 0.9786
4.9200 -0.6617 -2.1635 0.9786
4.9606 0.2212 -2.1640 0.9786
4.9208 0.6618 -2.1639 0.9786
4.7229 1.5229 -2.1627 0.9786
4.5664 1.9363 -2.1617 0.9786
4.1454 2.7118 -2.1589 0.9786
3.8844 3.0675 -2.1571 0.9786
2.9270 3.9726 -2.1505 0.9787
2.5588 4.2124 -2.1480 0.9787
2.1710 4.4178 -2.1453 0.9788
1.7668 4.5875 -2.1425 0.9788
0.9229 4.8147 -2.1365 0.9788
0.4900 4.8708 -2.1335 0.9789
0.0545 4.8880 -2.1304 0.9789
-0.3803 4.8664 -2.1273 0.9789
-0.8107 4.8063 -2.1243 0.9790
-2.7844 3.9609 -2.1101 0.9791
-3.4349 3.3968 -2.1053 0.9791
-3.7199 3.0745 -2.1032 0.9792
-4.1989 2.3623 -2.0997 0.9792
-4.3895 1.9778 -2.0982 0.9792
-1.9397 0.3050 -0.8557 0.9915
-1.9479 0.1304 -0.8508 0.9915
-1.9470 -0.0434 -0.8487 0.9915
-4.4701 -1.7791 -2.0968 0.9792
-3.2793 -3.5455 -2.1048 0.9791
-2.9538 -3.8274 -2.1070 0.9791
-1.8444 -4.4881 -2.1147 0.9791
-0.5956 -4.8359 -2.1235 0.9790
-0.1630 -4.8767 -2.1265 0.9789
0.2720 -4.8789 -2.1296 0.9789
1.5580 -4.6536 -2.1388 0.9788
2.3648 -4.3153 -2.1446 0.9788
3.1002 -3.8371 -2.1499 0.9787
3.4333 -3.5500 -2.1523 0.9787
3.7395 -3.2337 -2.1546 0.9787
4.2612 -2.5239 -2.1584 0.9786
4.4723 -2.1362 -2.1600 0.9786
4.6475 -1.7308 -2.1614 0.9786
4.9452 -0.4419 -2.1638 0.9786
4.3734 1.6287 -2.1602 0.9796
4.0109 2.3757 -2.1578 0.9797
3.5208 3.0445 -2.1545 0.9797
2.5836 3.8550 -2.1481 0.9798
2.2276 4.0649 -2.1456 0.9798
1.8547 4.2419 -2.1430 0.9798
1.4680 4.3846 -2.1403 0.9798
1.0705 4.4920 -2.1375 0.9799
0.6656 4.5634 -2.1347 0.9799
0.2564 4.5983 -2.1318 0.9799
-0.5614 4.5584 -2.1260 0.9800
-0.9636 4.4843 -2.1231 0.9800
-1.3571 4.3749 -2.1203 0.9800
-1.7389 4.2313 -2.1176 0.9800
-2.1060 4.0547 -2.1149 0.9801
-3.0919 3.3429 -2.1078 0.9801
-3.3738 3.0514 -2.1057 0.9801
-3.6288 2.7366 -2.1038 0.9802
-3.8549 2.4008 -2.1021 0.9802
-1.5257 0.6072 -0.7601 0.9928
-1.6716 0.0373 -0.7739 0.9927
-1.6165 -0.4043 -0.7713 0.9927
-1.5621 -0.5424 -0.7654 0.9927
-0.7626 -4.5212 -2.1224 0.9800
1.6613 -4.3134 -2.1396 0.9798
2.4058 -3.9604 -2.1449 0.9798
2.7519 -3.7350 -2.1475 0.9798
3.6521 -2.8840 -2.1540 0.9797
4.2938 -1.8207 -2.1588 0.9797
4.5528 -1.0315 -2.1609 0.9796
4.6658 -0.2081 -2.1619 0.9796
4.5539 1.0318 -2.1614 0.9796
4.2955 1.8215 -2.1597 0.9796
3.8998 2.5511 -2.1571 0.9797
3.3801 3.1969 -2.1536 0.9797
1.2704 4.4428 -2.1389 0.9798
0.8688 4.5322 -2.1361 0.9799
0.4613 4.5854 -2.1332 0.9799
0.0513 4.6020 -2.1303 0.9799
-0.7634 4.5258 -2.1245 0.9800
-1.1616 4.4340 -2.1217 0.9800
-1.5497 4.3073 -2.1189 0.9800
-1.9244 4.1470 -2.1162 0.9801
-2.2831 3.9545 -2.1136 0.9801
-2.6230 3.7312 -2.1112 0.9801
-3.2361 3.2003 -2.1067 0.9801
-3.5048 2.8968 -2.1047 0.9802
-3.7455 2.5712 -2.1029 0.9802
-3.9566 2.2259 -2.1014 0.9802
-1.6738 0.1120 -0.7765 0.9926
-1.6716 -0.0373 -0.7739 0.9927
-1.6373 -0.3328 -0.7734 0.9927
-3.6266 -2.7349 -2.1025 0.9802
-3.3715 -3.0494 -2.1042 0.9802
-2.7828 -3.6057 -2.1083 0.9801
-2.4534 -3.8432 -2.1106 0.9801
-2.1040 -4.0510 -2.1130 0.9801
-0.9627 -4.4798 -2.1210 0.9800
0.2561 -4.5935 -2.1296 0.9799
0.6649 -4.5587 -2.1325 0.9799
1.0694 -4.4875 -2.1354 0.9799
1.4665 -4.3803 -2.1382 0.9798
1.8530 -4.2379 -2.1410 0.9798
2.2256 -4.0612 -2.1436 0.9798
2.5813 -3.8516 -2.1462 0.9798
2.9172 -3.6107 -2.1487 0.9797
3.2304 -3.3402 -2.1509 0.9797
4.0088 -2.3744 -2.1567 0.9797
4.3718 -1.6281 -2.1594 0.9796
4.5950 -0.8278 -2.1612 0.9796
4.6515 -0.4157 -2.1617 0.9796
4.3860 0.3919 -2.1600 0.9806
4.3332 0.7807 -2.1597 0.9806
4.2454 1.1629 -2.1592 0.9806
4.1236 1.5356 -2.1584 0.9806
3.7820 2.2401 -2.1562 0.9806
3.5652 2.5661 -2.1547 0.9806
3.3201 2.8710 -2.1531 0.9806
3.0488 3.1524 -2.1512 0.9807
2.4368 3.6359 -2.1470 0.9807
1.7496 4.0014 -2.1422 0.9807
0.6280 4.3056 -2.1343 0.9808
0.2419 4.3388 -2.1316 0.9808
-0.1450 4.3376 -2.1289 0.9808
-1.6414 3.9941 -2.1182 0.9809
-1.9880 3.8276 -2.1157 0.9810
-2.6294 3.4070 -2.1110 0.9810
-2.9193 3.1563 -2.1089 0.9810
-1.3536 0.0302 -0.6641 0.9940
-1.3171 -0.4573 -0.6839 0.9938
-1.2865 -0.5797 -0.6922 0.9937
-3.7346 -2.1010 -2.1019 0.9811
-3.5350 -2.4266 -2.1032 0.9811
-3.3074 -2.7337 -2.1048 0.9811
-2.7751 -3.2824 -2.1084 0.9810
-2.4744 -3.5198 -2.1105 0.9810
-2.1535 -3.7300 -2.1127 0.9810
-1.8150 -3.9112 -2.1151 0.9810
-1.4614 -4.0620 -2.1175 0.9810
-1.0954 -4.1810 -2.1201 0.9809
-0.3376 -4.3198 -2.1254 0.9809
0.4348 -4.3223 -2.1309 0.9808
0.8189 -4.2719 -2.1336 0.9808
1.5672 -4.0692 -2.1390 0.9808
2.2692 -3.7357 -2.1440 0.9807
3.8774 -2.0691 -2.1558 0.9806
4.1875 -1.3503 -2.1582 0.9806
4.3634 -0.5868 -2.1596 0.9806
4.2936 0.9728 -2.1595 0.9806
4.1887 1.3507 -2.1588 0.9806
3.4461 2.7213 -2.1539 0.9806
1.9272 3.9218 -2.1434 0.9807
1.5687 4.0729 -2.1409 0.9807
0.8196 4.2760 -2.1357 0.9808
0.0484 4.3425 -2.1302 0.9808
-1.0964 4.1849 -2.1221 0.9809
-1.8166 3.9147 -2.1169 0.9810
-2.4763 3.5226 -2.1122 0.9810
-2.7772 3.2848 -2.1100 0.9810
-3.0555 3.0217 -2.1079 0.9810
-3.5369 2.4280 -2.1044 0.9811
-3.7363 2.1020 -2.1029 0.9811
-1.3149 0.3289 -0.6649 0.9940
-1.3513 0.0905 -0.6643 0.9940
-1.3536 -0.0302 -0.6641 0.9940
-1.3419 -0.1501 -0.6624 0.9940
-1.3200 -0.3934 -0.6756 0.9939
-1.3059 -0.5198 -0.6895 0.9938
-3.6384 -2.2660 -2.1025 0.9811
-3.1836 -2.8794 -2.1056 0.9811
-2.9172 -3.1541 -2.1074 0.9810
-2.3163 -3.6285 -2.1116 0.9810
-1.2798 -4.1255 -2.1188 0.9809
-0.1449 -4.3334 -2.1268 0.9809
0.2417 -4.3346 -2.1295 0.9808
2.0994 -3.8309 -2.1428 0.9807
2.4348 -3.6329 -2.1452 0.9807
3.3180 -2.8692 -2.1517 0.9806
3.9670 -1.8949 -2.1565 0.9806
4.1222 -1.5351 -2.1577 0.9806
4.3324 -0.7805 -2.1594 0.9806
4.3856 -0.3919 -2.1598 0.9806
4.1604 0.0000 -2.1583 0.9814
3.7498 1.7911 -2.1558 0.9814
3.5735 2.1166 -2.1547 0.9815
3.3688 2.4247 -2.1533 0.9815
2.8811 2.9790 -2.1500 0.9815
2.3030 3.4363 -2.1460 0.9815
1.9859 3.6239 -2.1438 0.9816
1.6537 3.7822 -2.1415 0.9816
1.3091 3.9099 -2.1391 0.9816
0.9547 4.0063 -2.1366 0.9816
-0.1371 4.1013 -2.1289 0.9817
-0.5010 4.0679 -2.1263 0.9817
-1.2114 3.9053 -2.1212 0.9817
-1.5524 3.7776 -2.1188 0.9818
-2.7617 2.9859 -2.1100 0.9818
-1.0665 0.5390 -0.6199 0.9946
-1.1070 0.4406 -0.6181 0.9946
-1.1266 0.3358 -0.6099 0.9947
-1.1333 0.2303 -0.5999 0.9948
-1.1649 0.1303 -0.6081 0.9947
-1.1739 -0.0786 -0.6103 0.9947
-1.1198 -0.3889 -0.6150 0.9947
-1.0898 -0.4910 -0.6201 0.9946
-3.3447 -2.2960 -2.1046 0.9819
-2.8888 -2.8568 -2.1077 0.9819
-2.3407 -3.3297 -2.1115 0.9818
-2.0371 -3.5283 -2.1136 0.9818
-1.3822 -3.8419 -2.1181 0.9818
-0.3192 -4.0849 -2.1256 0.9817
1.1319 -3.9586 -2.1359 0.9816
1.4815 -3.8466 -2.1384 0.9816
1.8200 -3.7037 -2.1409 0.9816
2.7424 -3.1009 -2.1475 0.9815
3.2544 -2.5700 -2.1513 0.9815
3.6637 -1.9550 -2.1543 0.9815
3.9564 -1.2758 -2.1566 0.9814
4.1561 -0.1853 -2.1582 0.9814
4.1563 0.1853 -2.1583 0.9814
4.0566 0.9191 -2.1578 0.9814
3.9575 1.2761 -2.1572 0.9814
3.8268 1.6227 -2.1563 0.9814
3.6653 1.9559 -2.1553 0.9815
3.4746 2.2730 -2.1540 0.9815
3.0122 2.8489 -2.1509 0.9815
2.1465 3.5336 -2.1449 0.9815
1.4828 3.8499 -2.1403 0.9816
0.4115 4.0904 -2.1327 0.9816
0.0457 4.1058 -2.1302 0.9817
-1.3834 3.8452 -2.1200 0.9818
-1.7182 3.7026 -2.1176 0.9818
-2.3425 3.3322 -2.1131 0.9818
-3.1310 2.5878 -2.1073 0.9819
-1.0898 0.4910 -0.6201 0.9946
-1.1198 0.3888 -0.6150 0.9947
-1.1275 0.2820 -0.6029 0.9948
-1.1785 -0.0263 -0.6115 0.9947
-1.1649 -0.1303 -0.6081 0.9947
-1.1333 -0.2303 -0.5999 0.9948
-3.4425 -2.1440 -2.1040 0.9819
-2.7598 -2.9839 -2.1086 0.9819
-2.4855 -3.2206 -2.1105 0.9818
-1.8789 -3.6175 -2.1147 0.9818
-1.5511 -3.7744 -2.1170 0.9818
-0.5006 -4.0642 -2.1243 0.9817
1.3079 -3.9065 -2.1372 0.9816
2.6003 -3.2184 -2.1465 0.9815
3.1354 -2.7113 -2.1504 0.9815
3.3670 -2.4234 -2.1521 0.9815
3.5718 -2.1156 -2.1536 0.9815
3.7483 -1.7904 -2.1550 0.9815
3.8948 -1.4504 -2.1561 0.9814
4.0101 -1.0985 -2.1570 0.9814
4.0932 -0.7374 -2.1577 0.9814
4.1435 -0.3703 -2.1581 0.9814
2.0036 0.3610 -1.1150 0.9908
2.0004 0.5480 -1.1360 0.9906
1.9715 0.7342 -1.1522 0.9905
3.5494 1.6954 -2.1544 0.9822
3.1890 2.2953 -2.1520 0.9822
2.9700 2.5682 -2.1505 0.9823
2.1804 3.2534 -2.1451 0.9823
1.8804 3.4312 -2.1430 0.9823
1.2396 3.7025 -2.1385 0.9824
0.9042 3.7940 -2.1362 0.9824
0.5622 3.8550 -2.1338 0.9824
0.2166 3.8853 -2.1313 0.9824
-0.8147 3.7915 -2.1240 0.9825
-1.1477 3.6997 -2.1216 0.9825
-1.4708 3.5790 -2.1193 0.9825
-1.7816 3.4302 -2.1171 0.9825
-2.0778 3.2548 -2.1149 0.9825
-2.3570 3.0540 -2.1129 0.9826
-2.8562 2.5832 -2.1092 0.9826
-3.0724 2.3170 -2.1077 0.9826
-0.9638 0.3836 -0.5681 0.9953
-1.0293 0.1151 -0.5673 0.9953
-1.0415 0.0232 -0.5706 0.9953
-1.0376 -0.0695 -0.5696 0.9953
-0.9847 -0.2463 -0.5559 0.9954
-0.9240 -0.5198 -0.5806 0.9952
-3.1699 -2.1760 -2.1059 0.9826
-2.9656 -2.4511 -2.1073 0.9826
-2.7377 -2.7074 -2.1088 0.9826
-2.4879 -2.9427 -2.1105 0.9826
-2.2180 -3.1552 -2.1124 0.9826
-1.3095 -3.6400 -2.1187 0.9825
-0.9814 -3.7461 -2.1210 0.9825
-0.6448 -3.8229 -2.1234 0.9825
0.0433 -3.8855 -2.1282 0.9824
1.0720 -3.7489 -2.1356 0.9824
1.4029 -3.6426 -2.1379 0.9824
2.0308 -3.3432 -2.1424 0.9823
2.8498 -2.6954 -2.1484 0.9823
3.0809 -2.4329 -2.1501 0.9823
3.4680 -1.8506 -2.1530 0.9822
2.0226 -0.2720 -1.1178 0.9907
2.0434 -0.0911 -1.1203 0.9907
2.0434 0.0911 -1.1203 0.9907
1.9895 0.6415 -1.1449 0.9905
3.2891 2.1516 -2.1527 0.9822
3.0825 2.4343 -2.1513 0.9822
2.8516 2.6970 -2.1497 0.9823
2.0324 3.3457 -2.1441 0.9823
1.7248 3.5098 -2.1419 0.9823
1.4041 3.6456 -2.1397 0.9823
-0.3026 3.8728 -2.1276 0.9824
-0.9823 3.7493 -2.1228 0.9825
-1.3106 3.6429 -2.1204 0.9825
-1.6279 3.5080 -2.1182 0.9825
-2.2196 3.1574 -2.1139 0.9826
-2.7394 2.7090 -2.1101 0.9826
-3.1715 2.1771 -2.1069 0.9826
-0.9847 0.2463 -0.5559 0.9954
-1.0166 0.1599 -0.5637 0.9953
-1.0376 0.0695 -0.5696 0.9953
-1.0415 -0.0232 -0.5706 0.9953
-1.0293 -0.1151 -0.5673 0.9953
-1.0000 -0.2033 -0.5589 0.9954
-0.9638 -0.3836 -0.5681 0.9953
-0.9364 -0.4732 -0.5746 0.9952
-2.8545 -2.5817 -2.1080 0.9826
-2.6154 -2.8278 -2.1097 0.9826
-2.0763 -3.2524 -2.1134 0.9826
-1.1467 -3.6967 -2.1199 0.9825
0.2165 -3.8820 -2.1295 0.9824
0.5618 -3.8517 -2.1319 0.9824
0.9034 -3.7907 -2.1343 0.9824
1.8789 -3.4286 -2.1413 0.9823
2.1788 -3.2510 -2.1435 0.9823
2.4619 -3.0471 -2.1456 0.9823
2.7258 -2.8184 -2.1475 0.9823
3.3811 -2.0027 -2.1523 0.9822
3.5480 -1.6948 -2.1536 0.9822
2.0004 -0.5480 -1.1360 0.9906
2.0036 -0.3610 -1.1150 0.9908
2.0356 -0.1819 -1.1193 0.9907
1.8754 0.0000 -1.0828 0.9914
1.8426 0.3320 -1.0810 0.9914
1.8267 0.5004 -1.0935 0.9913
1.7869 0.6655 -1.1009 0.9912
3.0235 2.1762 -2.1508 0.9829
2.3361 2.8914 -2.1461 0.9830
1.7832 3.2539 -2.1423 0.9830
1.1757 3.5116 -2.1380 0.9830
-0.1232 3.6852 -2.1289 0.9831
-0.7730 3.5972 -2.1242 0.9831
-1.3956 3.3960 -2.1198 0.9832
-1.6906 3.2550 -2.1177 0.9832
-2.2368 2.8983 -2.1137 0.9832
-2.4838 2.6854 -2.1119 0.9832
-2.9161 2.1992 -2.1087 0.9833
-0.8932 0.3555 -0.5550 0.9956
-0.9120 0.1854 -0.5373 0.9957
-0.9274 -0.0621 -0.5366 0.9957
-0.9189 -0.1445 -0.5370 0.9957
-0.9030 -0.2258 -0.5374 0.9957
-0.8638 -0.4860 -0.5722 0.9954
-2.1050 -2.9944 -2.1132 0.9832
-0.9312 -3.5544 -2.1214 0.9832
-0.2869 -3.6711 -2.1259 0.9831
0.0411 -3.6860 -2.1283 0.9831
2.7022 -2.5557 -2.1474 0.9830
2.9212 -2.3068 -2.1490 0.9830
3.1170 -2.0390 -2.1504 0.9829
1.8316 -0.4150 -1.0843 0.9914
1.8592 0.2500 -1.0831 0.9914
1.7564 0.7448 -1.1014 0.9912
3.1184 2.0400 -2.1514 0.9829
2.9227 2.3080 -2.1501 0.9829
2.7038 2.5572 -2.1486 0.9830
2.4635 2.7856 -2.1470 0.9830
2.2040 2.9913 -2.1452 0.9830
1.9273 3.1727 -2.1433 0.9830
1.3316 3.4575 -2.1391 0.9830
1.0176 3.5586 -2.1369 0.9830
0.3697 3.6748 -2.1324 0.9831
0.0411 3.6891 -2.1300 0.9831
-0.2871 3.6741 -2.1277 0.9831
-0.6123 3.6300 -2.1254 0.9831
-0.9320 3.5573 -2.1231 0.9832
-1.2436 3.4566 -2.1209 0.9832
-1.5447 3.3288 -2.1187 0.9832
-1.8331 3.1749 -2.1166 0.9832
-2.5999 2.5711 -2.1111 0.9833
-3.0102 2.0664 -2.1080 0.9833
-0.8984 0.3119 -0.5490 0.9956
-0.9030 0.2258 -0.5374 0.9957
-0.9274 0.0621 -0.5366 0.9957
-0.9306 -0.0207 -0.5374 0.9957
-0.9237 -0.1033 -0.5366 0.9957
-0.9120 -0.1854 -0.5373 0.9957
-0.8491 -0.5289 -0.5776 0.9954
-2.9147 -2.1981 -2.1077 0.9833
-2.4823 -2.6838 -2.1106 0.9833
-2.2353 -2.8964 -2.1123 0.9832
-1.3945 -3.3934 -2.1182 0.9832
-0.7724 -3.5943 -2.1225 0.9832
-0.4499 -3.6527 -2.1248 0.9831
-0.1231 -3.6822 -2.1271 0.9831
0.2053 -3.6826 -2.1294 0.9831
0.5329 -3.6537 -2.1318 0.9831
1.1748 -3.5088 -2.1363 0.9831
1.4839 -3.3939 -2.1386 0.9830
2.0662 -3.0830 -2.1428 0.9830
3.0221 -2.1752 -2.1497 0.9829
1.7869 -0.6655 -1.1009 0.9912
1.8426 -0.3320 -1.0810 0.9914
1.8700 -0.1671 -1.0839 0.9914
